G04*
G04 #@! TF.GenerationSoftware,Altium Limited,Altium Designer,20.0.13 (296)*
G04*
G04 Layer_Color=32768*
%FSLAX44Y44*%
%MOMM*%
G71*
G01*
G75*
%ADD10C,0.1000*%
%ADD136C,0.0500*%
G54D10*
X1423363Y1081462D02*
X1430434Y1074391D01*
X1423363Y1074391D02*
X1430434Y1081462D01*
X1491525Y1034990D02*
X1498596Y1042061D01*
X1491525Y1042061D02*
X1498596Y1034990D01*
X1456464Y997464D02*
X1463535Y1004535D01*
X1456464Y1004536D02*
X1463535Y997465D01*
X1261929Y1036764D02*
X1269000Y1043836D01*
X1261929Y1043836D02*
X1269000Y1036764D01*
X1367209Y1106308D02*
X1374279Y1113379D01*
X1367209D02*
X1374279Y1106308D01*
X1386173Y1128202D02*
X1393244Y1121131D01*
X1386173Y1121131D02*
X1393244Y1128202D01*
X1351924Y1120808D02*
X1358995Y1127879D01*
X1351924Y1127879D02*
X1358995Y1120808D01*
X1423709Y1164808D02*
X1430780Y1171879D01*
X1423709D02*
X1430780Y1164808D01*
X1408425Y1179308D02*
X1415495Y1186379D01*
X1408425Y1186379D02*
X1415495Y1179308D01*
X1442673Y1186702D02*
X1449744Y1179631D01*
X1442673Y1179631D02*
X1449744Y1186702D01*
X1310708Y1052808D02*
X1317779Y1059879D01*
X1310708D02*
X1317779Y1052808D01*
X1329673Y1074702D02*
X1336744Y1067631D01*
X1329673D02*
X1336744Y1074702D01*
X1295424Y1067308D02*
X1302495Y1074379D01*
X1295424D02*
X1302495Y1067308D01*
X1326464Y1170964D02*
X1333536Y1178036D01*
X1326464D02*
X1333536Y1170964D01*
X1508464Y1198465D02*
X1515536Y1205535D01*
X1508464D02*
X1515536Y1198465D01*
X1511465Y1118465D02*
X1518535Y1125536D01*
X1511465Y1125536D02*
X1518535Y1118465D01*
X1521000Y1071000D02*
X1531000D01*
X1526000Y1066000D02*
Y1076000D01*
X1462961Y1134375D02*
X1470032Y1127304D01*
X1462961Y1127303D02*
X1470032Y1134375D01*
G54D136*
X1426898Y1017822D02*
X1487003Y1077927D01*
X1366794D02*
X1426898Y1138031D01*
X1487003Y1077927D01*
X1366794D02*
X1426898Y1017822D01*
X1479504Y1038525D02*
X1495061Y1022969D01*
Y1054082D02*
X1510617Y1038525D01*
X1495061Y1022969D02*
X1510617Y1038525D01*
X1479504D02*
X1495061Y1054082D01*
X1432599Y998348D02*
X1457348Y973599D01*
X1462652Y1028400D02*
X1487401Y1003652D01*
X1432599Y998348D02*
X1462652Y1028400D01*
X1457348Y973599D02*
X1487401Y1003652D01*
X1269000Y1053735D02*
X1278900Y1043836D01*
X1252030Y1036764D02*
X1261929Y1026865D01*
X1252030Y1036764D02*
X1269000Y1053735D01*
X1261929Y1026865D02*
X1278900Y1043836D01*
X1372512Y1121510D02*
X1382411Y1111611D01*
X1359077Y1108075D02*
X1368976Y1098176D01*
X1359077Y1108075D02*
X1372512Y1121510D01*
X1368976Y1098176D02*
X1382411Y1111611D01*
X1393244Y1111231D02*
X1403144Y1121131D01*
X1376273Y1128202D02*
X1386173Y1138102D01*
X1403144Y1121131D01*
X1376273Y1128202D02*
X1393244Y1111231D01*
X1342025Y1120808D02*
X1351925Y1110909D01*
X1358995Y1137779D02*
X1368895Y1127879D01*
X1351925Y1110909D02*
X1368895Y1127879D01*
X1342025Y1120808D02*
X1358995Y1137779D01*
X1429012Y1180010D02*
X1438911Y1170111D01*
X1415576Y1166575D02*
X1425476Y1156676D01*
X1415576Y1166575D02*
X1429012Y1180010D01*
X1425476Y1156676D02*
X1438911Y1170111D01*
X1398525Y1179308D02*
X1408425Y1169408D01*
X1415495Y1196279D02*
X1425395Y1186379D01*
X1408425Y1169408D02*
X1425395Y1186379D01*
X1398525Y1179308D02*
X1415495Y1196279D01*
X1449744Y1169731D02*
X1459644Y1179631D01*
X1432773Y1186702D02*
X1442673Y1196602D01*
X1459644Y1179631D01*
X1432773Y1186702D02*
X1449744Y1169731D01*
X1316012Y1068010D02*
X1325911Y1058111D01*
X1302576Y1054575D02*
X1312476Y1044676D01*
X1302576Y1054575D02*
X1316012Y1068010D01*
X1312476Y1044676D02*
X1325911Y1058111D01*
X1336744Y1057732D02*
X1346644Y1067631D01*
X1319773Y1074702D02*
X1329673Y1084602D01*
X1346644Y1067631D01*
X1319773Y1074702D02*
X1336744Y1057732D01*
X1285524Y1067308D02*
X1295424Y1057408D01*
X1302495Y1084278D02*
X1312395Y1074379D01*
X1295424Y1057408D02*
X1312395Y1074379D01*
X1285524Y1067308D02*
X1302495Y1084278D01*
X1332829Y1199956D02*
X1355456Y1177328D01*
X1304544Y1171671D02*
X1327172Y1149044D01*
X1355456Y1177328D01*
X1304544Y1171671D02*
X1332829Y1199956D01*
X1467629Y1207480D02*
X1517480Y1157629D01*
X1506520Y1246371D02*
X1556371Y1196520D01*
X1517480Y1157629D02*
X1556371Y1196520D01*
X1467629Y1207480D02*
X1506520Y1246371D01*
X1479998Y1131546D02*
X1524546Y1086998D01*
X1505454Y1157002D02*
X1550002Y1112454D01*
X1524546Y1086998D02*
X1550002Y1112454D01*
X1479998Y1131546D02*
X1505454Y1157002D01*
X1547250Y1053500D02*
Y1088500D01*
X1504750Y1053500D02*
Y1088500D01*
Y1053500D02*
X1547250D01*
X1504750Y1088500D02*
X1547250D01*
X1469855Y1108388D02*
X1488947Y1127480D01*
X1444045Y1134198D02*
X1463138Y1153289D01*
X1444045Y1134198D02*
X1469855Y1108388D01*
X1463138Y1153289D02*
X1488947Y1127480D01*
M02*
