G04*
G04 #@! TF.GenerationSoftware,Altium Limited,Altium Designer,20.0.13 (296)*
G04*
G04 Layer_Color=16711935*
%FSLAX44Y44*%
%MOMM*%
G71*
G01*
G75*
G04:AMPARAMS|DCode=52|XSize=0.6032mm|YSize=0.7032mm|CornerRadius=0.1516mm|HoleSize=0mm|Usage=FLASHONLY|Rotation=45.000|XOffset=0mm|YOffset=0mm|HoleType=Round|Shape=RoundedRectangle|*
%AMROUNDEDRECTD52*
21,1,0.6032,0.4000,0,0,45.0*
21,1,0.3000,0.7032,0,0,45.0*
1,1,0.3032,0.2475,-0.0354*
1,1,0.3032,0.0354,-0.2475*
1,1,0.3032,-0.2475,0.0354*
1,1,0.3032,-0.0354,0.2475*
%
%ADD52ROUNDEDRECTD52*%
G04:AMPARAMS|DCode=53|XSize=0.9032mm|YSize=1.4532mm|CornerRadius=0.2766mm|HoleSize=0mm|Usage=FLASHONLY|Rotation=135.000|XOffset=0mm|YOffset=0mm|HoleType=Round|Shape=RoundedRectangle|*
%AMROUNDEDRECTD53*
21,1,0.9032,0.9000,0,0,135.0*
21,1,0.3500,1.4532,0,0,135.0*
1,1,0.5532,0.1945,0.4419*
1,1,0.5532,0.4419,0.1945*
1,1,0.5532,-0.1945,-0.4419*
1,1,0.5532,-0.4419,-0.1945*
%
%ADD53ROUNDEDRECTD53*%
G04:AMPARAMS|DCode=54|XSize=0.6032mm|YSize=0.7032mm|CornerRadius=0.1516mm|HoleSize=0mm|Usage=FLASHONLY|Rotation=180.000|XOffset=0mm|YOffset=0mm|HoleType=Round|Shape=RoundedRectangle|*
%AMROUNDEDRECTD54*
21,1,0.6032,0.4000,0,0,180.0*
21,1,0.3000,0.7032,0,0,180.0*
1,1,0.3032,-0.1500,0.2000*
1,1,0.3032,0.1500,0.2000*
1,1,0.3032,0.1500,-0.2000*
1,1,0.3032,-0.1500,-0.2000*
%
%ADD54ROUNDEDRECTD54*%
G04:AMPARAMS|DCode=55|XSize=0.6032mm|YSize=0.7032mm|CornerRadius=0.1516mm|HoleSize=0mm|Usage=FLASHONLY|Rotation=315.000|XOffset=0mm|YOffset=0mm|HoleType=Round|Shape=RoundedRectangle|*
%AMROUNDEDRECTD55*
21,1,0.6032,0.4000,0,0,315.0*
21,1,0.3000,0.7032,0,0,315.0*
1,1,0.3032,-0.0354,-0.2475*
1,1,0.3032,-0.2475,-0.0354*
1,1,0.3032,0.0354,0.2475*
1,1,0.3032,0.2475,0.0354*
%
%ADD55ROUNDEDRECTD55*%
%ADD57C,0.7032*%
%ADD64C,0.4032*%
%ADD65C,1.5000*%
G04:AMPARAMS|DCode=72|XSize=0.6032mm|YSize=0.7032mm|CornerRadius=0.1516mm|HoleSize=0mm|Usage=FLASHONLY|Rotation=90.000|XOffset=0mm|YOffset=0mm|HoleType=Round|Shape=RoundedRectangle|*
%AMROUNDEDRECTD72*
21,1,0.6032,0.4000,0,0,90.0*
21,1,0.3000,0.7032,0,0,90.0*
1,1,0.3032,0.2000,0.1500*
1,1,0.3032,0.2000,-0.1500*
1,1,0.3032,-0.2000,-0.1500*
1,1,0.3032,-0.2000,0.1500*
%
%ADD72ROUNDEDRECTD72*%
G04:AMPARAMS|DCode=75|XSize=0.7032mm|YSize=1.2032mm|CornerRadius=0mm|HoleSize=0mm|Usage=FLASHONLY|Rotation=225.000|XOffset=0mm|YOffset=0mm|HoleType=Round|Shape=Rectangle|*
%AMROTATEDRECTD75*
4,1,4,-0.1768,0.6740,0.6740,-0.1768,0.1768,-0.6740,-0.6740,0.1768,-0.1768,0.6740,0.0*
%
%ADD75ROTATEDRECTD75*%

%ADD85C,1.2032*%
%ADD86C,1.0032*%
%ADD87C,2.2032*%
%ADD88C,2.4000*%
%ADD89C,1.1000*%
G04:AMPARAMS|DCode=120|XSize=1.4032mm|YSize=1.4032mm|CornerRadius=0.4016mm|HoleSize=0mm|Usage=FLASHONLY|Rotation=225.000|XOffset=0mm|YOffset=0mm|HoleType=Round|Shape=RoundedRectangle|*
%AMROUNDEDRECTD120*
21,1,1.4032,0.6000,0,0,225.0*
21,1,0.6000,1.4032,0,0,225.0*
1,1,0.8032,-0.4243,0.0000*
1,1,0.8032,0.0000,0.4243*
1,1,0.8032,0.4243,0.0000*
1,1,0.8032,0.0000,-0.4243*
%
%ADD120ROUNDEDRECTD120*%
G04:AMPARAMS|DCode=121|XSize=1.8032mm|YSize=1.7032mm|CornerRadius=0.4766mm|HoleSize=0mm|Usage=FLASHONLY|Rotation=225.000|XOffset=0mm|YOffset=0mm|HoleType=Round|Shape=RoundedRectangle|*
%AMROUNDEDRECTD121*
21,1,1.8032,0.7500,0,0,225.0*
21,1,0.8500,1.7032,0,0,225.0*
1,1,0.9532,-0.5657,-0.0354*
1,1,0.9532,0.0354,0.5657*
1,1,0.9532,0.5657,0.0354*
1,1,0.9532,-0.0354,-0.5657*
%
%ADD121ROUNDEDRECTD121*%
G04:AMPARAMS|DCode=122|XSize=1.4032mm|YSize=1.4032mm|CornerRadius=0.4016mm|HoleSize=0mm|Usage=FLASHONLY|Rotation=135.000|XOffset=0mm|YOffset=0mm|HoleType=Round|Shape=RoundedRectangle|*
%AMROUNDEDRECTD122*
21,1,1.4032,0.6000,0,0,135.0*
21,1,0.6000,1.4032,0,0,135.0*
1,1,0.8032,0.0000,0.4243*
1,1,0.8032,0.4243,0.0000*
1,1,0.8032,0.0000,-0.4243*
1,1,0.8032,-0.4243,0.0000*
%
%ADD122ROUNDEDRECTD122*%
G04:AMPARAMS|DCode=123|XSize=1.8032mm|YSize=1.7032mm|CornerRadius=0.4766mm|HoleSize=0mm|Usage=FLASHONLY|Rotation=135.000|XOffset=0mm|YOffset=0mm|HoleType=Round|Shape=RoundedRectangle|*
%AMROUNDEDRECTD123*
21,1,1.8032,0.7500,0,0,135.0*
21,1,0.8500,1.7032,0,0,135.0*
1,1,0.9532,-0.0354,0.5657*
1,1,0.9532,0.5657,-0.0354*
1,1,0.9532,0.0354,-0.5657*
1,1,0.9532,-0.5657,0.0354*
%
%ADD123ROUNDEDRECTD123*%
G04:AMPARAMS|DCode=124|XSize=0.7032mm|YSize=1.2032mm|CornerRadius=0mm|HoleSize=0mm|Usage=FLASHONLY|Rotation=135.000|XOffset=0mm|YOffset=0mm|HoleType=Round|Shape=Rectangle|*
%AMROTATEDRECTD124*
4,1,4,0.6740,0.1768,-0.1768,-0.6740,-0.6740,-0.1768,0.1768,0.6740,0.6740,0.1768,0.0*
%
%ADD124ROTATEDRECTD124*%

G04:AMPARAMS|DCode=125|XSize=0.9032mm|YSize=1.4532mm|CornerRadius=0.2766mm|HoleSize=0mm|Usage=FLASHONLY|Rotation=90.000|XOffset=0mm|YOffset=0mm|HoleType=Round|Shape=RoundedRectangle|*
%AMROUNDEDRECTD125*
21,1,0.9032,0.9000,0,0,90.0*
21,1,0.3500,1.4532,0,0,90.0*
1,1,0.5532,0.4500,0.1750*
1,1,0.5532,0.4500,-0.1750*
1,1,0.5532,-0.4500,-0.1750*
1,1,0.5532,-0.4500,0.1750*
%
%ADD125ROUNDEDRECTD125*%
G04:AMPARAMS|DCode=126|XSize=0.5032mm|YSize=0.3032mm|CornerRadius=0.1266mm|HoleSize=0mm|Usage=FLASHONLY|Rotation=135.000|XOffset=0mm|YOffset=0mm|HoleType=Round|Shape=RoundedRectangle|*
%AMROUNDEDRECTD126*
21,1,0.5032,0.0500,0,0,135.0*
21,1,0.2500,0.3032,0,0,135.0*
1,1,0.2532,-0.0707,0.1061*
1,1,0.2532,0.1061,-0.0707*
1,1,0.2532,0.0707,-0.1061*
1,1,0.2532,-0.1061,0.0707*
%
%ADD126ROUNDEDRECTD126*%
G04:AMPARAMS|DCode=127|XSize=0.8032mm|YSize=2.7032mm|CornerRadius=0.2516mm|HoleSize=0mm|Usage=FLASHONLY|Rotation=225.000|XOffset=0mm|YOffset=0mm|HoleType=Round|Shape=RoundedRectangle|*
%AMROUNDEDRECTD127*
21,1,0.8032,2.2000,0,0,225.0*
21,1,0.3000,2.7032,0,0,225.0*
1,1,0.5032,-0.8839,0.6718*
1,1,0.5032,-0.6718,0.8839*
1,1,0.5032,0.8839,-0.6718*
1,1,0.5032,0.6718,-0.8839*
%
%ADD127ROUNDEDRECTD127*%
G04:AMPARAMS|DCode=128|XSize=0.8032mm|YSize=2.7032mm|CornerRadius=0.2516mm|HoleSize=0mm|Usage=FLASHONLY|Rotation=0.000|XOffset=0mm|YOffset=0mm|HoleType=Round|Shape=RoundedRectangle|*
%AMROUNDEDRECTD128*
21,1,0.8032,2.2000,0,0,0.0*
21,1,0.3000,2.7032,0,0,0.0*
1,1,0.5032,0.1500,-1.1000*
1,1,0.5032,-0.1500,-1.1000*
1,1,0.5032,-0.1500,1.1000*
1,1,0.5032,0.1500,1.1000*
%
%ADD128ROUNDEDRECTD128*%
G04:AMPARAMS|DCode=129|XSize=0.8032mm|YSize=2.7032mm|CornerRadius=0.2516mm|HoleSize=0mm|Usage=FLASHONLY|Rotation=135.000|XOffset=0mm|YOffset=0mm|HoleType=Round|Shape=RoundedRectangle|*
%AMROUNDEDRECTD129*
21,1,0.8032,2.2000,0,0,135.0*
21,1,0.3000,2.7032,0,0,135.0*
1,1,0.5032,0.6718,0.8839*
1,1,0.5032,0.8839,0.6718*
1,1,0.5032,-0.6718,-0.8839*
1,1,0.5032,-0.8839,-0.6718*
%
%ADD129ROUNDEDRECTD129*%
G04:AMPARAMS|DCode=130|XSize=1.2032mm|YSize=2.2032mm|CornerRadius=0.3516mm|HoleSize=0mm|Usage=FLASHONLY|Rotation=165.000|XOffset=0mm|YOffset=0mm|HoleType=Round|Shape=RoundedRectangle|*
%AMROUNDEDRECTD130*
21,1,1.2032,1.5000,0,0,165.0*
21,1,0.5000,2.2032,0,0,165.0*
1,1,0.7032,-0.0474,0.7892*
1,1,0.7032,0.4356,0.6597*
1,1,0.7032,0.0474,-0.7892*
1,1,0.7032,-0.4356,-0.6597*
%
%ADD130ROUNDEDRECTD130*%
G04:AMPARAMS|DCode=131|XSize=1.2032mm|YSize=2.2032mm|CornerRadius=0.3516mm|HoleSize=0mm|Usage=FLASHONLY|Rotation=75.000|XOffset=0mm|YOffset=0mm|HoleType=Round|Shape=RoundedRectangle|*
%AMROUNDEDRECTD131*
21,1,1.2032,1.5000,0,0,75.0*
21,1,0.5000,2.2032,0,0,75.0*
1,1,0.7032,0.7892,0.0474*
1,1,0.7032,0.6597,-0.4356*
1,1,0.7032,-0.7892,-0.0474*
1,1,0.7032,-0.6597,0.4356*
%
%ADD131ROUNDEDRECTD131*%
G04:AMPARAMS|DCode=132|XSize=1.2032mm|YSize=2.2032mm|CornerRadius=0.3516mm|HoleSize=0mm|Usage=FLASHONLY|Rotation=270.000|XOffset=0mm|YOffset=0mm|HoleType=Round|Shape=RoundedRectangle|*
%AMROUNDEDRECTD132*
21,1,1.2032,1.5000,0,0,270.0*
21,1,0.5000,2.2032,0,0,270.0*
1,1,0.7032,-0.7500,-0.2500*
1,1,0.7032,-0.7500,0.2500*
1,1,0.7032,0.7500,0.2500*
1,1,0.7032,0.7500,-0.2500*
%
%ADD132ROUNDEDRECTD132*%
G04:AMPARAMS|DCode=133|XSize=1.2032mm|YSize=2.2032mm|CornerRadius=0.3516mm|HoleSize=0mm|Usage=FLASHONLY|Rotation=180.000|XOffset=0mm|YOffset=0mm|HoleType=Round|Shape=RoundedRectangle|*
%AMROUNDEDRECTD133*
21,1,1.2032,1.5000,0,0,180.0*
21,1,0.5000,2.2032,0,0,180.0*
1,1,0.7032,-0.2500,0.7500*
1,1,0.7032,0.2500,0.7500*
1,1,0.7032,0.2500,-0.7500*
1,1,0.7032,-0.2500,-0.7500*
%
%ADD133ROUNDEDRECTD133*%
G36*
X1340497Y1173503D02*
X1337008Y1170000D01*
X1324000Y1170000D01*
X1296000Y1198000D01*
X1306000Y1208000D01*
X1340497Y1173503D01*
D02*
G37*
G54D52*
X1520465Y1047465D02*
D03*
X1527536Y1054536D02*
D03*
X1472465Y998465D02*
D03*
X1479536Y1005536D02*
D03*
X1361535Y1020536D02*
D03*
X1354465Y1013465D02*
D03*
X1424245Y1082465D02*
D03*
X1431315Y1089536D02*
D03*
X1427535Y1097193D02*
D03*
X1420464Y1090122D02*
D03*
X1435558Y1082465D02*
D03*
X1442629Y1089536D02*
D03*
X1567536Y1050535D02*
D03*
X1560464Y1043465D02*
D03*
X1538965Y993964D02*
D03*
X1546035Y1001035D02*
D03*
X1545036Y983536D02*
D03*
X1537964Y976464D02*
D03*
X1521465Y976464D02*
D03*
X1528535Y983536D02*
D03*
X1519964Y958464D02*
D03*
X1527035Y965536D02*
D03*
G54D53*
X1372283Y1044717D02*
D03*
X1385718Y1031282D02*
D03*
G54D54*
X1408500Y1213000D02*
D03*
X1398500Y1213000D02*
D03*
X1564000Y1059000D02*
D03*
X1554000Y1059000D02*
D03*
G54D55*
X1481465Y1047535D02*
D03*
X1488535Y1040465D02*
D03*
X1434465Y1000535D02*
D03*
X1441535Y993465D02*
D03*
X1415465Y1082535D02*
D03*
X1422536Y1075464D02*
D03*
X1366535Y976465D02*
D03*
X1359465Y983536D02*
D03*
G54D57*
X1421745Y903000D02*
D03*
G54D64*
X1465747Y1146000D02*
D03*
X1573000Y1176000D02*
D03*
X1482000Y1165943D02*
D03*
X1418000Y977000D02*
D03*
X1328364Y1025000D02*
D03*
X1322000Y1017000D02*
D03*
X1289447Y1036283D02*
D03*
X1283041Y1029212D02*
D03*
X1366000Y1025000D02*
D03*
X1466000Y973000D02*
D03*
X1441000Y923000D02*
D03*
X1534000Y1151000D02*
D03*
X1593000Y1098000D02*
D03*
X1576000Y1091000D02*
D03*
X1518000Y1136000D02*
D03*
X1385568Y1155000D02*
D03*
X1397000Y1145000D02*
D03*
X1296602Y1137338D02*
D03*
X1430000Y901000D02*
D03*
X1451232Y979000D02*
D03*
X1381644Y1075710D02*
D03*
X1326232Y1136806D02*
D03*
X1433691Y1051000D02*
D03*
X1426898Y1051140D02*
D03*
X1517000Y1036000D02*
D03*
X1513465Y1054417D02*
D03*
X1501765Y1020927D02*
D03*
X1464000Y1020000D02*
D03*
X1453980Y1021000D02*
D03*
X1524000Y1203000D02*
D03*
X1514000Y1214000D02*
D03*
X1519000Y1209000D02*
D03*
X1363733Y1165464D02*
D03*
X1505000Y1098000D02*
D03*
X1438212Y1122884D02*
D03*
X1374343Y1028239D02*
D03*
X1388230Y1049642D02*
D03*
X1502697Y1066000D02*
D03*
X1489373Y1111000D02*
D03*
X1468000Y1097113D02*
D03*
X1535000Y1097000D02*
D03*
X1512000Y1065000D02*
D03*
X1486000Y990669D02*
D03*
X1312702Y1135000D02*
D03*
X1426898Y1135348D02*
D03*
X1330046Y1061763D02*
D03*
X1294000Y1025000D02*
D03*
X1312000Y1035000D02*
D03*
X1509611Y1014280D02*
D03*
X1512000Y1101000D02*
D03*
X1476071Y1053536D02*
D03*
X1465000Y1159000D02*
D03*
X1473000Y1152000D02*
D03*
X1481496Y1153000D02*
D03*
X1489244Y1159586D02*
D03*
X1390211Y999588D02*
D03*
X1283000Y1039000D02*
D03*
X1421241Y1083583D02*
D03*
Y1095000D02*
D03*
X1471000Y1216000D02*
D03*
X1378584Y1192000D02*
D03*
X1484000Y1235000D02*
D03*
X1393000Y1202000D02*
D03*
X1409408Y1123300D02*
D03*
X1344000Y1048879D02*
D03*
X1470000Y1058000D02*
D03*
X1340000Y1132100D02*
D03*
X1509062Y1005000D02*
D03*
X1534000Y961000D02*
D03*
X1510000Y992000D02*
D03*
X1462900Y1192100D02*
D03*
X1455900Y1199200D02*
D03*
X1381300Y1089240D02*
D03*
X1377000Y1065000D02*
D03*
X1387301Y1083583D02*
D03*
X1415585Y1077927D02*
D03*
Y1089240D02*
D03*
Y1100554D02*
D03*
X1455183Y1060956D02*
D03*
X1460840Y1066613D02*
D03*
X1472153Y1077927D02*
D03*
X1432555Y1117227D02*
D03*
X1426898Y1112000D02*
D03*
X1527657Y1148889D02*
D03*
X1422000Y1237000D02*
D03*
Y1247000D02*
D03*
X1593000Y1142000D02*
D03*
X1296602Y1128298D02*
D03*
X1380542Y965665D02*
D03*
X1345481Y1117900D02*
D03*
X1426898Y1033000D02*
D03*
X1460212Y979000D02*
D03*
X1436000Y901000D02*
D03*
X1364000Y1065000D02*
D03*
X1434465Y1021000D02*
D03*
X1421239Y1028239D02*
D03*
X1466000Y922000D02*
D03*
X1425000Y973000D02*
D03*
X1403000Y953000D02*
D03*
X1383512Y1104146D02*
D03*
X1284000Y1097000D02*
D03*
X1409928Y1049642D02*
D03*
X1404271Y1044000D02*
D03*
X1578000Y1140000D02*
D03*
X1481496Y1114839D02*
D03*
X1470496Y1108839D02*
D03*
X1426898Y1044000D02*
D03*
X1429000Y995000D02*
D03*
X1539750Y1102289D02*
D03*
X1489373Y1143919D02*
D03*
X1513000Y1146000D02*
D03*
X1522000Y1144628D02*
D03*
X1457677Y1177669D02*
D03*
X1527722Y994142D02*
D03*
X1537000Y951000D02*
D03*
X1555022Y1002629D02*
D03*
X1515000Y983000D02*
D03*
X1578580Y1053000D02*
D03*
X1548000Y968000D02*
D03*
X1256000Y1121000D02*
D03*
X1248719Y1053281D02*
D03*
X1256000Y1061000D02*
D03*
X1407621Y1204000D02*
D03*
X1256000Y1039000D02*
D03*
X1554000Y1048000D02*
D03*
X1555393Y1038000D02*
D03*
X1422123Y1072270D02*
D03*
X1427780Y1077927D02*
D03*
X1433436Y1072270D02*
D03*
X1438212Y1088358D02*
D03*
X1432555Y1084465D02*
D03*
X1426898Y1065731D02*
D03*
X1439094Y1077927D02*
D03*
X1426898Y1090122D02*
D03*
X1438212Y1065731D02*
D03*
X1415584D02*
D03*
X1443869Y1071387D02*
D03*
X1409928Y1084465D02*
D03*
X1443869D02*
D03*
X1421241Y1060074D02*
D03*
X1432555D02*
D03*
X1449526Y1077044D02*
D03*
X1432555Y1095779D02*
D03*
X1409928Y1060074D02*
D03*
X1443869D02*
D03*
X1449526Y1065731D02*
D03*
X1404271Y1090122D02*
D03*
X1438212Y1054417D02*
D03*
X1415584D02*
D03*
X1398614Y1071387D02*
D03*
X1455182D02*
D03*
Y1084465D02*
D03*
X1392957Y1077044D02*
D03*
X1398614Y1095779D02*
D03*
X1392957Y1090122D02*
D03*
X1410280Y1156700D02*
D03*
X1417200Y1148900D02*
D03*
X1395000Y1191900D02*
D03*
X1402410Y1198500D02*
D03*
X1426357Y1176300D02*
D03*
X1400100Y1179308D02*
D03*
X1431500Y1209800D02*
D03*
X1452879Y1188979D02*
D03*
X1429300Y1189009D02*
D03*
X1411960Y1182843D02*
D03*
X1413601Y1177669D02*
D03*
X1441364Y1161364D02*
D03*
X1403500Y1190600D02*
D03*
X1447400Y1173729D02*
D03*
X1423315Y1160879D02*
D03*
X1353780Y1098200D02*
D03*
X1360700Y1090400D02*
D03*
X1406400Y1133600D02*
D03*
X1399400Y1140700D02*
D03*
X1345910Y1140000D02*
D03*
X1369857Y1117800D02*
D03*
X1375000Y1151300D02*
D03*
X1396379Y1130479D02*
D03*
X1372800Y1130509D02*
D03*
X1355460Y1124343D02*
D03*
X1357101Y1119168D02*
D03*
X1347000Y1132100D02*
D03*
X1390900Y1115229D02*
D03*
X1366815Y1102379D02*
D03*
X1349900Y1080100D02*
D03*
X1342900Y1087200D02*
D03*
X1289411Y1086500D02*
D03*
X1282000Y1079900D02*
D03*
X1297280Y1044700D02*
D03*
X1304200Y1036900D02*
D03*
X1300601Y1065668D02*
D03*
X1318500Y1097800D02*
D03*
X1339879Y1076979D02*
D03*
X1310315Y1048879D02*
D03*
X1316300Y1077009D02*
D03*
X1298960Y1070843D02*
D03*
X1290500Y1078600D02*
D03*
X1313357Y1064300D02*
D03*
X1287100Y1067308D02*
D03*
X1328364Y1049364D02*
D03*
G54D65*
X1479791Y1244000D02*
D03*
X1266000Y1010000D02*
D03*
X1548000Y955000D02*
D03*
G54D72*
X1421000Y1223000D02*
D03*
Y1213000D02*
D03*
G54D75*
X1435000Y1155000D02*
D03*
X1441364Y1161364D02*
D03*
X1378500Y1096500D02*
D03*
X1384864Y1102864D02*
D03*
X1322000Y1043000D02*
D03*
X1328364Y1049364D02*
D03*
G54D85*
X1420000Y1255000D02*
D03*
X1446000Y1253000D02*
D03*
G54D86*
X1521000Y1227000D02*
D03*
X1529000Y1218000D02*
D03*
X1537000Y1209000D02*
D03*
G54D87*
X1401910Y906935D02*
D03*
X1384232Y924613D02*
D03*
G54D88*
X1487511Y970101D02*
D03*
X1522867Y934745D02*
D03*
X1563878Y975757D02*
D03*
X1528523Y1011113D02*
D03*
G54D89*
X1505189Y952423D02*
D03*
X1567414Y999092D02*
D03*
X1551151Y1015355D02*
D03*
G54D120*
X1501808Y1045908D02*
D03*
X1487666Y1060050D02*
D03*
X1454121Y999322D02*
D03*
X1439979Y1013464D02*
D03*
G54D121*
X1517717Y1075960D02*
D03*
X1470031Y1029374D02*
D03*
G54D122*
X1360201Y1001314D02*
D03*
X1374343Y1015456D02*
D03*
G54D123*
X1390253Y985404D02*
D03*
G54D124*
X1390535Y1052464D02*
D03*
X1384172Y1058829D02*
D03*
X1348293Y1099328D02*
D03*
X1354657Y1092964D02*
D03*
X1396672Y1171829D02*
D03*
X1403035Y1165464D02*
D03*
X1283672Y1059828D02*
D03*
X1290036Y1053464D02*
D03*
G54D125*
X1442000Y1129500D02*
D03*
X1442000Y1110500D02*
D03*
G54D126*
X1519000Y1219000D02*
D03*
X1529000Y1208000D02*
D03*
X1524000Y1214000D02*
D03*
G54D127*
X1553514Y1148986D02*
D03*
X1562494Y1157967D02*
D03*
X1544533Y1140006D02*
D03*
X1591980Y1128480D02*
D03*
X1574020Y1110519D02*
D03*
X1526573Y1122046D02*
D03*
X1535553Y1131026D02*
D03*
X1556059Y1092559D02*
D03*
X1565039Y1101540D02*
D03*
X1583000Y1119500D02*
D03*
G54D128*
X1322002Y1113150D02*
D03*
X1334702D02*
D03*
X1296602D02*
D03*
X1309302D02*
D03*
X1283902D02*
D03*
Y1154850D02*
D03*
X1309302D02*
D03*
X1334702D02*
D03*
X1322002D02*
D03*
X1296602D02*
D03*
G54D129*
X1478172Y934607D02*
D03*
X1460212Y952568D02*
D03*
X1448686Y905121D02*
D03*
X1430726Y923081D02*
D03*
X1442251Y970528D02*
D03*
X1451232Y961548D02*
D03*
X1469192Y943587D02*
D03*
X1412765Y941041D02*
D03*
X1421745Y932062D02*
D03*
X1439706Y914101D02*
D03*
G54D130*
X1604757Y1070142D02*
D03*
X1588193Y1008323D02*
D03*
G54D131*
X1570496Y1023417D02*
D03*
X1581626Y1064952D02*
D03*
G54D132*
X1398500Y1252500D02*
D03*
X1462500D02*
D03*
G54D133*
X1452500Y1231500D02*
D03*
X1409500D02*
D03*
M02*
