G04*
G04 #@! TF.GenerationSoftware,Altium Limited,Altium Designer,20.0.13 (296)*
G04*
G04 Layer_Color=8421504*
%FSLAX44Y44*%
%MOMM*%
G71*
G01*
G75*
G04:AMPARAMS|DCode=19|XSize=0.4mm|YSize=0.5mm|CornerRadius=0.05mm|HoleSize=0mm|Usage=FLASHONLY|Rotation=45.000|XOffset=0mm|YOffset=0mm|HoleType=Round|Shape=RoundedRectangle|*
%AMROUNDEDRECTD19*
21,1,0.4000,0.4000,0,0,45.0*
21,1,0.3000,0.5000,0,0,45.0*
1,1,0.1000,0.2475,-0.0354*
1,1,0.1000,0.0354,-0.2475*
1,1,0.1000,-0.2475,0.0354*
1,1,0.1000,-0.0354,0.2475*
%
%ADD19ROUNDEDRECTD19*%
G04:AMPARAMS|DCode=20|XSize=0.7mm|YSize=1.25mm|CornerRadius=0.175mm|HoleSize=0mm|Usage=FLASHONLY|Rotation=135.000|XOffset=0mm|YOffset=0mm|HoleType=Round|Shape=RoundedRectangle|*
%AMROUNDEDRECTD20*
21,1,0.7000,0.9000,0,0,135.0*
21,1,0.3500,1.2500,0,0,135.0*
1,1,0.3500,0.1945,0.4419*
1,1,0.3500,0.4419,0.1945*
1,1,0.3500,-0.1945,-0.4419*
1,1,0.3500,-0.4419,-0.1945*
%
%ADD20ROUNDEDRECTD20*%
G04:AMPARAMS|DCode=21|XSize=0.4mm|YSize=0.5mm|CornerRadius=0.05mm|HoleSize=0mm|Usage=FLASHONLY|Rotation=180.000|XOffset=0mm|YOffset=0mm|HoleType=Round|Shape=RoundedRectangle|*
%AMROUNDEDRECTD21*
21,1,0.4000,0.4000,0,0,180.0*
21,1,0.3000,0.5000,0,0,180.0*
1,1,0.1000,-0.1500,0.2000*
1,1,0.1000,0.1500,0.2000*
1,1,0.1000,0.1500,-0.2000*
1,1,0.1000,-0.1500,-0.2000*
%
%ADD21ROUNDEDRECTD21*%
G04:AMPARAMS|DCode=22|XSize=0.4mm|YSize=0.5mm|CornerRadius=0.05mm|HoleSize=0mm|Usage=FLASHONLY|Rotation=315.000|XOffset=0mm|YOffset=0mm|HoleType=Round|Shape=RoundedRectangle|*
%AMROUNDEDRECTD22*
21,1,0.4000,0.4000,0,0,315.0*
21,1,0.3000,0.5000,0,0,315.0*
1,1,0.1000,-0.0354,-0.2475*
1,1,0.1000,-0.2475,-0.0354*
1,1,0.1000,0.0354,0.2475*
1,1,0.1000,0.2475,0.0354*
%
%ADD22ROUNDEDRECTD22*%
%ADD23P,1.1314X4X360.0*%
%ADD24C,0.5000*%
G04:AMPARAMS|DCode=25|XSize=0.7mm|YSize=1.25mm|CornerRadius=0.175mm|HoleSize=0mm|Usage=FLASHONLY|Rotation=45.000|XOffset=0mm|YOffset=0mm|HoleType=Round|Shape=RoundedRectangle|*
%AMROUNDEDRECTD25*
21,1,0.7000,0.9000,0,0,45.0*
21,1,0.3500,1.2500,0,0,45.0*
1,1,0.3500,0.4419,-0.1945*
1,1,0.3500,0.1945,-0.4419*
1,1,0.3500,-0.4419,0.1945*
1,1,0.3500,-0.1945,0.4419*
%
%ADD25ROUNDEDRECTD25*%
%ADD26C,0.3500*%
G04:AMPARAMS|DCode=27|XSize=0.2mm|YSize=0.5mm|CornerRadius=0.05mm|HoleSize=0mm|Usage=FLASHONLY|Rotation=315.000|XOffset=0mm|YOffset=0mm|HoleType=Round|Shape=RoundedRectangle|*
%AMROUNDEDRECTD27*
21,1,0.2000,0.4000,0,0,315.0*
21,1,0.1000,0.5000,0,0,315.0*
1,1,0.1000,-0.1061,-0.1768*
1,1,0.1000,-0.1768,-0.1061*
1,1,0.1000,0.1061,0.1768*
1,1,0.1000,0.1768,0.1061*
%
%ADD27ROUNDEDRECTD27*%
G04:AMPARAMS|DCode=28|XSize=0.2mm|YSize=0.5mm|CornerRadius=0.05mm|HoleSize=0mm|Usage=FLASHONLY|Rotation=45.000|XOffset=0mm|YOffset=0mm|HoleType=Round|Shape=RoundedRectangle|*
%AMROUNDEDRECTD28*
21,1,0.2000,0.4000,0,0,45.0*
21,1,0.1000,0.5000,0,0,45.0*
1,1,0.1000,0.1768,-0.1061*
1,1,0.1000,0.1061,-0.1768*
1,1,0.1000,-0.1768,0.1061*
1,1,0.1000,-0.1061,0.1768*
%
%ADD28ROUNDEDRECTD28*%
G04:AMPARAMS|DCode=29|XSize=0.6mm|YSize=1.05mm|CornerRadius=0mm|HoleSize=0mm|Usage=FLASHONLY|Rotation=135.000|XOffset=0mm|YOffset=0mm|HoleType=Round|Shape=Rectangle|*
%AMROTATEDRECTD29*
4,1,4,0.5834,0.1591,-0.1591,-0.5834,-0.5834,-0.1591,0.1591,0.5834,0.5834,0.1591,0.0*
%
%ADD29ROTATEDRECTD29*%

%ADD30C,0.3000*%
%ADD31C,0.2000*%
G04:AMPARAMS|DCode=32|XSize=0.5mm|YSize=1.35mm|CornerRadius=0mm|HoleSize=0mm|Usage=FLASHONLY|Rotation=45.000|XOffset=0mm|YOffset=0mm|HoleType=Round|Shape=Round|*
%AMOVALD32*
21,1,0.8500,0.5000,0.0000,0.0000,135.0*
1,1,0.5000,0.3005,-0.3005*
1,1,0.5000,-0.3005,0.3005*
%
%ADD32OVALD32*%

%ADD33P,0.7071X4X180.0*%
G04:AMPARAMS|DCode=34|XSize=0.9mm|YSize=1.6mm|CornerRadius=0.225mm|HoleSize=0mm|Usage=FLASHONLY|Rotation=315.000|XOffset=0mm|YOffset=0mm|HoleType=Round|Shape=RoundedRectangle|*
%AMROUNDEDRECTD34*
21,1,0.9000,1.1500,0,0,315.0*
21,1,0.4500,1.6000,0,0,315.0*
1,1,0.4500,-0.2475,-0.5657*
1,1,0.4500,-0.5657,-0.2475*
1,1,0.4500,0.2475,0.5657*
1,1,0.4500,0.5657,0.2475*
%
%ADD34ROUNDEDRECTD34*%
G04:AMPARAMS|DCode=35|XSize=1mm|YSize=0.3mm|CornerRadius=0.075mm|HoleSize=0mm|Usage=FLASHONLY|Rotation=225.000|XOffset=0mm|YOffset=0mm|HoleType=Round|Shape=RoundedRectangle|*
%AMROUNDEDRECTD35*
21,1,1.0000,0.1500,0,0,225.0*
21,1,0.8500,0.3000,0,0,225.0*
1,1,0.1500,-0.3536,-0.2475*
1,1,0.1500,0.2475,0.3536*
1,1,0.1500,0.3536,0.2475*
1,1,0.1500,-0.2475,-0.3536*
%
%ADD35ROUNDEDRECTD35*%
G04:AMPARAMS|DCode=36|XSize=3.5mm|YSize=1.5mm|CornerRadius=0mm|HoleSize=0mm|Usage=FLASHONLY|Rotation=315.000|XOffset=0mm|YOffset=0mm|HoleType=Round|Shape=Rectangle|*
%AMROTATEDRECTD36*
4,1,4,-1.7678,0.7071,-0.7071,1.7678,1.7678,-0.7071,0.7071,-1.7678,-1.7678,0.7071,0.0*
%
%ADD36ROTATEDRECTD36*%

%ADD37R,0.8000X0.8000*%
G04:AMPARAMS|DCode=38|XSize=0.4mm|YSize=0.5mm|CornerRadius=0.05mm|HoleSize=0mm|Usage=FLASHONLY|Rotation=90.000|XOffset=0mm|YOffset=0mm|HoleType=Round|Shape=RoundedRectangle|*
%AMROUNDEDRECTD38*
21,1,0.4000,0.4000,0,0,90.0*
21,1,0.3000,0.5000,0,0,90.0*
1,1,0.1000,0.2000,0.1500*
1,1,0.1000,0.2000,-0.1500*
1,1,0.1000,-0.2000,-0.1500*
1,1,0.1000,-0.2000,0.1500*
%
%ADD38ROUNDEDRECTD38*%
G04:AMPARAMS|DCode=39|XSize=3mm|YSize=1.6mm|CornerRadius=0.2mm|HoleSize=0mm|Usage=FLASHONLY|Rotation=225.000|XOffset=0mm|YOffset=0mm|HoleType=Round|Shape=RoundedRectangle|*
%AMROUNDEDRECTD39*
21,1,3.0000,1.2000,0,0,225.0*
21,1,2.6000,1.6000,0,0,225.0*
1,1,0.4000,-1.3435,-0.4950*
1,1,0.4000,0.4950,1.3435*
1,1,0.4000,1.3435,0.4950*
1,1,0.4000,-0.4950,-1.3435*
%
%ADD39ROUNDEDRECTD39*%
G04:AMPARAMS|DCode=40|XSize=0.65mm|YSize=1.3mm|CornerRadius=0mm|HoleSize=0mm|Usage=FLASHONLY|Rotation=45.000|XOffset=0mm|YOffset=0mm|HoleType=Round|Shape=Round|*
%AMOVALD40*
21,1,0.6500,0.6500,0.0000,0.0000,135.0*
1,1,0.6500,0.2298,-0.2298*
1,1,0.6500,-0.2298,0.2298*
%
%ADD40OVALD40*%

G04:AMPARAMS|DCode=41|XSize=0.5mm|YSize=1mm|CornerRadius=0mm|HoleSize=0mm|Usage=FLASHONLY|Rotation=225.000|XOffset=0mm|YOffset=0mm|HoleType=Round|Shape=Rectangle|*
%AMROTATEDRECTD41*
4,1,4,-0.1768,0.5303,0.5303,-0.1768,0.1768,-0.5303,-0.5303,0.1768,-0.1768,0.5303,0.0*
%
%ADD41ROTATEDRECTD41*%

%ADD42R,3.0000X2.0000*%
%ADD43R,2.0000X0.6000*%
G04:AMPARAMS|DCode=44|XSize=1mm|YSize=1.5mm|CornerRadius=0mm|HoleSize=0mm|Usage=FLASHONLY|Rotation=135.000|XOffset=0mm|YOffset=0mm|HoleType=Round|Shape=Rectangle|*
%AMROTATEDRECTD44*
4,1,4,0.8839,0.1768,-0.1768,-0.8839,-0.8839,-0.1768,0.1768,0.8839,0.8839,0.1768,0.0*
%
%ADD44ROTATEDRECTD44*%

G04:AMPARAMS|DCode=45|XSize=2mm|YSize=3mm|CornerRadius=0mm|HoleSize=0mm|Usage=FLASHONLY|Rotation=315.000|XOffset=0mm|YOffset=0mm|HoleType=Round|Shape=Rectangle|*
%AMROTATEDRECTD45*
4,1,4,-1.7678,-0.3536,0.3536,1.7678,1.7678,0.3536,-0.3536,-1.7678,-1.7678,-0.3536,0.0*
%
%ADD45ROTATEDRECTD45*%

G04:AMPARAMS|DCode=46|XSize=0.6mm|YSize=2mm|CornerRadius=0mm|HoleSize=0mm|Usage=FLASHONLY|Rotation=315.000|XOffset=0mm|YOffset=0mm|HoleType=Round|Shape=Rectangle|*
%AMROTATEDRECTD46*
4,1,4,-0.9192,-0.4950,0.4950,0.9192,0.9192,0.4950,-0.4950,-0.9192,-0.9192,-0.4950,0.0*
%
%ADD46ROTATEDRECTD46*%

G04:AMPARAMS|DCode=47|XSize=0.8mm|YSize=1.5mm|CornerRadius=0mm|HoleSize=0mm|Usage=FLASHONLY|Rotation=135.000|XOffset=0mm|YOffset=0mm|HoleType=Round|Shape=Rectangle|*
%AMROTATEDRECTD47*
4,1,4,0.8132,0.2475,-0.2475,-0.8132,-0.8132,-0.2475,0.2475,0.8132,0.8132,0.2475,0.0*
%
%ADD47ROTATEDRECTD47*%

G04:AMPARAMS|DCode=48|XSize=1mm|YSize=1.2mm|CornerRadius=0mm|HoleSize=0mm|Usage=FLASHONLY|Rotation=135.000|XOffset=0mm|YOffset=0mm|HoleType=Round|Shape=Rectangle|*
%AMROTATEDRECTD48*
4,1,4,0.7778,0.0707,-0.0707,-0.7778,-0.7778,-0.0707,0.0707,0.7778,0.7778,0.0707,0.0*
%
%ADD48ROTATEDRECTD48*%

%ADD49C,0.8000*%
%ADD50R,1.0500X0.6000*%
G04:AMPARAMS|DCode=51|XSize=0.6mm|YSize=0.9mm|CornerRadius=0mm|HoleSize=0mm|Usage=FLASHONLY|Rotation=225.000|XOffset=0mm|YOffset=0mm|HoleType=Round|Shape=Rectangle|*
%AMROTATEDRECTD51*
4,1,4,-0.1061,0.5303,0.5303,-0.1061,0.1061,-0.5303,-0.5303,0.1061,-0.1061,0.5303,0.0*
%
%ADD51ROTATEDRECTD51*%

G36*
X1510012Y925098D02*
X1499512Y914598D01*
X1486012Y928098D01*
X1496512Y938598D01*
X1510012Y925098D01*
D02*
G37*
G36*
X1491987Y907902D02*
X1481487Y897402D01*
X1467988Y910902D01*
X1478487Y921402D01*
X1491987Y907902D01*
D02*
G37*
G36*
X1315000Y1173000D02*
X1265000Y1123000D01*
X1243000Y1123000D01*
X1244350Y1128524D01*
X1247759Y1139374D01*
X1251863Y1149982D01*
X1256643Y1160302D01*
X1262081Y1170291D01*
X1268152Y1179909D01*
X1274833Y1189113D01*
X1282094Y1197867D01*
X1286000Y1202000D01*
X1286000Y1202000D01*
X1315000Y1173000D01*
D02*
G37*
G36*
X1385250Y1203750D02*
X1360891Y1179391D01*
X1349141Y1191141D01*
X1339536Y1181535D01*
X1332536Y1188536D01*
X1344220Y1200220D01*
X1315557Y1228884D01*
X1315557Y1228884D01*
X1315557Y1228884D01*
X1315557Y1228884D01*
X1318838Y1231291D01*
X1325623Y1235787D01*
X1332614Y1239954D01*
X1339795Y1243785D01*
X1343473Y1245527D01*
X1385250Y1203750D01*
D02*
G37*
G54D19*
X1267929Y1024734D02*
D03*
X1275000Y1031805D02*
D03*
X1392165Y1007265D02*
D03*
X1399236Y1014335D02*
D03*
X1506465Y1025465D02*
D03*
X1513535Y1032535D02*
D03*
X1477535Y989535D02*
D03*
X1470464Y982465D02*
D03*
X1261000Y1054805D02*
D03*
X1253929Y1047733D02*
D03*
X1362071Y1054071D02*
D03*
X1355000Y1047000D02*
D03*
X1350638Y1135274D02*
D03*
X1343567Y1128202D02*
D03*
X1407137Y1193774D02*
D03*
X1400067Y1186702D02*
D03*
X1294137Y1081773D02*
D03*
X1287067Y1074702D02*
D03*
X1527657Y1158515D02*
D03*
X1534728Y1165586D02*
D03*
G54D20*
X1494511Y1088179D02*
D03*
X1481075Y1101614D02*
D03*
X1439273Y979282D02*
D03*
X1425838Y992717D02*
D03*
X1380283Y1163417D02*
D03*
X1393718Y1149982D02*
D03*
X1493270Y1156048D02*
D03*
X1479835Y1169483D02*
D03*
X1462282Y1037717D02*
D03*
X1475718Y1024282D02*
D03*
G54D21*
X1439300Y1247000D02*
D03*
X1429300D02*
D03*
X1439300Y1237000D02*
D03*
X1429300D02*
D03*
G54D22*
X1293746Y1031805D02*
D03*
X1300816Y1024734D02*
D03*
X1317779Y1021535D02*
D03*
X1310708Y1028606D02*
D03*
X1400935Y1037065D02*
D03*
X1393865Y1044135D02*
D03*
X1418535Y937465D02*
D03*
X1411465Y944535D02*
D03*
X1439535Y958465D02*
D03*
X1432465Y965535D02*
D03*
X1286929Y1025071D02*
D03*
X1294000Y1018000D02*
D03*
X1324850Y1028606D02*
D03*
X1317780Y1035677D02*
D03*
X1504465Y1053536D02*
D03*
X1511535Y1046465D02*
D03*
X1365030Y1095307D02*
D03*
X1357960Y1102378D02*
D03*
X1394460Y1135702D02*
D03*
X1401530Y1128631D02*
D03*
X1360960Y1142378D02*
D03*
X1368031Y1135307D02*
D03*
X1421530Y1153807D02*
D03*
X1414460Y1160878D02*
D03*
X1450960Y1194202D02*
D03*
X1458031Y1187131D02*
D03*
X1417460Y1200878D02*
D03*
X1424531Y1193808D02*
D03*
X1308531Y1041808D02*
D03*
X1301460Y1048879D02*
D03*
X1337960Y1082202D02*
D03*
X1345031Y1075131D02*
D03*
X1304460Y1088878D02*
D03*
X1311531Y1081807D02*
D03*
X1499281Y1169837D02*
D03*
X1492210Y1176908D02*
D03*
X1557657Y1186586D02*
D03*
X1564728Y1179514D02*
D03*
X1353234Y989092D02*
D03*
X1346163Y996163D02*
D03*
X1365962Y993335D02*
D03*
X1358891Y1000405D02*
D03*
G54D23*
X1460455Y956545D02*
D03*
X1449000Y968000D02*
D03*
X1439000Y935000D02*
D03*
X1427545Y946455D02*
D03*
G54D24*
X1485000Y1058712D02*
D03*
X1370744Y1061751D02*
D03*
X1427500Y1006000D02*
D03*
X1451000Y1024000D02*
D03*
X1409928Y1006000D02*
D03*
X1400582Y995000D02*
D03*
G54D25*
X1482282Y911282D02*
D03*
X1495717Y924718D02*
D03*
X1310324Y1193239D02*
D03*
X1296889Y1179803D02*
D03*
X1323283Y1206282D02*
D03*
X1336718Y1219717D02*
D03*
G54D26*
X1398614Y1055299D02*
D03*
X1404271Y1060956D02*
D03*
X1477810Y1077927D02*
D03*
X1472153Y1072270D02*
D03*
X1466496Y1066613D02*
D03*
X1460840Y1060956D02*
D03*
X1455183Y1055299D02*
D03*
X1449526Y1049642D02*
D03*
X1443869Y1043985D02*
D03*
X1438212Y1038329D02*
D03*
X1432555Y1032671D02*
D03*
X1426898Y1027015D02*
D03*
X1472153Y1083583D02*
D03*
X1466496Y1077927D02*
D03*
X1460840Y1072270D02*
D03*
X1455183Y1066612D02*
D03*
X1449526Y1060956D02*
D03*
X1443869Y1055299D02*
D03*
X1438212Y1049642D02*
D03*
X1432555Y1043985D02*
D03*
X1426898Y1038328D02*
D03*
X1421242Y1032671D02*
D03*
X1466496Y1089240D02*
D03*
X1460840Y1083583D02*
D03*
X1455183Y1077927D02*
D03*
X1449526Y1072270D02*
D03*
X1443869Y1066612D02*
D03*
X1438212Y1060956D02*
D03*
X1432555Y1055299D02*
D03*
X1426898Y1049642D02*
D03*
X1421242Y1043985D02*
D03*
X1415585Y1038329D02*
D03*
X1460840Y1094897D02*
D03*
X1455183Y1089240D02*
D03*
X1449526Y1083583D02*
D03*
X1443869Y1077927D02*
D03*
X1438212Y1072270D02*
D03*
X1432555Y1066613D02*
D03*
X1426898Y1060956D02*
D03*
X1421242Y1055299D02*
D03*
X1415585Y1049642D02*
D03*
X1409928Y1043985D02*
D03*
X1455183Y1100554D02*
D03*
X1449526Y1094897D02*
D03*
X1443869Y1089240D02*
D03*
X1438212Y1083583D02*
D03*
X1432555Y1077927D02*
D03*
X1426898Y1072270D02*
D03*
X1421242Y1066613D02*
D03*
X1415585Y1060956D02*
D03*
X1409928Y1055299D02*
D03*
X1404271Y1049642D02*
D03*
X1449526Y1106210D02*
D03*
X1443869Y1100554D02*
D03*
X1438212Y1094897D02*
D03*
X1432555Y1089240D02*
D03*
X1426898Y1083583D02*
D03*
X1421242Y1077927D02*
D03*
X1415585Y1072270D02*
D03*
X1409928Y1066612D02*
D03*
X1443869Y1111868D02*
D03*
X1438212Y1106211D02*
D03*
X1432555Y1100554D02*
D03*
X1426898Y1094897D02*
D03*
X1421242Y1089240D02*
D03*
X1415585Y1083583D02*
D03*
X1409928Y1077927D02*
D03*
X1404271Y1072270D02*
D03*
X1398614Y1066612D02*
D03*
X1392957Y1060956D02*
D03*
X1438212Y1117524D02*
D03*
X1432555Y1111868D02*
D03*
X1426898Y1106210D02*
D03*
X1421242Y1100554D02*
D03*
X1415585Y1094897D02*
D03*
X1409928Y1089240D02*
D03*
X1404271Y1083583D02*
D03*
X1398614Y1077927D02*
D03*
X1392957Y1072270D02*
D03*
X1387301Y1066612D02*
D03*
X1432555Y1123181D02*
D03*
X1426898Y1117524D02*
D03*
X1421242Y1111868D02*
D03*
X1415585Y1106211D02*
D03*
X1409928Y1100554D02*
D03*
X1404271Y1094897D02*
D03*
X1398614Y1089240D02*
D03*
X1392957Y1083583D02*
D03*
X1387301Y1077927D02*
D03*
X1381644Y1072270D02*
D03*
X1426898Y1128838D02*
D03*
X1421242Y1123181D02*
D03*
X1415585Y1117524D02*
D03*
X1409928Y1111868D02*
D03*
X1404271Y1106210D02*
D03*
X1398614Y1100554D02*
D03*
X1392957Y1094897D02*
D03*
X1387301Y1089240D02*
D03*
X1381644Y1083583D02*
D03*
X1375987Y1077927D02*
D03*
G54D27*
X1496122Y1046657D02*
D03*
X1499657Y1043121D02*
D03*
X1503192Y1039586D02*
D03*
X1494000Y1030394D02*
D03*
X1490464Y1033929D02*
D03*
X1486929Y1037465D02*
D03*
G54D28*
X1499657Y1033929D02*
D03*
X1490464Y1043121D02*
D03*
G54D29*
X1443560Y997995D02*
D03*
X1456995Y984560D02*
D03*
X1469723Y1010723D02*
D03*
G54D30*
X1427000Y1253697D02*
D03*
X1439428D02*
D03*
G54D31*
X1269000Y1047371D02*
D03*
X1272536Y1043836D02*
D03*
X1265465Y1043836D02*
D03*
X1269000Y1040300D02*
D03*
X1261929D02*
D03*
X1265465Y1036764D02*
D03*
X1258393D02*
D03*
X1261929Y1033229D02*
D03*
X1372512Y1115146D02*
D03*
X1376047Y1111611D02*
D03*
X1368976D02*
D03*
X1372512Y1108075D02*
D03*
X1365441D02*
D03*
X1368976Y1104540D02*
D03*
X1396779Y1121131D02*
D03*
X1393244Y1117596D02*
D03*
Y1124667D02*
D03*
X1389709Y1121131D02*
D03*
Y1128202D02*
D03*
X1386173Y1124667D02*
D03*
Y1131738D02*
D03*
X1382638Y1128202D02*
D03*
X1351924Y1117272D02*
D03*
X1348389Y1120808D02*
D03*
X1355460Y1120808D02*
D03*
X1351925Y1124343D02*
D03*
X1358995D02*
D03*
X1355460Y1127879D02*
D03*
X1362531D02*
D03*
X1358995Y1131414D02*
D03*
X1429012Y1173646D02*
D03*
X1432547Y1170111D02*
D03*
X1425476D02*
D03*
X1429012Y1166575D02*
D03*
X1421941D02*
D03*
X1425476Y1163040D02*
D03*
X1408425Y1175772D02*
D03*
X1404889Y1179308D02*
D03*
X1411960Y1179308D02*
D03*
X1408425Y1182844D02*
D03*
X1415495D02*
D03*
X1411960Y1186379D02*
D03*
X1419031D02*
D03*
X1415495Y1189914D02*
D03*
X1453279Y1179631D02*
D03*
X1449744Y1176096D02*
D03*
Y1183167D02*
D03*
X1446208Y1179631D02*
D03*
Y1186702D02*
D03*
X1442673Y1183167D02*
D03*
Y1190238D02*
D03*
X1439138Y1186702D02*
D03*
X1316012Y1061646D02*
D03*
X1319547Y1058111D02*
D03*
X1312476Y1058111D02*
D03*
X1316012Y1054575D02*
D03*
X1308941D02*
D03*
X1312476Y1051040D02*
D03*
X1340280Y1067631D02*
D03*
X1336744Y1064096D02*
D03*
Y1071167D02*
D03*
X1333208Y1067631D02*
D03*
Y1074702D02*
D03*
X1329673Y1071167D02*
D03*
Y1078238D02*
D03*
X1326138Y1074702D02*
D03*
X1295424Y1063772D02*
D03*
X1291889Y1067308D02*
D03*
X1298960D02*
D03*
X1295424Y1070843D02*
D03*
X1302495Y1070843D02*
D03*
X1298960Y1074379D02*
D03*
X1306031Y1074379D02*
D03*
X1302495Y1077914D02*
D03*
G54D32*
X1501565Y1140031D02*
D03*
X1523839Y1099372D02*
D03*
X1528435Y1103969D02*
D03*
X1533031Y1108565D02*
D03*
X1537628Y1113161D02*
D03*
X1492372Y1130839D02*
D03*
X1496969Y1135435D02*
D03*
X1506161Y1144628D02*
D03*
G54D33*
X1367924Y1149449D02*
D03*
X1374995Y1142378D02*
D03*
X1424424Y1207949D02*
D03*
X1431495Y1200878D02*
D03*
X1311424Y1095949D02*
D03*
X1318495Y1088878D02*
D03*
G54D34*
X1282247Y1169753D02*
D03*
X1302753Y1149247D02*
D03*
G54D35*
X1326465Y1153994D02*
D03*
X1322222Y1158236D02*
D03*
X1317979Y1162479D02*
D03*
X1313737Y1166722D02*
D03*
X1309494Y1170964D02*
D03*
X1333536Y1195006D02*
D03*
X1337778Y1190764D02*
D03*
X1342021Y1186521D02*
D03*
X1346263Y1182278D02*
D03*
X1350506Y1178036D02*
D03*
G54D36*
X1330000Y1174500D02*
D03*
G54D37*
X1256000Y1095800D02*
D03*
X1256000Y1112000D02*
D03*
G54D38*
X1268500Y1108500D02*
D03*
Y1098500D02*
D03*
G54D39*
X1393056Y1232556D02*
D03*
X1361944Y1201444D02*
D03*
G54D40*
X1517268Y1169791D02*
D03*
X1526248Y1178771D02*
D03*
X1535228Y1187752D02*
D03*
X1544209Y1196732D02*
D03*
X1479791Y1207268D02*
D03*
X1488772Y1216248D02*
D03*
X1497752Y1225228D02*
D03*
X1506732Y1234209D02*
D03*
G54D41*
X1541380Y1172222D02*
D03*
X1547744Y1178586D02*
D03*
G54D42*
X1588000Y1114000D02*
D03*
X1587000Y1032000D02*
D03*
G54D43*
X1560000Y1066000D02*
D03*
Y1054000D02*
D03*
Y1079000D02*
D03*
Y1091000D02*
D03*
G54D44*
X1558757Y1128029D02*
D03*
X1546737Y1140050D02*
D03*
X1581385Y1150657D02*
D03*
X1569364Y1162678D02*
D03*
G54D45*
X1337678Y931109D02*
D03*
X1280402Y989799D02*
D03*
G54D46*
X1323536Y984849D02*
D03*
X1315051Y993335D02*
D03*
X1332728Y975657D02*
D03*
X1341213Y967171D02*
D03*
G54D47*
X1368083Y943130D02*
D03*
X1357477Y953736D02*
D03*
X1392832Y967879D02*
D03*
X1382225Y978485D02*
D03*
G54D48*
X1392256Y1025957D02*
D03*
X1372457Y1045756D02*
D03*
X1360437Y1033736D02*
D03*
X1380235Y1013937D02*
D03*
G54D49*
X1546201Y984949D02*
D03*
X1537716Y993435D02*
D03*
X1518624Y957373D02*
D03*
X1510139Y965858D02*
D03*
X1555393Y994142D02*
D03*
X1546908Y1002627D02*
D03*
X1537009Y975757D02*
D03*
X1527816Y966565D02*
D03*
X1519331Y975050D02*
D03*
X1528523Y984243D02*
D03*
G54D50*
X1539750Y1061500D02*
D03*
Y1080500D02*
D03*
X1512250Y1071000D02*
D03*
G54D51*
X1469855Y1118288D02*
D03*
X1479048Y1127480D02*
D03*
X1458541Y1138794D02*
D03*
M02*
