G04*
G04 #@! TF.GenerationSoftware,Altium Limited,Altium Designer,20.0.13 (296)*
G04*
G04 Layer_Physical_Order=6*
G04 Layer_Color=16711680*
%FSLAX44Y44*%
%MOMM*%
G71*
G01*
G75*
%ADD11C,0.2000*%
%ADD12C,0.2500*%
G04:AMPARAMS|DCode=19|XSize=0.4mm|YSize=0.5mm|CornerRadius=0.05mm|HoleSize=0mm|Usage=FLASHONLY|Rotation=45.000|XOffset=0mm|YOffset=0mm|HoleType=Round|Shape=RoundedRectangle|*
%AMROUNDEDRECTD19*
21,1,0.4000,0.4000,0,0,45.0*
21,1,0.3000,0.5000,0,0,45.0*
1,1,0.1000,0.2475,-0.0354*
1,1,0.1000,0.0354,-0.2475*
1,1,0.1000,-0.2475,0.0354*
1,1,0.1000,-0.0354,0.2475*
%
%ADD19ROUNDEDRECTD19*%
G04:AMPARAMS|DCode=20|XSize=0.7mm|YSize=1.25mm|CornerRadius=0.175mm|HoleSize=0mm|Usage=FLASHONLY|Rotation=135.000|XOffset=0mm|YOffset=0mm|HoleType=Round|Shape=RoundedRectangle|*
%AMROUNDEDRECTD20*
21,1,0.7000,0.9000,0,0,135.0*
21,1,0.3500,1.2500,0,0,135.0*
1,1,0.3500,0.1945,0.4419*
1,1,0.3500,0.4419,0.1945*
1,1,0.3500,-0.1945,-0.4419*
1,1,0.3500,-0.4419,-0.1945*
%
%ADD20ROUNDEDRECTD20*%
G04:AMPARAMS|DCode=21|XSize=0.4mm|YSize=0.5mm|CornerRadius=0.05mm|HoleSize=0mm|Usage=FLASHONLY|Rotation=180.000|XOffset=0mm|YOffset=0mm|HoleType=Round|Shape=RoundedRectangle|*
%AMROUNDEDRECTD21*
21,1,0.4000,0.4000,0,0,180.0*
21,1,0.3000,0.5000,0,0,180.0*
1,1,0.1000,-0.1500,0.2000*
1,1,0.1000,0.1500,0.2000*
1,1,0.1000,0.1500,-0.2000*
1,1,0.1000,-0.1500,-0.2000*
%
%ADD21ROUNDEDRECTD21*%
G04:AMPARAMS|DCode=22|XSize=0.4mm|YSize=0.5mm|CornerRadius=0.05mm|HoleSize=0mm|Usage=FLASHONLY|Rotation=315.000|XOffset=0mm|YOffset=0mm|HoleType=Round|Shape=RoundedRectangle|*
%AMROUNDEDRECTD22*
21,1,0.4000,0.4000,0,0,315.0*
21,1,0.3000,0.5000,0,0,315.0*
1,1,0.1000,-0.0354,-0.2475*
1,1,0.1000,-0.2475,-0.0354*
1,1,0.1000,0.0354,0.2475*
1,1,0.1000,0.2475,0.0354*
%
%ADD22ROUNDEDRECTD22*%
%ADD24C,0.5000*%
%ADD30C,0.3000*%
%ADD31C,0.2000*%
G04:AMPARAMS|DCode=38|XSize=0.4mm|YSize=0.5mm|CornerRadius=0.05mm|HoleSize=0mm|Usage=FLASHONLY|Rotation=90.000|XOffset=0mm|YOffset=0mm|HoleType=Round|Shape=RoundedRectangle|*
%AMROUNDEDRECTD38*
21,1,0.4000,0.4000,0,0,90.0*
21,1,0.3000,0.5000,0,0,90.0*
1,1,0.1000,0.2000,0.1500*
1,1,0.1000,0.2000,-0.1500*
1,1,0.1000,-0.2000,-0.1500*
1,1,0.1000,-0.2000,0.1500*
%
%ADD38ROUNDEDRECTD38*%
G04:AMPARAMS|DCode=41|XSize=0.5mm|YSize=1mm|CornerRadius=0mm|HoleSize=0mm|Usage=FLASHONLY|Rotation=225.000|XOffset=0mm|YOffset=0mm|HoleType=Round|Shape=Rectangle|*
%AMROTATEDRECTD41*
4,1,4,-0.1768,0.5303,0.5303,-0.1768,0.1768,-0.5303,-0.5303,0.1768,-0.1768,0.5303,0.0*
%
%ADD41ROTATEDRECTD41*%

%ADD49C,0.8000*%
%ADD88C,2.4000*%
%ADD89C,1.1000*%
%ADD90C,0.1700*%
%ADD91C,1.0000*%
%ADD92C,2.0000*%
G04:AMPARAMS|DCode=105|XSize=1.2mm|YSize=1.2mm|CornerRadius=0.3mm|HoleSize=0mm|Usage=FLASHONLY|Rotation=225.000|XOffset=0mm|YOffset=0mm|HoleType=Round|Shape=RoundedRectangle|*
%AMROUNDEDRECTD105*
21,1,1.2000,0.6000,0,0,225.0*
21,1,0.6000,1.2000,0,0,225.0*
1,1,0.6000,-0.4243,0.0000*
1,1,0.6000,0.0000,0.4243*
1,1,0.6000,0.4243,0.0000*
1,1,0.6000,0.0000,-0.4243*
%
%ADD105ROUNDEDRECTD105*%
G04:AMPARAMS|DCode=106|XSize=1.6mm|YSize=1.5mm|CornerRadius=0.375mm|HoleSize=0mm|Usage=FLASHONLY|Rotation=225.000|XOffset=0mm|YOffset=0mm|HoleType=Round|Shape=RoundedRectangle|*
%AMROUNDEDRECTD106*
21,1,1.6000,0.7500,0,0,225.0*
21,1,0.8500,1.5000,0,0,225.0*
1,1,0.7500,-0.5657,-0.0354*
1,1,0.7500,0.0354,0.5657*
1,1,0.7500,0.5657,0.0354*
1,1,0.7500,-0.0354,-0.5657*
%
%ADD106ROUNDEDRECTD106*%
G04:AMPARAMS|DCode=107|XSize=1.2mm|YSize=1.2mm|CornerRadius=0.3mm|HoleSize=0mm|Usage=FLASHONLY|Rotation=135.000|XOffset=0mm|YOffset=0mm|HoleType=Round|Shape=RoundedRectangle|*
%AMROUNDEDRECTD107*
21,1,1.2000,0.6000,0,0,135.0*
21,1,0.6000,1.2000,0,0,135.0*
1,1,0.6000,0.0000,0.4243*
1,1,0.6000,0.4243,0.0000*
1,1,0.6000,0.0000,-0.4243*
1,1,0.6000,-0.4243,0.0000*
%
%ADD107ROUNDEDRECTD107*%
G04:AMPARAMS|DCode=108|XSize=1.6mm|YSize=1.5mm|CornerRadius=0.375mm|HoleSize=0mm|Usage=FLASHONLY|Rotation=135.000|XOffset=0mm|YOffset=0mm|HoleType=Round|Shape=RoundedRectangle|*
%AMROUNDEDRECTD108*
21,1,1.6000,0.7500,0,0,135.0*
21,1,0.8500,1.5000,0,0,135.0*
1,1,0.7500,-0.0354,0.5657*
1,1,0.7500,0.5657,-0.0354*
1,1,0.7500,0.0354,-0.5657*
1,1,0.7500,-0.5657,0.0354*
%
%ADD108ROUNDEDRECTD108*%
G04:AMPARAMS|DCode=109|XSize=0.5mm|YSize=1mm|CornerRadius=0mm|HoleSize=0mm|Usage=FLASHONLY|Rotation=135.000|XOffset=0mm|YOffset=0mm|HoleType=Round|Shape=Rectangle|*
%AMROTATEDRECTD109*
4,1,4,0.5303,0.1768,-0.1768,-0.5303,-0.5303,-0.1768,0.1768,0.5303,0.5303,0.1768,0.0*
%
%ADD109ROTATEDRECTD109*%

G04:AMPARAMS|DCode=110|XSize=0.7mm|YSize=1.25mm|CornerRadius=0.175mm|HoleSize=0mm|Usage=FLASHONLY|Rotation=90.000|XOffset=0mm|YOffset=0mm|HoleType=Round|Shape=RoundedRectangle|*
%AMROUNDEDRECTD110*
21,1,0.7000,0.9000,0,0,90.0*
21,1,0.3500,1.2500,0,0,90.0*
1,1,0.3500,0.4500,0.1750*
1,1,0.3500,0.4500,-0.1750*
1,1,0.3500,-0.4500,-0.1750*
1,1,0.3500,-0.4500,0.1750*
%
%ADD110ROUNDEDRECTD110*%
G04:AMPARAMS|DCode=111|XSize=0.3mm|YSize=0.1mm|CornerRadius=0.025mm|HoleSize=0mm|Usage=FLASHONLY|Rotation=135.000|XOffset=0mm|YOffset=0mm|HoleType=Round|Shape=RoundedRectangle|*
%AMROUNDEDRECTD111*
21,1,0.3000,0.0500,0,0,135.0*
21,1,0.2500,0.1000,0,0,135.0*
1,1,0.0500,-0.0707,0.1061*
1,1,0.0500,0.1061,-0.0707*
1,1,0.0500,0.0707,-0.1061*
1,1,0.0500,-0.1061,0.0707*
%
%ADD111ROUNDEDRECTD111*%
G04:AMPARAMS|DCode=112|XSize=0.6mm|YSize=2.5mm|CornerRadius=0.15mm|HoleSize=0mm|Usage=FLASHONLY|Rotation=225.000|XOffset=0mm|YOffset=0mm|HoleType=Round|Shape=RoundedRectangle|*
%AMROUNDEDRECTD112*
21,1,0.6000,2.2000,0,0,225.0*
21,1,0.3000,2.5000,0,0,225.0*
1,1,0.3000,-0.8839,0.6718*
1,1,0.3000,-0.6718,0.8839*
1,1,0.3000,0.8839,-0.6718*
1,1,0.3000,0.6718,-0.8839*
%
%ADD112ROUNDEDRECTD112*%
G04:AMPARAMS|DCode=113|XSize=0.6mm|YSize=2.5mm|CornerRadius=0.15mm|HoleSize=0mm|Usage=FLASHONLY|Rotation=0.000|XOffset=0mm|YOffset=0mm|HoleType=Round|Shape=RoundedRectangle|*
%AMROUNDEDRECTD113*
21,1,0.6000,2.2000,0,0,0.0*
21,1,0.3000,2.5000,0,0,0.0*
1,1,0.3000,0.1500,-1.1000*
1,1,0.3000,-0.1500,-1.1000*
1,1,0.3000,-0.1500,1.1000*
1,1,0.3000,0.1500,1.1000*
%
%ADD113ROUNDEDRECTD113*%
G04:AMPARAMS|DCode=114|XSize=0.6mm|YSize=2.5mm|CornerRadius=0.15mm|HoleSize=0mm|Usage=FLASHONLY|Rotation=135.000|XOffset=0mm|YOffset=0mm|HoleType=Round|Shape=RoundedRectangle|*
%AMROUNDEDRECTD114*
21,1,0.6000,2.2000,0,0,135.0*
21,1,0.3000,2.5000,0,0,135.0*
1,1,0.3000,0.6718,0.8839*
1,1,0.3000,0.8839,0.6718*
1,1,0.3000,-0.6718,-0.8839*
1,1,0.3000,-0.8839,-0.6718*
%
%ADD114ROUNDEDRECTD114*%
G04:AMPARAMS|DCode=115|XSize=1mm|YSize=2mm|CornerRadius=0.25mm|HoleSize=0mm|Usage=FLASHONLY|Rotation=165.000|XOffset=0mm|YOffset=0mm|HoleType=Round|Shape=RoundedRectangle|*
%AMROUNDEDRECTD115*
21,1,1.0000,1.5000,0,0,165.0*
21,1,0.5000,2.0000,0,0,165.0*
1,1,0.5000,-0.0474,0.7892*
1,1,0.5000,0.4356,0.6597*
1,1,0.5000,0.0474,-0.7892*
1,1,0.5000,-0.4356,-0.6597*
%
%ADD115ROUNDEDRECTD115*%
G04:AMPARAMS|DCode=116|XSize=1mm|YSize=2mm|CornerRadius=0.25mm|HoleSize=0mm|Usage=FLASHONLY|Rotation=75.000|XOffset=0mm|YOffset=0mm|HoleType=Round|Shape=RoundedRectangle|*
%AMROUNDEDRECTD116*
21,1,1.0000,1.5000,0,0,75.0*
21,1,0.5000,2.0000,0,0,75.0*
1,1,0.5000,0.7892,0.0474*
1,1,0.5000,0.6597,-0.4356*
1,1,0.5000,-0.7892,-0.0474*
1,1,0.5000,-0.6597,0.4356*
%
%ADD116ROUNDEDRECTD116*%
G04:AMPARAMS|DCode=117|XSize=1mm|YSize=2mm|CornerRadius=0.25mm|HoleSize=0mm|Usage=FLASHONLY|Rotation=270.000|XOffset=0mm|YOffset=0mm|HoleType=Round|Shape=RoundedRectangle|*
%AMROUNDEDRECTD117*
21,1,1.0000,1.5000,0,0,270.0*
21,1,0.5000,2.0000,0,0,270.0*
1,1,0.5000,-0.7500,-0.2500*
1,1,0.5000,-0.7500,0.2500*
1,1,0.5000,0.7500,0.2500*
1,1,0.5000,0.7500,-0.2500*
%
%ADD117ROUNDEDRECTD117*%
G04:AMPARAMS|DCode=118|XSize=1mm|YSize=2mm|CornerRadius=0.25mm|HoleSize=0mm|Usage=FLASHONLY|Rotation=180.000|XOffset=0mm|YOffset=0mm|HoleType=Round|Shape=RoundedRectangle|*
%AMROUNDEDRECTD118*
21,1,1.0000,1.5000,0,0,180.0*
21,1,0.5000,2.0000,0,0,180.0*
1,1,0.5000,-0.2500,0.7500*
1,1,0.5000,0.2500,0.7500*
1,1,0.5000,0.2500,-0.7500*
1,1,0.5000,-0.2500,-0.7500*
%
%ADD118ROUNDEDRECTD118*%
%ADD119C,0.5000*%
G36*
X1444702Y1265412D02*
X1475396Y1259816D01*
X1504731Y1249191D01*
X1531888Y1233832D01*
X1544000Y1224000D01*
X1555310Y1215270D01*
X1575044Y1194605D01*
X1591441Y1171203D01*
X1604127Y1145599D01*
X1612813Y1118377D01*
X1617301Y1090157D01*
X1617489Y1061584D01*
X1613372Y1033308D01*
X1605044Y1005974D01*
X1592696Y980205D01*
X1576608Y956590D01*
X1557147Y935667D01*
X1545953Y926790D01*
X1533914Y917071D01*
X1507007Y901785D01*
X1477983Y891053D01*
X1447605Y885157D01*
X1416673Y884254D01*
X1386002Y888366D01*
X1356401Y897386D01*
X1328648Y911076D01*
X1316062Y920076D01*
X1303924Y928755D01*
X1282656Y949690D01*
X1264917Y973689D01*
X1251142Y1000163D01*
X1241670Y1028463D01*
X1236731Y1057895D01*
X1236448Y1087737D01*
X1240828Y1117258D01*
X1249762Y1145732D01*
X1263033Y1172463D01*
X1280314Y1196794D01*
X1301181Y1218128D01*
X1313152Y1227036D01*
X1313153Y1227036D01*
X1313153Y1227036D01*
X1325519Y1236546D01*
X1353071Y1251185D01*
X1382675Y1261035D01*
X1413505Y1265822D01*
X1444702Y1265412D01*
D02*
G37*
%LPC*%
G36*
X1446000Y1259278D02*
X1441561Y1257439D01*
X1439722Y1253000D01*
X1441561Y1248561D01*
X1446000Y1246722D01*
X1450439Y1248561D01*
X1452278Y1253000D01*
X1450439Y1257439D01*
X1446000Y1259278D01*
D02*
G37*
G36*
X1420000Y1261278D02*
X1415561Y1259439D01*
X1413722Y1255000D01*
X1415561Y1250561D01*
X1418836Y1249204D01*
X1419706Y1248802D01*
X1420052Y1247000D01*
X1420104Y1246874D01*
X1420622Y1245622D01*
X1422000Y1245052D01*
X1423378Y1245622D01*
X1423948Y1247000D01*
X1423378Y1248378D01*
X1423886Y1250332D01*
X1424439Y1250561D01*
X1426278Y1255000D01*
X1424439Y1259439D01*
X1420000Y1261278D01*
D02*
G37*
G36*
X1479791Y1247572D02*
X1477266Y1246526D01*
X1476219Y1244000D01*
X1477266Y1241474D01*
X1479791Y1240428D01*
X1482317Y1241474D01*
X1483363Y1244000D01*
X1482317Y1246526D01*
X1479791Y1247572D01*
D02*
G37*
G36*
X1422000Y1238948D02*
X1420622Y1238378D01*
X1420052Y1237000D01*
X1420622Y1235622D01*
X1422000Y1235052D01*
X1423378Y1235622D01*
X1423948Y1237000D01*
X1423378Y1238378D01*
X1422000Y1238948D01*
D02*
G37*
G36*
X1484000Y1236948D02*
X1482622Y1236378D01*
X1482052Y1235000D01*
X1482622Y1233622D01*
X1484000Y1233052D01*
X1485378Y1233622D01*
X1485948Y1235000D01*
X1485378Y1236378D01*
X1484000Y1236948D01*
D02*
G37*
G36*
X1345983Y1243883D02*
X1345781Y1243800D01*
X1345564Y1243775D01*
X1333280Y1236978D01*
X1333238Y1236925D01*
X1333173Y1236908D01*
X1324694Y1230408D01*
X1318750Y1225851D01*
Y1225851D01*
X1318720Y1225799D01*
X1318665Y1225777D01*
Y1225776D01*
X1318558Y1225519D01*
X1318418Y1225278D01*
X1318434Y1225219D01*
X1318411Y1225164D01*
X1318517Y1224907D01*
X1318590Y1224637D01*
X1318642Y1224607D01*
X1318665Y1224552D01*
Y1224552D01*
X1319166Y1224050D01*
X1319166Y1224050D01*
X1319288Y1223929D01*
X1342996Y1200220D01*
X1332471Y1189696D01*
X1331923Y1189148D01*
Y1189148D01*
X1331670Y1188536D01*
X1331923Y1187923D01*
Y1187923D01*
X1332471Y1187375D01*
X1338923Y1180923D01*
X1339536Y1180670D01*
X1340148Y1180923D01*
X1348141Y1188916D01*
X1350141D01*
X1353960Y1185097D01*
X1354508Y1184548D01*
X1354508D01*
X1355120Y1184295D01*
X1355733Y1184548D01*
X1355733D01*
X1356281Y1185097D01*
X1369337Y1198153D01*
X1371032Y1197020D01*
X1370895Y1196687D01*
X1370895Y1196687D01*
Y1166792D01*
X1370895Y1166792D01*
X1370959Y1166637D01*
Y1164292D01*
X1370895Y1164137D01*
X1370895Y1164137D01*
Y1159589D01*
X1370895Y1159589D01*
X1371465Y1158212D01*
X1395263Y1134414D01*
X1394434Y1132414D01*
X1372904D01*
X1372800Y1132457D01*
X1372800Y1132457D01*
X1361625D01*
X1360247Y1131886D01*
X1360247Y1131886D01*
X1354082Y1125721D01*
X1353706Y1124813D01*
X1353511Y1124343D01*
X1354082Y1122965D01*
X1354953Y1122605D01*
X1355724Y1120547D01*
X1355723Y1120546D01*
X1355153Y1119168D01*
X1355723Y1117791D01*
X1357101Y1117220D01*
X1358479Y1117791D01*
X1362039Y1121352D01*
X1368502D01*
X1368899Y1119352D01*
X1368479Y1119178D01*
Y1119178D01*
X1362750Y1113448D01*
X1352688D01*
X1346858Y1119278D01*
X1345951Y1119654D01*
X1345481Y1119848D01*
X1343948Y1121378D01*
Y1126293D01*
X1348378Y1130722D01*
X1348378Y1130722D01*
X1348948Y1132100D01*
X1348378Y1133478D01*
X1347470Y1133854D01*
X1347000Y1134048D01*
X1345622Y1133478D01*
X1345622Y1133478D01*
X1343796Y1131651D01*
X1341792Y1132476D01*
X1341378Y1133478D01*
X1341085Y1134947D01*
X1343569Y1137431D01*
X1344219Y1139000D01*
Y1143081D01*
X1364843Y1163705D01*
X1365302Y1163895D01*
X1365952Y1165464D01*
X1365302Y1167033D01*
X1363733Y1167683D01*
X1363464D01*
X1361895Y1167033D01*
X1340691Y1145829D01*
X1339461Y1146056D01*
X1338691Y1146443D01*
Y1165850D01*
X1337962Y1167610D01*
X1336202Y1168340D01*
X1333202D01*
X1331442Y1167610D01*
X1330712Y1165850D01*
Y1143850D01*
X1331442Y1142090D01*
X1331977Y1141868D01*
X1332262Y1139698D01*
X1330251Y1137687D01*
X1327892Y1138157D01*
X1327802Y1138375D01*
X1326232Y1139025D01*
X1324664Y1138375D01*
X1320431Y1134142D01*
X1319781Y1132573D01*
Y1126341D01*
X1318742Y1125910D01*
X1318012Y1124150D01*
Y1102150D01*
X1318742Y1100390D01*
X1320502Y1099660D01*
X1323502D01*
X1324052Y1099888D01*
X1326052Y1098566D01*
Y1095000D01*
X1326052Y1095000D01*
X1326622Y1093622D01*
X1339331Y1080914D01*
X1338502Y1078914D01*
X1316404D01*
X1316300Y1078957D01*
X1316300Y1078957D01*
X1307073D01*
Y1080875D01*
X1307074Y1080875D01*
X1306503Y1082253D01*
X1294378Y1094378D01*
X1293000Y1094948D01*
X1293000Y1094948D01*
X1288500D01*
X1288500Y1094948D01*
X1287122Y1094378D01*
X1266622Y1073878D01*
X1266052Y1072500D01*
X1266052Y1072500D01*
Y1051807D01*
X1254622Y1040378D01*
X1254052Y1039000D01*
X1254622Y1037622D01*
X1256000Y1037052D01*
X1257378Y1037622D01*
X1269378Y1049622D01*
X1269378Y1049622D01*
X1269948Y1051000D01*
Y1071693D01*
X1278204Y1079949D01*
X1280325Y1079241D01*
X1280622Y1078522D01*
X1282000Y1077952D01*
X1283378Y1078522D01*
X1283948Y1079900D01*
X1283378Y1081278D01*
X1282659Y1081575D01*
X1281951Y1083696D01*
X1289307Y1091052D01*
X1292193D01*
X1303177Y1080068D01*
Y1077816D01*
X1297582Y1072221D01*
X1297206Y1071313D01*
X1297011Y1070843D01*
X1297582Y1069466D01*
X1298453Y1069105D01*
X1299224Y1067047D01*
X1299223Y1067046D01*
X1298653Y1065668D01*
X1299223Y1064291D01*
X1300601Y1063720D01*
X1301979Y1064291D01*
X1305540Y1067852D01*
X1312001D01*
X1312399Y1065852D01*
X1311979Y1065678D01*
Y1065678D01*
X1306250Y1059948D01*
X1297215D01*
X1288478Y1068686D01*
X1287100Y1069256D01*
X1286685Y1069084D01*
X1286485Y1069002D01*
X1285352Y1070697D01*
X1291878Y1077222D01*
X1291878Y1077222D01*
X1292448Y1078600D01*
X1291878Y1079978D01*
X1290929Y1080371D01*
X1290500Y1080548D01*
X1289122Y1079978D01*
X1289122Y1079978D01*
X1278422Y1069278D01*
X1277852Y1067900D01*
X1277852Y1067900D01*
Y1063700D01*
X1277852Y1063700D01*
X1278422Y1062322D01*
X1279961Y1060784D01*
X1277237Y1058061D01*
X1278288Y1057010D01*
X1277852Y1055957D01*
X1277852Y1055957D01*
Y1050607D01*
X1261193Y1033948D01*
X1253807D01*
X1250948Y1036807D01*
Y1042193D01*
X1253378Y1044622D01*
X1253378Y1044622D01*
X1253948Y1046000D01*
Y1057737D01*
X1255948Y1059073D01*
X1256000Y1059052D01*
X1257378Y1059622D01*
X1257948Y1061000D01*
X1257378Y1062378D01*
X1256000Y1062948D01*
X1255948Y1062927D01*
X1253948Y1064263D01*
Y1107193D01*
X1275905Y1129149D01*
X1293009D01*
X1294560Y1127346D01*
X1294468Y1126377D01*
X1293342Y1125910D01*
X1292612Y1124150D01*
Y1102150D01*
X1293342Y1100390D01*
X1295102Y1099660D01*
X1298102D01*
X1299862Y1100390D01*
X1300591Y1102150D01*
Y1124150D01*
X1299862Y1125910D01*
X1298736Y1126377D01*
X1298644Y1127346D01*
X1300195Y1129149D01*
X1300598D01*
X1300598Y1129149D01*
X1301975Y1129720D01*
X1309522Y1137266D01*
X1309522Y1137266D01*
X1310092Y1138644D01*
Y1141361D01*
X1310802D01*
X1312562Y1142090D01*
X1313291Y1143850D01*
Y1165850D01*
X1312562Y1167610D01*
X1310802Y1168340D01*
X1307802D01*
X1306042Y1167610D01*
X1305312Y1165850D01*
Y1143850D01*
X1306042Y1142090D01*
X1306196Y1142026D01*
Y1139451D01*
X1299791Y1133046D01*
X1275098D01*
X1275098Y1133046D01*
X1273720Y1132475D01*
X1273720Y1132475D01*
X1250622Y1109378D01*
X1250052Y1108000D01*
X1250052Y1108000D01*
Y1046807D01*
X1247622Y1044378D01*
X1247052Y1043000D01*
X1247052Y1043000D01*
Y1036000D01*
X1247052Y1036000D01*
X1247622Y1034622D01*
X1251622Y1030622D01*
X1251622Y1030622D01*
X1253000Y1030052D01*
X1262000D01*
X1262000Y1030052D01*
X1263378Y1030622D01*
X1281178Y1048422D01*
X1281748Y1049800D01*
X1282061Y1050329D01*
X1282134Y1050437D01*
X1282187Y1050491D01*
X1284767Y1050530D01*
X1288268Y1047030D01*
X1290991Y1049753D01*
X1293244Y1047501D01*
X1294282Y1047071D01*
X1294657Y1046841D01*
X1295427Y1044930D01*
X1295331Y1044700D01*
X1295902Y1043322D01*
X1296372Y1043128D01*
X1297280Y1042752D01*
X1298657Y1043322D01*
X1299228Y1044700D01*
X1299133Y1044930D01*
X1300418Y1046930D01*
X1310379D01*
X1310379Y1046930D01*
X1311756Y1047501D01*
X1324070Y1059815D01*
X1330046D01*
X1331424Y1060386D01*
X1331994Y1061763D01*
X1331424Y1063141D01*
X1330046Y1063712D01*
X1324538D01*
X1323637Y1064085D01*
X1322259Y1063514D01*
X1309572Y1050827D01*
X1295428D01*
X1293747Y1052508D01*
X1296470Y1055232D01*
X1298131Y1056052D01*
X1307057D01*
X1307057Y1056052D01*
X1308435Y1056622D01*
X1314734Y1062922D01*
X1314735Y1062922D01*
X1315305Y1064300D01*
X1314735Y1065678D01*
X1314315Y1065852D01*
X1314712Y1067852D01*
X1334893D01*
X1339752Y1062993D01*
Y1052507D01*
X1336225Y1048981D01*
X1334799Y1047596D01*
X1326597Y1055798D01*
X1321930Y1051132D01*
X1327610Y1045451D01*
X1327142Y1043090D01*
X1326743Y1042924D01*
X1320232Y1049435D01*
X1315565Y1044768D01*
X1323768Y1036565D01*
X1324765Y1037563D01*
X1326000Y1037052D01*
X1329000D01*
X1329000Y1037052D01*
X1330378Y1037622D01*
X1340399Y1047643D01*
X1342622Y1047501D01*
X1344000Y1046930D01*
X1345378Y1047501D01*
X1345540Y1047893D01*
X1353144Y1055497D01*
X1353667Y1056759D01*
Y1072768D01*
X1355043Y1074143D01*
X1355565Y1075406D01*
Y1081713D01*
X1355043Y1082976D01*
X1353313Y1084705D01*
X1352889Y1086530D01*
X1357798Y1091438D01*
X1358156Y1091587D01*
X1360000Y1093431D01*
X1361063Y1093871D01*
X1368148Y1100956D01*
X1368256Y1101001D01*
X1380536Y1113281D01*
X1390900D01*
X1392278Y1113852D01*
X1392848Y1115229D01*
X1392492Y1116090D01*
X1394105Y1117169D01*
X1394336Y1117075D01*
X1396852Y1114559D01*
Y1106907D01*
X1391170Y1101225D01*
X1383096Y1109298D01*
X1378430Y1104632D01*
X1386503Y1096558D01*
X1384806Y1094861D01*
X1376732Y1102935D01*
X1372065Y1098268D01*
X1377632Y1092701D01*
X1356622Y1071692D01*
X1356052Y1070314D01*
X1356052Y1070314D01*
Y1036807D01*
X1341622Y1022378D01*
X1341052Y1021000D01*
X1341052Y1021000D01*
Y974000D01*
X1341052Y974000D01*
X1341622Y972622D01*
X1359622Y954622D01*
X1359622Y954622D01*
X1361000Y954052D01*
X1383193D01*
X1397581Y939664D01*
X1398958Y939093D01*
X1398958Y939093D01*
X1402346D01*
X1403174Y937093D01*
X1402166Y936084D01*
X1401436Y934324D01*
X1402166Y932564D01*
X1404287Y930442D01*
X1406047Y929713D01*
X1407808Y930442D01*
X1423364Y945999D01*
X1424093Y947759D01*
X1423364Y949519D01*
X1421243Y951641D01*
X1419482Y952370D01*
X1417722Y951641D01*
X1408500Y942419D01*
X1407314D01*
X1405936Y942990D01*
X1405936Y942990D01*
X1399765D01*
X1385378Y957378D01*
X1384000Y957948D01*
X1384000Y957948D01*
X1361807D01*
X1344948Y974807D01*
Y1020193D01*
X1359378Y1034622D01*
X1359378Y1034622D01*
X1359948Y1036000D01*
Y1069507D01*
X1378572Y1088131D01*
X1379922Y1087863D01*
X1380830Y1087487D01*
X1381300Y1087292D01*
X1382678Y1087863D01*
X1383248Y1089240D01*
X1384125Y1090552D01*
X1385200D01*
X1386282Y1089829D01*
Y1088670D01*
X1386282Y1088670D01*
X1386816Y1087379D01*
X1386837Y1087236D01*
X1386229Y1085088D01*
X1385923Y1084961D01*
X1385352Y1083583D01*
Y1078036D01*
X1384910Y1077753D01*
X1383021Y1077088D01*
X1381644Y1077659D01*
X1380266Y1077088D01*
X1379890Y1076180D01*
X1379695Y1075710D01*
X1380266Y1074333D01*
X1380538Y1074220D01*
X1381061Y1071914D01*
X1375622Y1066476D01*
X1375206Y1065470D01*
X1375052Y1065098D01*
X1375052Y1065098D01*
Y1065000D01*
X1375622Y1063624D01*
X1375622Y1063622D01*
X1377000Y1063052D01*
X1378378Y1063622D01*
X1378447Y1063790D01*
X1388678Y1074021D01*
X1388678Y1074021D01*
X1389249Y1075399D01*
X1389471Y1075529D01*
X1390010Y1075564D01*
X1391839Y1074601D01*
X1392101Y1073286D01*
X1391579Y1072765D01*
X1391009Y1071387D01*
X1391009Y1071387D01*
Y1068421D01*
X1386895Y1064307D01*
X1385939Y1065263D01*
X1377737Y1057061D01*
X1382404Y1052394D01*
X1390606Y1060596D01*
X1389651Y1061552D01*
X1394335Y1066236D01*
X1394335Y1066236D01*
X1394905Y1067614D01*
Y1070580D01*
X1406842Y1082517D01*
X1409928D01*
X1411306Y1083088D01*
X1411876Y1084465D01*
X1411306Y1085843D01*
X1410217Y1086294D01*
X1410140Y1086797D01*
X1410139Y1087788D01*
X1410196Y1088156D01*
X1410862Y1088561D01*
X1411305Y1088744D01*
X1411524Y1088963D01*
X1411900Y1089192D01*
X1413927Y1088538D01*
X1414207Y1087863D01*
X1415585Y1087292D01*
X1416962Y1087863D01*
X1417273Y1088173D01*
X1418302D01*
X1419823Y1086652D01*
X1420818Y1086240D01*
X1421813Y1086652D01*
X1423517Y1088355D01*
X1425039Y1088651D01*
X1426004Y1088544D01*
X1426898Y1088174D01*
X1428508D01*
X1428524Y1088158D01*
X1428524Y1088158D01*
X1428623Y1088117D01*
X1430674Y1086066D01*
X1431669Y1085654D01*
X1432664Y1086066D01*
X1434416Y1087817D01*
X1436039Y1087685D01*
X1436642Y1087444D01*
X1436834Y1086980D01*
X1438212Y1086410D01*
X1439483D01*
X1439483Y1086410D01*
X1440260Y1086732D01*
X1441788Y1085599D01*
X1441958Y1085347D01*
X1441920Y1084465D01*
X1442491Y1083088D01*
X1443869Y1082517D01*
X1445246Y1083088D01*
X1454378Y1092219D01*
X1454378Y1092219D01*
X1454948Y1093596D01*
X1454948Y1093597D01*
Y1146193D01*
X1466378Y1157622D01*
X1466378Y1157622D01*
X1466948Y1159000D01*
X1466378Y1160378D01*
X1465000Y1160948D01*
X1463622Y1160378D01*
X1463622Y1160378D01*
X1451622Y1148378D01*
X1451052Y1147000D01*
X1451052Y1147000D01*
Y1113151D01*
X1449052Y1112753D01*
X1448452Y1114201D01*
X1446500Y1115010D01*
X1443948D01*
Y1119096D01*
X1443378Y1120473D01*
X1443378Y1120473D01*
X1439590Y1124261D01*
X1438212Y1124832D01*
X1436834Y1124261D01*
X1436263Y1122884D01*
X1436834Y1121506D01*
X1440052Y1118289D01*
Y1115010D01*
X1437500D01*
X1435548Y1114201D01*
X1434740Y1112250D01*
Y1108750D01*
X1435548Y1106798D01*
X1437500Y1105990D01*
X1440052D01*
Y1091777D01*
X1439159Y1090884D01*
X1439093Y1090724D01*
X1438676Y1090306D01*
X1438212D01*
X1437045Y1089823D01*
X1436530Y1089790D01*
X1434819Y1090096D01*
X1434785Y1090177D01*
X1432979Y1091983D01*
X1433548Y1094242D01*
X1433933Y1094401D01*
X1434503Y1095779D01*
X1433933Y1097157D01*
X1432555Y1097727D01*
X1431648Y1097351D01*
X1431178Y1097157D01*
X1430607Y1095779D01*
X1430820Y1095265D01*
X1429967Y1093006D01*
X1429964Y1093002D01*
X1429032Y1092070D01*
X1426898D01*
X1425613Y1091538D01*
X1425520Y1091500D01*
X1423309Y1091388D01*
X1421106Y1093592D01*
X1420111Y1094004D01*
X1419116Y1093592D01*
X1419030Y1093505D01*
X1418917Y1093528D01*
X1418259Y1095698D01*
X1421378Y1098817D01*
X1421378Y1098817D01*
X1421948Y1100194D01*
X1421948Y1100195D01*
Y1134000D01*
X1421948Y1134000D01*
X1421378Y1135378D01*
X1384948Y1171807D01*
Y1191193D01*
X1394378Y1200622D01*
X1394378Y1200622D01*
X1394948Y1202000D01*
X1394378Y1203378D01*
X1393470Y1203754D01*
X1393000Y1203948D01*
X1391622Y1203378D01*
X1391622Y1203378D01*
X1381979Y1193735D01*
X1379962Y1193378D01*
X1379756Y1193463D01*
X1378584Y1193948D01*
X1377207Y1193378D01*
X1376791Y1192374D01*
X1374791Y1192772D01*
Y1195880D01*
X1393593Y1214682D01*
X1395593Y1213854D01*
Y1211000D01*
X1396005Y1210005D01*
X1397000Y1209593D01*
X1399152D01*
X1406123Y1202622D01*
X1407151Y1202196D01*
X1407500Y1202052D01*
X1407500Y1202052D01*
X1407621D01*
X1408998Y1202622D01*
X1408999Y1202622D01*
X1409570Y1204000D01*
X1409375Y1204470D01*
X1408999Y1205378D01*
X1408793Y1205463D01*
X1406511Y1207745D01*
X1406618Y1208151D01*
X1407491Y1209593D01*
X1410000D01*
X1410995Y1210005D01*
X1411407Y1211000D01*
Y1215000D01*
X1410995Y1215995D01*
X1410448Y1216221D01*
Y1220428D01*
X1412000D01*
X1414525Y1221475D01*
X1414562Y1221562D01*
X1417004Y1222232D01*
X1417593Y1221792D01*
Y1221500D01*
X1418005Y1220505D01*
X1419000Y1220093D01*
X1423000D01*
X1423995Y1220505D01*
X1424407Y1221500D01*
Y1224500D01*
X1423995Y1225495D01*
X1423000Y1225907D01*
X1420848D01*
X1417706Y1229049D01*
X1416328Y1229620D01*
X1415572Y1231468D01*
Y1239000D01*
X1414525Y1241526D01*
X1412000Y1242572D01*
X1407000D01*
X1404474Y1241526D01*
X1403428Y1239000D01*
Y1224000D01*
X1403615Y1223548D01*
X1402504Y1221885D01*
X1396093D01*
X1394715Y1221315D01*
X1382193Y1208793D01*
X1380271Y1209700D01*
X1380092Y1210133D01*
Y1210133D01*
X1379544Y1210681D01*
X1346595Y1243630D01*
X1346393Y1243713D01*
X1346222Y1243849D01*
X1346098Y1243836D01*
X1345983Y1243883D01*
D02*
G37*
G36*
X1471000Y1217948D02*
X1469622Y1217378D01*
X1469052Y1216000D01*
X1469622Y1214622D01*
X1471000Y1214052D01*
X1472378Y1214622D01*
X1472948Y1216000D01*
X1472378Y1217378D01*
X1471000Y1217948D01*
D02*
G37*
G36*
X1521000Y1232196D02*
X1517326Y1230674D01*
X1515804Y1227000D01*
X1517326Y1223326D01*
X1517621Y1223204D01*
X1517930Y1222389D01*
X1517767Y1220979D01*
X1517489Y1220864D01*
X1517489Y1220864D01*
X1517136Y1220511D01*
X1517136Y1220511D01*
X1516803Y1219707D01*
X1516803Y1219707D01*
X1516846Y1219602D01*
X1512622Y1215378D01*
X1512052Y1214000D01*
X1512622Y1212622D01*
X1514000Y1212052D01*
X1515378Y1212622D01*
X1519602Y1216846D01*
X1519707Y1216803D01*
X1519708Y1216803D01*
X1520511Y1217136D01*
X1520511Y1217136D01*
X1520864Y1217489D01*
X1520864Y1217489D01*
X1520982Y1217774D01*
X1522179Y1217816D01*
X1523083Y1217472D01*
X1523183Y1216973D01*
X1522519Y1215877D01*
X1522489Y1215864D01*
X1522489Y1215864D01*
X1522136Y1215511D01*
X1522136Y1215511D01*
X1521803Y1214707D01*
X1521803Y1214707D01*
X1521846Y1214602D01*
X1517622Y1210378D01*
X1517246Y1209470D01*
X1517052Y1209000D01*
X1517622Y1207622D01*
X1519000Y1207052D01*
X1520378Y1207622D01*
X1520378Y1207622D01*
X1524602Y1211847D01*
X1524707Y1211803D01*
X1525511Y1212136D01*
X1525864Y1212489D01*
X1527797Y1213303D01*
X1529000Y1212804D01*
X1531075Y1213664D01*
X1532148Y1214108D01*
X1533205Y1212382D01*
X1532790Y1211379D01*
X1532197Y1209948D01*
X1529000D01*
X1528947Y1209926D01*
X1528293Y1210197D01*
X1527489Y1209864D01*
X1527136Y1209511D01*
X1526803Y1208707D01*
X1526846Y1208602D01*
X1522622Y1204378D01*
X1522052Y1203000D01*
X1522622Y1201622D01*
X1524000Y1201052D01*
X1525378Y1201622D01*
X1529602Y1205846D01*
X1529707Y1205803D01*
X1530308Y1206052D01*
X1533026D01*
X1533326Y1205326D01*
X1537000Y1203804D01*
X1540674Y1205326D01*
X1542195Y1209000D01*
X1540674Y1212674D01*
X1537000Y1214195D01*
X1534925Y1213336D01*
X1533852Y1212892D01*
X1532795Y1214618D01*
X1533210Y1215621D01*
X1534196Y1218000D01*
X1532674Y1221674D01*
X1529000Y1223195D01*
X1526925Y1222336D01*
X1525852Y1221892D01*
X1524795Y1223618D01*
X1526196Y1227000D01*
X1524674Y1230674D01*
X1521000Y1232196D01*
D02*
G37*
G36*
X1462900Y1194048D02*
X1461522Y1193478D01*
X1460952Y1192100D01*
X1461522Y1190722D01*
X1462900Y1190152D01*
X1464278Y1190722D01*
X1464848Y1192100D01*
X1464278Y1193478D01*
X1462900Y1194048D01*
D02*
G37*
G36*
X1395000Y1193848D02*
X1393622Y1193278D01*
X1393052Y1191900D01*
X1393622Y1190522D01*
X1395000Y1189952D01*
X1396378Y1190522D01*
X1396948Y1191900D01*
X1396378Y1193278D01*
X1395000Y1193848D01*
D02*
G37*
G36*
X1289201Y1191149D02*
X1287823Y1190578D01*
X1287252Y1189201D01*
X1287823Y1187823D01*
X1289201Y1187252D01*
X1290578Y1187823D01*
X1291149Y1189201D01*
X1290578Y1190578D01*
X1289201Y1191149D01*
D02*
G37*
G36*
X1267998Y1171946D02*
X1266620Y1171375D01*
X1266049Y1169998D01*
X1266620Y1168620D01*
X1267998Y1168049D01*
X1269375Y1168620D01*
X1269946Y1169998D01*
X1269375Y1171375D01*
X1267998Y1171946D01*
D02*
G37*
G36*
X1482000Y1167892D02*
X1480622Y1167321D01*
X1480052Y1165943D01*
X1480622Y1164566D01*
X1482000Y1163995D01*
X1483378Y1164566D01*
X1483948Y1165943D01*
X1483378Y1167321D01*
X1482000Y1167892D01*
D02*
G37*
G36*
X1274201Y1161149D02*
X1272823Y1160578D01*
X1272252Y1159201D01*
X1272823Y1157823D01*
X1274201Y1157252D01*
X1275578Y1157823D01*
X1276149Y1159201D01*
X1275578Y1160578D01*
X1274201Y1161149D01*
D02*
G37*
G36*
X1261998Y1160946D02*
X1260620Y1160375D01*
X1260049Y1158998D01*
X1260620Y1157620D01*
X1261998Y1157049D01*
X1263375Y1157620D01*
X1263946Y1158998D01*
X1263375Y1160375D01*
X1261998Y1160946D01*
D02*
G37*
G36*
X1256998Y1150946D02*
X1255620Y1150375D01*
X1255049Y1148998D01*
X1255620Y1147620D01*
X1256998Y1147049D01*
X1258375Y1147620D01*
X1258946Y1148998D01*
X1258375Y1150375D01*
X1256998Y1150946D01*
D02*
G37*
G36*
X1527657Y1150838D02*
X1526279Y1150267D01*
X1525709Y1148889D01*
X1526279Y1147512D01*
X1527657Y1146941D01*
X1529035Y1147512D01*
X1529605Y1148889D01*
X1529035Y1150267D01*
X1527657Y1150838D01*
D02*
G37*
G36*
X1269997Y1149946D02*
X1268620Y1149375D01*
X1268049Y1147998D01*
X1268620Y1146620D01*
X1269997Y1146049D01*
X1271375Y1146620D01*
X1271946Y1147998D01*
X1271375Y1149375D01*
X1269997Y1149946D01*
D02*
G37*
G36*
X1465747Y1147948D02*
X1464369Y1147378D01*
X1463799Y1146000D01*
X1464369Y1144622D01*
X1465747Y1144052D01*
X1467125Y1144622D01*
X1467695Y1146000D01*
X1467125Y1147378D01*
X1465747Y1147948D01*
D02*
G37*
G36*
X1489373Y1145868D02*
X1487995Y1145297D01*
X1487424Y1143919D01*
X1487995Y1142542D01*
X1489373Y1141971D01*
X1490750Y1142542D01*
X1491321Y1143919D01*
X1490750Y1145297D01*
X1489373Y1145868D01*
D02*
G37*
G36*
X1555776Y1169295D02*
X1554016Y1168566D01*
X1551895Y1166445D01*
X1551165Y1164684D01*
X1551895Y1162924D01*
X1567451Y1147367D01*
X1569211Y1146638D01*
X1570972Y1147367D01*
X1573093Y1149489D01*
X1573822Y1151249D01*
X1573093Y1153009D01*
X1572084Y1154018D01*
X1572912Y1156018D01*
X1576226D01*
X1591622Y1140622D01*
X1591622Y1140622D01*
X1593000Y1140052D01*
X1594378Y1140622D01*
X1594771Y1141571D01*
X1594948Y1142000D01*
X1594378Y1143378D01*
X1594378Y1143378D01*
X1578411Y1159344D01*
X1577033Y1159915D01*
X1577033Y1159915D01*
X1569322D01*
X1567944Y1159344D01*
X1566097Y1160006D01*
X1557536Y1168566D01*
X1555776Y1169295D01*
D02*
G37*
G36*
X1527000Y1161948D02*
X1525622Y1161378D01*
Y1161378D01*
X1511622Y1147378D01*
X1511052Y1146000D01*
X1511622Y1144622D01*
X1513000Y1144052D01*
X1514378Y1144622D01*
X1527807Y1158052D01*
X1541152D01*
X1542461Y1156370D01*
X1542185Y1155704D01*
X1542915Y1153943D01*
X1558471Y1138387D01*
X1560231Y1137658D01*
X1561992Y1138387D01*
X1564113Y1140508D01*
X1564842Y1142269D01*
X1564113Y1144029D01*
X1548557Y1159585D01*
X1546796Y1160315D01*
X1545484Y1159771D01*
X1543878Y1161378D01*
X1542500Y1161948D01*
X1542500Y1161948D01*
X1527000D01*
X1527000Y1161948D01*
D02*
G37*
G36*
X1275997Y1140946D02*
X1274620Y1140375D01*
X1274049Y1138998D01*
X1274620Y1137620D01*
X1275997Y1137049D01*
X1277375Y1137620D01*
X1277946Y1138998D01*
X1277375Y1140375D01*
X1275997Y1140946D01*
D02*
G37*
G36*
X1262998Y1139946D02*
X1261620Y1139375D01*
X1261049Y1137998D01*
X1261620Y1136620D01*
X1262998Y1136049D01*
X1264375Y1136620D01*
X1264946Y1137998D01*
X1264375Y1139375D01*
X1262998Y1139946D01*
D02*
G37*
G36*
X1285402Y1168340D02*
X1282402D01*
X1280642Y1167610D01*
X1279912Y1165850D01*
Y1143850D01*
X1280642Y1142090D01*
X1281954Y1141481D01*
X1282524Y1140103D01*
X1286667Y1135961D01*
X1286667Y1135961D01*
X1288044Y1135390D01*
X1288044Y1135390D01*
X1296602D01*
X1297980Y1135961D01*
X1298550Y1137338D01*
X1297980Y1138716D01*
X1296602Y1139287D01*
X1288851D01*
X1286978Y1141161D01*
X1287162Y1142090D01*
X1287891Y1143850D01*
Y1165850D01*
X1287162Y1167610D01*
X1285402Y1168340D01*
D02*
G37*
G36*
X1426898Y1137297D02*
X1425520Y1136726D01*
X1424950Y1135348D01*
X1425520Y1133971D01*
X1426898Y1133400D01*
X1428276Y1133971D01*
X1428846Y1135348D01*
X1428276Y1136726D01*
X1426898Y1137297D01*
D02*
G37*
G36*
X1534000Y1152948D02*
X1532622Y1152378D01*
X1532246Y1151470D01*
X1532052Y1151000D01*
X1532622Y1149622D01*
X1532626Y1149621D01*
X1532630Y1149615D01*
X1532794Y1149219D01*
X1533766Y1148247D01*
X1533813Y1148191D01*
X1533205Y1146723D01*
X1533934Y1144963D01*
X1549491Y1129407D01*
X1551251Y1128678D01*
X1553011Y1129407D01*
X1555133Y1131528D01*
X1555862Y1133288D01*
X1555133Y1135049D01*
X1539576Y1150605D01*
X1537816Y1151334D01*
X1537714Y1151292D01*
X1535379Y1152374D01*
X1535378Y1152378D01*
X1534000Y1152948D01*
D02*
G37*
G36*
X1259201Y1131149D02*
X1257823Y1130578D01*
X1257252Y1129201D01*
X1257823Y1127823D01*
X1259201Y1127252D01*
X1260578Y1127823D01*
X1261149Y1129201D01*
X1260578Y1130578D01*
X1259201Y1131149D01*
D02*
G37*
G36*
X1522000Y1146576D02*
X1520622Y1146005D01*
X1520621Y1146002D01*
X1520428Y1145535D01*
X1520052Y1144628D01*
Y1144579D01*
X1520052Y1144579D01*
X1520622Y1143201D01*
X1524768Y1139055D01*
X1524225Y1137743D01*
X1524954Y1135983D01*
X1540510Y1120427D01*
X1542270Y1119698D01*
X1544031Y1120427D01*
X1546152Y1122548D01*
X1546881Y1124308D01*
X1546152Y1126069D01*
X1530596Y1141625D01*
X1528835Y1142354D01*
X1527523Y1141811D01*
X1523412Y1145922D01*
X1523378Y1146005D01*
X1522469Y1146382D01*
X1522466Y1146383D01*
X1522466D01*
X1522002Y1146575D01*
X1522000Y1146576D01*
D02*
G37*
G36*
X1580460Y1141948D02*
X1580460Y1141948D01*
X1578000D01*
X1576622Y1141378D01*
X1576052Y1140000D01*
X1576622Y1138622D01*
X1578000Y1138052D01*
X1579653D01*
X1581195Y1136510D01*
X1580652Y1135198D01*
X1581381Y1133438D01*
X1596937Y1117881D01*
X1598698Y1117152D01*
X1600458Y1117881D01*
X1602579Y1120003D01*
X1603308Y1121763D01*
X1602579Y1123523D01*
X1587023Y1139080D01*
X1585262Y1139809D01*
X1583951Y1139265D01*
X1581838Y1141378D01*
X1580460Y1141948D01*
D02*
G37*
G36*
X1432555Y1119175D02*
X1431178Y1118605D01*
X1430607Y1117227D01*
X1431178Y1115849D01*
X1432555Y1115279D01*
X1433933Y1115849D01*
X1434504Y1117227D01*
X1433933Y1118605D01*
X1432555Y1119175D01*
D02*
G37*
G36*
X1481496Y1154948D02*
X1480119Y1154378D01*
X1479548Y1153000D01*
Y1128343D01*
X1479548Y1128343D01*
X1480119Y1126965D01*
X1493052Y1114032D01*
Y1113961D01*
X1492910Y1112020D01*
X1492910Y1112020D01*
Y1112020D01*
X1491052Y1111650D01*
X1490750Y1112378D01*
X1489373Y1112948D01*
X1487995Y1112378D01*
X1487424Y1111000D01*
X1487995Y1109622D01*
X1489373Y1109052D01*
X1490750Y1109622D01*
X1491052Y1110350D01*
X1492910Y1109980D01*
Y1109980D01*
X1492910Y1109980D01*
X1493052Y1108039D01*
Y1101581D01*
X1470776Y1079305D01*
X1470205Y1077927D01*
X1470776Y1076549D01*
X1472153Y1075978D01*
X1473531Y1076549D01*
X1496378Y1099396D01*
X1496378Y1099396D01*
X1496948Y1100773D01*
Y1114839D01*
X1496948Y1114839D01*
X1496378Y1116217D01*
X1496378Y1116217D01*
X1483445Y1129150D01*
Y1153000D01*
X1482874Y1154378D01*
X1481496Y1154948D01*
D02*
G37*
G36*
X1426898Y1113948D02*
X1425520Y1113378D01*
X1424950Y1112000D01*
X1425520Y1110622D01*
X1426898Y1110052D01*
X1428276Y1110622D01*
X1428846Y1112000D01*
X1428276Y1113378D01*
X1426898Y1113948D01*
D02*
G37*
G36*
X1312702Y1136948D02*
X1311325Y1136378D01*
X1310754Y1135000D01*
Y1134509D01*
X1307924Y1131680D01*
X1307354Y1130302D01*
X1307354Y1130302D01*
Y1126454D01*
X1306042Y1125910D01*
X1305312Y1124150D01*
Y1102150D01*
X1306042Y1100390D01*
X1307802Y1099660D01*
X1310802D01*
X1312562Y1100390D01*
X1313291Y1102150D01*
Y1124150D01*
X1312562Y1125910D01*
X1311250Y1126454D01*
Y1129495D01*
X1314080Y1132325D01*
X1314080Y1132325D01*
X1314651Y1133702D01*
Y1135000D01*
X1314080Y1136378D01*
X1312702Y1136948D01*
D02*
G37*
G36*
X1417900Y1206948D02*
X1416522Y1206378D01*
Y1206378D01*
X1402122Y1191978D01*
X1402122Y1191978D01*
X1391422Y1181278D01*
X1390852Y1179900D01*
X1390852Y1179900D01*
Y1175700D01*
X1390852Y1175700D01*
X1391422Y1174323D01*
X1392961Y1172784D01*
X1390237Y1170061D01*
X1394904Y1165394D01*
X1403081Y1173571D01*
X1404778Y1171874D01*
X1396601Y1163697D01*
X1401268Y1159030D01*
X1403991Y1161753D01*
X1406243Y1159501D01*
X1407282Y1159071D01*
X1407657Y1158841D01*
X1408427Y1156930D01*
X1408331Y1156700D01*
X1408902Y1155322D01*
X1409372Y1155128D01*
X1410280Y1154752D01*
X1411657Y1155322D01*
X1412228Y1156700D01*
X1412133Y1156930D01*
X1413418Y1158930D01*
X1423378D01*
X1423379Y1158930D01*
X1424756Y1159501D01*
X1437036Y1171781D01*
X1447400D01*
X1448778Y1172352D01*
X1449348Y1173729D01*
X1448778Y1175107D01*
X1447400Y1175678D01*
X1436230D01*
X1436229Y1175678D01*
X1434852Y1175107D01*
X1434852Y1175107D01*
X1422572Y1162827D01*
X1408428D01*
X1406747Y1164508D01*
X1409470Y1167232D01*
X1411131Y1168052D01*
X1420057D01*
X1420057Y1168052D01*
X1421435Y1168622D01*
X1427735Y1174922D01*
X1427735Y1174922D01*
X1428305Y1176300D01*
X1427735Y1177678D01*
X1427314Y1177852D01*
X1427712Y1179852D01*
X1447893D01*
X1452616Y1175129D01*
Y1165392D01*
X1447309Y1160086D01*
X1439597Y1167798D01*
X1434930Y1163131D01*
X1442643Y1155419D01*
X1440945Y1153721D01*
X1433232Y1161435D01*
X1428565Y1156768D01*
X1436768Y1148565D01*
X1437724Y1149522D01*
X1439100Y1148952D01*
X1440879D01*
X1440879Y1148952D01*
X1442257Y1149522D01*
X1455942Y1163207D01*
X1455942Y1163207D01*
X1472586Y1179852D01*
X1479393D01*
X1495052Y1164193D01*
Y1127000D01*
X1495052Y1127000D01*
X1495622Y1125622D01*
X1530063Y1091181D01*
X1530063Y1091181D01*
X1531441Y1090611D01*
X1549231D01*
X1549231Y1090611D01*
X1550609Y1091181D01*
X1551795D01*
X1561017Y1081960D01*
X1562777Y1081231D01*
X1564537Y1081960D01*
X1566659Y1084081D01*
X1567388Y1085842D01*
X1566659Y1087602D01*
X1551102Y1103158D01*
X1549342Y1103887D01*
X1547581Y1103158D01*
X1545460Y1101037D01*
X1544731Y1099277D01*
X1545460Y1097516D01*
X1546469Y1096507D01*
X1545641Y1094508D01*
X1537876D01*
X1536744Y1096507D01*
X1536948Y1097000D01*
X1536378Y1098378D01*
X1535000Y1098948D01*
X1534092Y1098572D01*
X1533622Y1098378D01*
X1533052Y1097000D01*
X1531398Y1095767D01*
X1531087Y1095668D01*
X1498948Y1127807D01*
Y1165000D01*
X1498378Y1166378D01*
X1498378Y1166378D01*
X1481578Y1183178D01*
X1480200Y1183748D01*
X1480200Y1183748D01*
X1471779D01*
X1471779Y1183748D01*
X1470401Y1183178D01*
X1470401Y1183178D01*
X1458360Y1171136D01*
X1456513Y1171902D01*
Y1174038D01*
X1457677Y1175720D01*
X1459055Y1176291D01*
X1459626Y1177669D01*
Y1184181D01*
X1459055Y1185559D01*
X1459055Y1185559D01*
X1454257Y1190357D01*
X1452879Y1190928D01*
X1452847Y1190914D01*
X1429404D01*
X1429300Y1190957D01*
X1429300Y1190957D01*
X1418125D01*
X1416747Y1190386D01*
X1416747Y1190386D01*
X1410582Y1184221D01*
X1410206Y1183313D01*
X1410011Y1182843D01*
X1410582Y1181466D01*
X1411453Y1181105D01*
X1412224Y1179047D01*
X1412223Y1179046D01*
X1411653Y1177669D01*
X1412223Y1176291D01*
X1413601Y1175720D01*
X1414979Y1176291D01*
X1418539Y1179852D01*
X1425002D01*
X1425399Y1177852D01*
X1424979Y1177678D01*
Y1177678D01*
X1419250Y1171948D01*
X1410215D01*
X1401478Y1180686D01*
X1400100Y1181256D01*
X1399685Y1181084D01*
X1399485Y1181002D01*
X1398353Y1182697D01*
X1404878Y1189222D01*
X1404878Y1189222D01*
X1418707Y1203052D01*
X1470193D01*
X1503052Y1170193D01*
Y1130000D01*
X1503052Y1130000D01*
X1503622Y1128622D01*
X1526622Y1105622D01*
X1528000Y1105052D01*
X1528000Y1105052D01*
X1537144D01*
X1538118Y1103052D01*
X1537802Y1102289D01*
X1538372Y1100911D01*
X1539750Y1100341D01*
X1541128Y1100911D01*
X1541698Y1102289D01*
X1541243Y1103388D01*
X1541128Y1103667D01*
X1541410Y1105622D01*
X1554839Y1119052D01*
X1561278D01*
X1562691Y1117237D01*
X1563421Y1115477D01*
X1578977Y1099920D01*
X1580737Y1099191D01*
X1582498Y1099920D01*
X1584619Y1102042D01*
X1585348Y1103802D01*
X1584619Y1105562D01*
X1569062Y1121119D01*
X1567302Y1121848D01*
X1565990Y1121304D01*
X1564917Y1122378D01*
X1563539Y1122948D01*
X1563539Y1122948D01*
X1554033D01*
X1554032Y1122948D01*
X1552655Y1122378D01*
X1552655Y1122378D01*
X1539225Y1108948D01*
X1534246D01*
X1533849Y1110948D01*
X1535051Y1111446D01*
X1537172Y1113568D01*
X1537901Y1115328D01*
X1537172Y1117088D01*
X1521616Y1132645D01*
X1519995Y1133316D01*
X1519948Y1133363D01*
Y1136000D01*
X1519378Y1137378D01*
X1518000Y1137948D01*
X1516622Y1137378D01*
X1516052Y1136000D01*
Y1132556D01*
X1516052Y1132556D01*
X1516622Y1131178D01*
X1516626Y1131175D01*
X1515974Y1130523D01*
X1515245Y1128763D01*
X1515974Y1127003D01*
X1531530Y1111446D01*
X1532732Y1110948D01*
X1532335Y1108948D01*
X1528807D01*
X1506948Y1130807D01*
Y1171000D01*
X1506378Y1172378D01*
X1506378Y1172378D01*
X1472378Y1206378D01*
X1471000Y1206948D01*
X1471000Y1206948D01*
X1417900D01*
X1417900Y1206948D01*
D02*
G37*
G36*
X1576283Y1130828D02*
X1574522Y1130099D01*
X1572401Y1127978D01*
X1571672Y1126217D01*
X1572401Y1124457D01*
X1587957Y1108901D01*
X1589718Y1108172D01*
X1591214Y1106627D01*
Y1098392D01*
X1591052Y1098000D01*
X1591622Y1096622D01*
X1593000Y1096052D01*
X1594378Y1096622D01*
X1594948Y1098000D01*
X1594786Y1098392D01*
Y1109500D01*
X1594263Y1110763D01*
X1593718Y1111308D01*
X1594328Y1112782D01*
X1593599Y1114543D01*
X1578043Y1130099D01*
X1576283Y1130828D01*
D02*
G37*
G36*
X1505000Y1099948D02*
X1503622Y1099378D01*
X1503052Y1098000D01*
X1503622Y1096622D01*
X1505000Y1096052D01*
X1506378Y1096622D01*
X1506948Y1098000D01*
X1506378Y1099378D01*
X1505000Y1099948D01*
D02*
G37*
G36*
X1285402Y1126639D02*
X1282402D01*
X1280642Y1125910D01*
X1279912Y1124150D01*
Y1102150D01*
X1280642Y1100390D01*
X1282052Y1099806D01*
Y1097000D01*
X1282622Y1095622D01*
X1284000Y1095052D01*
X1285378Y1095622D01*
X1285948Y1097000D01*
Y1099887D01*
X1287162Y1100390D01*
X1287891Y1102150D01*
Y1124150D01*
X1287162Y1125910D01*
X1285402Y1126639D01*
D02*
G37*
G36*
X1439094Y1079875D02*
X1437716Y1079305D01*
X1437145Y1077927D01*
X1437716Y1076549D01*
X1439094Y1075978D01*
X1440471Y1076549D01*
X1441042Y1077927D01*
X1440471Y1079305D01*
X1439094Y1079875D01*
D02*
G37*
G36*
X1433436Y1074218D02*
X1432059Y1073647D01*
X1431488Y1072270D01*
X1432059Y1070892D01*
X1433436Y1070321D01*
X1434814Y1070892D01*
X1435385Y1072270D01*
X1434814Y1073647D01*
X1433436Y1074218D01*
D02*
G37*
G36*
X1443869Y1073336D02*
X1442491Y1072765D01*
X1441920Y1071387D01*
X1442491Y1070010D01*
X1443869Y1069439D01*
X1445246Y1070010D01*
X1445817Y1071387D01*
X1445246Y1072765D01*
X1443869Y1073336D01*
D02*
G37*
G36*
X1473000Y1153948D02*
X1471622Y1153378D01*
X1471052Y1152000D01*
Y1131807D01*
X1459462Y1120217D01*
X1458891Y1118840D01*
X1458891Y1118840D01*
Y1090929D01*
X1453805Y1085843D01*
X1453234Y1084465D01*
X1453805Y1083088D01*
X1455182Y1082517D01*
X1455811Y1082777D01*
X1456944Y1081082D01*
X1455125Y1079263D01*
X1449526D01*
X1447957Y1078613D01*
X1447307Y1077044D01*
X1447957Y1075475D01*
X1449526Y1074826D01*
X1452870D01*
X1453635Y1072978D01*
X1453613Y1072956D01*
X1452964Y1071387D01*
X1453613Y1069818D01*
X1453679Y1068757D01*
X1451965Y1067043D01*
X1450903Y1067108D01*
X1449996Y1067484D01*
X1449526Y1067679D01*
X1448148Y1067109D01*
X1447578Y1065731D01*
X1448148Y1064353D01*
X1448169Y1064022D01*
X1446288Y1062022D01*
X1443869D01*
X1442491Y1061451D01*
X1441920Y1060074D01*
X1442491Y1058696D01*
X1443289Y1058365D01*
X1442892Y1056365D01*
X1438212D01*
X1436834Y1055795D01*
X1436263Y1054417D01*
X1436550Y1053724D01*
X1435423Y1052700D01*
X1434917Y1052440D01*
X1433691Y1052948D01*
X1432313Y1052378D01*
X1431743Y1051000D01*
X1432313Y1049622D01*
X1438031Y1043905D01*
Y1034231D01*
X1418622Y1014822D01*
X1418052Y1013445D01*
X1418052Y1013445D01*
Y994000D01*
X1418052Y994000D01*
X1418622Y992622D01*
X1425622Y985622D01*
X1427000Y985052D01*
X1435071D01*
X1435071Y985052D01*
X1436448Y985622D01*
X1440635Y989809D01*
X1441182Y989583D01*
X1442177Y989995D01*
X1443698Y991516D01*
X1448820D01*
X1448820Y991516D01*
X1450198Y992087D01*
X1450748Y992637D01*
X1451213Y992171D01*
X1454121Y990967D01*
X1457030Y992171D01*
X1458051Y993193D01*
X1461622Y989622D01*
X1463000Y989052D01*
X1465000D01*
X1465000Y989052D01*
X1466378Y989622D01*
X1471787Y995031D01*
X1471823Y994995D01*
X1472818Y994583D01*
X1473813Y994995D01*
X1475934Y997116D01*
X1476347Y998111D01*
X1475934Y999106D01*
X1473106Y1001934D01*
X1472111Y1002347D01*
X1471116Y1001934D01*
X1468995Y999813D01*
X1468583Y998818D01*
X1468995Y997823D01*
X1469031Y997787D01*
X1464193Y992948D01*
X1463807D01*
X1460807Y995948D01*
X1461272Y996414D01*
X1462477Y999322D01*
X1461272Y1002231D01*
X1457030Y1006473D01*
X1454121Y1007678D01*
X1451213Y1006473D01*
X1446970Y1002231D01*
X1445766Y999322D01*
X1446183Y998314D01*
X1445007Y996349D01*
X1443608Y996210D01*
X1442884Y996934D01*
X1441889Y997346D01*
X1440894Y996934D01*
X1438065Y994106D01*
X1437653Y993111D01*
X1437880Y992564D01*
X1434264Y988948D01*
X1427807D01*
X1421948Y994807D01*
Y1012638D01*
X1430668Y1021358D01*
X1432699Y1020560D01*
X1433087Y1019622D01*
X1434582Y1018127D01*
X1432828Y1016373D01*
X1431624Y1013464D01*
X1432828Y1010556D01*
X1437071Y1006313D01*
X1439979Y1005109D01*
X1442888Y1006313D01*
X1447130Y1010556D01*
X1448335Y1013464D01*
X1447130Y1016373D01*
X1446387Y1017116D01*
X1450184Y1020913D01*
X1452344Y1020245D01*
X1452602Y1019622D01*
X1453980Y1019052D01*
X1455357Y1019622D01*
X1455928Y1021000D01*
X1455357Y1022378D01*
X1454734Y1022636D01*
X1454066Y1024796D01*
X1456696Y1027426D01*
X1460110D01*
X1460892Y1025538D01*
X1462810Y1023620D01*
X1462622Y1021378D01*
X1462052Y1020000D01*
X1462622Y1018622D01*
X1464000Y1018052D01*
X1465378Y1018622D01*
X1467796Y1019572D01*
X1469678Y1018793D01*
X1473160Y1020235D01*
X1474788Y1021863D01*
X1477587Y1019063D01*
Y1008406D01*
X1476066Y1006884D01*
X1475654Y1005889D01*
X1476066Y1004894D01*
X1478894Y1002066D01*
X1479889Y1001654D01*
X1480884Y1002066D01*
X1483005Y1004187D01*
X1483418Y1005182D01*
X1483005Y1006177D01*
X1481484Y1007698D01*
Y1019870D01*
X1480913Y1021248D01*
X1477543Y1024618D01*
X1479171Y1026245D01*
X1480613Y1029728D01*
X1479171Y1033210D01*
X1473867Y1038514D01*
X1470385Y1039956D01*
X1466902Y1038514D01*
X1460892Y1032503D01*
X1460403Y1031323D01*
X1455889D01*
X1455889Y1031323D01*
X1454511Y1030752D01*
X1454511Y1030752D01*
X1443631Y1019872D01*
X1442888Y1020615D01*
X1439979Y1021820D01*
X1437448Y1020772D01*
X1435842Y1022378D01*
X1434905Y1022766D01*
X1434107Y1024796D01*
X1441357Y1032046D01*
X1441927Y1033424D01*
X1441927Y1033424D01*
Y1044712D01*
X1441927Y1044712D01*
X1441357Y1046089D01*
X1436386Y1051060D01*
X1437519Y1052756D01*
X1438212Y1052469D01*
X1467576D01*
X1483423Y1036622D01*
X1483423Y1036622D01*
X1484801Y1036052D01*
X1484801Y1036052D01*
X1485950D01*
X1485950Y1036052D01*
X1487327Y1036622D01*
X1487549Y1036845D01*
X1488182Y1036583D01*
X1489177Y1036995D01*
X1490698Y1038516D01*
X1496180D01*
X1496180Y1038516D01*
X1497558Y1039087D01*
X1498064Y1039593D01*
X1498899Y1038757D01*
X1501808Y1037552D01*
X1504716Y1038757D01*
X1505552Y1039593D01*
X1506057Y1039087D01*
X1507435Y1038516D01*
X1507435Y1038516D01*
X1513062D01*
X1513465Y1038516D01*
X1513465Y1038516D01*
X1513465Y1038516D01*
X1513782Y1038462D01*
X1513965Y1038412D01*
X1515164Y1036471D01*
X1515065Y1036045D01*
X1515052Y1036000D01*
X1515210Y1035618D01*
X1515622Y1034622D01*
X1517000Y1034052D01*
X1518378Y1034622D01*
X1518948Y1036000D01*
X1518378Y1037378D01*
X1517282Y1037832D01*
X1517000Y1037948D01*
X1516932Y1037950D01*
X1516518Y1038025D01*
X1515751Y1039944D01*
X1515796Y1040040D01*
X1519787Y1044031D01*
X1519823Y1043995D01*
X1520818Y1043583D01*
X1521527Y1043876D01*
X1522666Y1042737D01*
X1523929Y1042214D01*
X1528000D01*
X1529263Y1042737D01*
X1537263Y1050737D01*
X1537786Y1052000D01*
Y1077000D01*
X1537263Y1078263D01*
X1513540Y1101986D01*
X1513378Y1102378D01*
X1512000Y1102948D01*
X1510622Y1102378D01*
X1510052Y1101000D01*
X1510622Y1099622D01*
X1511015Y1099460D01*
X1534214Y1076260D01*
Y1052740D01*
X1527260Y1045786D01*
X1525963D01*
X1524347Y1047111D01*
X1523934Y1048106D01*
X1521106Y1050934D01*
X1520111Y1051347D01*
X1519116Y1050934D01*
X1516995Y1048813D01*
X1516583Y1047818D01*
X1516995Y1046823D01*
X1517031Y1046787D01*
X1512747Y1042502D01*
X1510743Y1042619D01*
X1509544Y1044413D01*
X1510163Y1045908D01*
X1508959Y1048817D01*
X1504716Y1053059D01*
X1502207Y1054098D01*
X1501392Y1056112D01*
X1503383Y1058102D01*
X1507024D01*
X1512087Y1053039D01*
X1512087Y1053039D01*
X1513465Y1052469D01*
X1514842Y1053039D01*
X1515218Y1053947D01*
X1515413Y1054417D01*
X1514842Y1055795D01*
X1514842Y1055795D01*
X1509209Y1061428D01*
X1507832Y1061999D01*
X1507831Y1061999D01*
X1502576D01*
X1501198Y1061428D01*
X1501198Y1061428D01*
X1497030Y1057261D01*
X1495335Y1058393D01*
X1496021Y1060050D01*
X1494816Y1062959D01*
X1494073Y1063702D01*
X1498095Y1067725D01*
X1501198Y1064622D01*
X1502227Y1064196D01*
X1502576Y1064052D01*
X1502576Y1064052D01*
X1502697D01*
X1504073Y1064622D01*
X1504074Y1064622D01*
X1504645Y1066000D01*
X1504074Y1067378D01*
X1503867Y1067463D01*
X1500851Y1070480D01*
X1504382Y1074012D01*
X1507796D01*
X1508578Y1072124D01*
X1511906Y1068796D01*
X1511240Y1066634D01*
X1510622Y1066378D01*
X1510052Y1065000D01*
X1510622Y1063622D01*
X1511530Y1063246D01*
X1512000Y1063052D01*
X1513378Y1063622D01*
X1513817Y1064683D01*
X1514451Y1065317D01*
X1515665Y1066082D01*
X1517364Y1065378D01*
X1520846Y1066821D01*
X1522474Y1068448D01*
X1525587Y1065335D01*
Y1057405D01*
X1524066Y1055884D01*
X1523654Y1054889D01*
X1524066Y1053894D01*
X1526894Y1051066D01*
X1527889Y1050654D01*
X1528884Y1051066D01*
X1531005Y1053187D01*
X1531418Y1054182D01*
X1531005Y1055177D01*
X1529484Y1056698D01*
Y1066142D01*
X1529484Y1066142D01*
X1528913Y1067520D01*
X1525229Y1071204D01*
X1526857Y1072831D01*
X1528299Y1076314D01*
X1526857Y1079796D01*
X1521553Y1085099D01*
X1518071Y1086542D01*
X1514589Y1085099D01*
X1508578Y1079089D01*
X1508089Y1077908D01*
X1503575D01*
X1503575Y1077908D01*
X1502198Y1077338D01*
X1502198Y1077338D01*
X1496271Y1071411D01*
X1496271Y1071411D01*
X1491317Y1066458D01*
X1490574Y1067201D01*
X1487666Y1068406D01*
X1484757Y1067201D01*
X1480515Y1062959D01*
X1479961Y1061623D01*
X1477602Y1061153D01*
X1467344Y1071411D01*
X1465967Y1071982D01*
X1465967Y1071982D01*
X1461743D01*
X1460915Y1073982D01*
X1480569Y1093636D01*
X1481219Y1095205D01*
Y1111424D01*
X1483065Y1113270D01*
X1483715Y1114839D01*
X1483065Y1116408D01*
X1481496Y1117058D01*
X1479927Y1116408D01*
X1477431Y1113912D01*
X1476781Y1112343D01*
Y1108305D01*
X1474933Y1107540D01*
X1472065Y1110408D01*
X1470496Y1111058D01*
X1468927Y1110408D01*
X1468277Y1108839D01*
X1468927Y1107270D01*
X1473481Y1102716D01*
Y1097619D01*
X1471503Y1095641D01*
X1469808Y1096774D01*
X1469948Y1097113D01*
X1469378Y1098491D01*
X1468908Y1098686D01*
X1468000Y1099062D01*
X1466622Y1098491D01*
X1466052Y1097113D01*
X1466622Y1095735D01*
X1468000Y1095165D01*
X1468339Y1095305D01*
X1469472Y1093610D01*
X1464223Y1088361D01*
X1462385Y1089148D01*
X1462788Y1090123D01*
X1462788Y1090123D01*
Y1118033D01*
X1474378Y1129622D01*
X1474378Y1129622D01*
X1474948Y1131000D01*
X1474948Y1131000D01*
Y1152000D01*
X1474378Y1153378D01*
X1473000Y1153948D01*
D02*
G37*
G36*
X1422889Y1079346D02*
X1421894Y1078934D01*
X1419066Y1076106D01*
X1418654Y1075111D01*
X1419066Y1074116D01*
X1420175Y1073007D01*
Y1068439D01*
X1418530Y1066928D01*
X1417085Y1067094D01*
X1416815Y1067256D01*
X1413693Y1070378D01*
X1412315Y1070948D01*
X1412315Y1070948D01*
X1407071D01*
X1405694Y1070378D01*
X1405694Y1070378D01*
X1393259Y1057943D01*
X1392303Y1058899D01*
X1384101Y1050696D01*
X1388768Y1046030D01*
X1396970Y1054232D01*
X1396014Y1055188D01*
X1407878Y1067052D01*
X1411508D01*
X1414059Y1064501D01*
X1414221Y1064230D01*
X1414378Y1062860D01*
X1412798Y1061280D01*
X1411306Y1061451D01*
X1410398Y1061827D01*
X1409928Y1062022D01*
X1408550Y1061451D01*
X1407979Y1060074D01*
X1408550Y1058696D01*
X1408811Y1056423D01*
X1389827Y1037440D01*
X1389614Y1037653D01*
X1387662Y1038462D01*
X1385711Y1037653D01*
X1379347Y1031289D01*
X1378890Y1030188D01*
X1374343D01*
X1372966Y1029617D01*
X1372395Y1028239D01*
X1372966Y1026862D01*
X1374343Y1026291D01*
X1379794D01*
X1379794Y1026291D01*
X1380252Y1026481D01*
X1381821Y1024911D01*
X1383773Y1024103D01*
X1385725Y1024911D01*
X1392089Y1031275D01*
X1392897Y1033227D01*
X1392378Y1034480D01*
X1400667Y1042769D01*
X1402893Y1042622D01*
X1404271Y1042052D01*
X1405648Y1042622D01*
X1406219Y1044000D01*
X1405648Y1045378D01*
X1405559Y1046737D01*
X1407188Y1048361D01*
X1408550Y1048264D01*
X1409928Y1047694D01*
X1411306Y1048264D01*
X1411876Y1049642D01*
X1411306Y1051020D01*
X1411236Y1052011D01*
X1412230Y1052884D01*
X1414207Y1053039D01*
X1415584Y1052469D01*
X1416962Y1053039D01*
X1417338Y1053947D01*
X1417533Y1054417D01*
X1416962Y1055795D01*
X1416650Y1055924D01*
X1416111Y1058213D01*
X1417445Y1059547D01*
X1419734Y1059008D01*
X1419864Y1058696D01*
X1421244Y1058103D01*
X1421486Y1056278D01*
Y1050645D01*
X1421486Y1050645D01*
X1422056Y1049267D01*
X1424407Y1046916D01*
X1424663Y1045489D01*
X1424630Y1044487D01*
X1386349Y1006206D01*
X1380750Y1011804D01*
X1381494Y1012548D01*
X1382699Y1015456D01*
X1381494Y1018364D01*
X1377251Y1022607D01*
X1374343Y1023811D01*
X1371435Y1022607D01*
X1367192Y1018364D01*
X1365988Y1015456D01*
X1367192Y1012548D01*
X1371435Y1008305D01*
X1374343Y1007100D01*
X1377251Y1008305D01*
X1377995Y1009048D01*
X1384971Y1002073D01*
X1384971Y1002073D01*
X1388305Y998739D01*
Y995325D01*
X1386417Y994543D01*
X1381114Y989240D01*
X1379671Y985757D01*
X1381114Y982275D01*
X1382741Y980647D01*
X1380507Y978413D01*
X1369405D01*
X1367884Y979934D01*
X1366889Y980347D01*
X1365894Y979934D01*
X1363413Y977453D01*
X1361776Y977855D01*
X1361413Y978066D01*
Y981373D01*
X1362934Y982894D01*
X1363346Y983889D01*
X1362934Y984884D01*
X1360813Y987005D01*
X1359818Y987418D01*
X1358823Y987005D01*
X1358786Y986969D01*
X1356766Y988989D01*
Y992216D01*
X1358766Y993552D01*
X1360201Y992958D01*
X1363109Y994163D01*
X1367352Y998405D01*
X1368557Y1001314D01*
X1367352Y1004222D01*
X1363109Y1008465D01*
X1360201Y1009669D01*
X1359881Y1009537D01*
X1357729Y1010810D01*
X1357619Y1011801D01*
X1357934Y1012116D01*
X1358347Y1013111D01*
X1357934Y1014106D01*
X1355106Y1016935D01*
X1354111Y1017347D01*
X1353116Y1016935D01*
X1350995Y1014813D01*
X1350583Y1013818D01*
X1350995Y1012823D01*
X1352516Y1011302D01*
Y1007050D01*
X1352516Y1007050D01*
X1353087Y1005673D01*
X1353794Y1004966D01*
X1353050Y1004222D01*
X1351845Y1001314D01*
X1353050Y998405D01*
X1353931Y997525D01*
X1353440Y997035D01*
X1352870Y995657D01*
X1352870Y995657D01*
Y988182D01*
X1352870Y988182D01*
X1353440Y986804D01*
X1356031Y984213D01*
X1355995Y984177D01*
X1355582Y983182D01*
X1355995Y982187D01*
X1357516Y980665D01*
Y971536D01*
X1357516Y971535D01*
X1358087Y970158D01*
X1361622Y966622D01*
X1363000Y966052D01*
X1372343D01*
X1372343Y966052D01*
X1373721Y966622D01*
X1376150Y969052D01*
X1378788D01*
X1379186Y967052D01*
X1379164Y967042D01*
X1378593Y965665D01*
X1379164Y964287D01*
X1382795Y960657D01*
X1382795Y960656D01*
X1384172Y960086D01*
X1384173Y960086D01*
X1416746D01*
X1437757Y939075D01*
Y934619D01*
X1437443Y934410D01*
X1435683Y933680D01*
X1420126Y918124D01*
X1419397Y916364D01*
X1420126Y914603D01*
X1422248Y912482D01*
X1424008Y911753D01*
X1425768Y912482D01*
X1437312Y924025D01*
X1439052Y923000D01*
X1439271Y922469D01*
Y922078D01*
X1439794Y920816D01*
X1440286Y920324D01*
X1429106Y909144D01*
X1428377Y907383D01*
X1429106Y905623D01*
X1429934Y904796D01*
X1429259Y902641D01*
X1428622Y902377D01*
X1428051Y901000D01*
X1428622Y899622D01*
X1430000Y899051D01*
X1431377Y899622D01*
X1431868Y900806D01*
X1432879Y901170D01*
X1433115Y901171D01*
X1434130Y900810D01*
X1434622Y899622D01*
X1435107Y899422D01*
X1435718Y897204D01*
X1433085Y894572D01*
X1427480D01*
X1425317Y896734D01*
Y903000D01*
X1424271Y905526D01*
X1421745Y906572D01*
X1419220Y905526D01*
X1418173Y903000D01*
Y895255D01*
X1419220Y892729D01*
X1423474Y888474D01*
X1426000Y887428D01*
X1434565D01*
X1437091Y888474D01*
X1442720Y894104D01*
X1443729Y894522D01*
X1459285Y910078D01*
X1460014Y911838D01*
X1460010Y911848D01*
X1461526Y913363D01*
X1462572Y915889D01*
Y920346D01*
X1464572Y920744D01*
X1464622Y920622D01*
X1464622Y920622D01*
X1466000Y920052D01*
X1467378Y920622D01*
X1467685Y921365D01*
X1470143Y923822D01*
X1471455Y923279D01*
X1473215Y924008D01*
X1488772Y939564D01*
X1489501Y941325D01*
X1488772Y943085D01*
X1486650Y945206D01*
X1484890Y945936D01*
X1483129Y945206D01*
X1467573Y929650D01*
X1466844Y927890D01*
X1467387Y926578D01*
X1464622Y923813D01*
X1464572Y923691D01*
X1462572Y924089D01*
Y929979D01*
X1462393Y930411D01*
X1462474Y932259D01*
X1464235Y932988D01*
X1479791Y948544D01*
X1480520Y950305D01*
X1479852Y951918D01*
X1480121Y952568D01*
Y954830D01*
X1480121Y954830D01*
X1479550Y956208D01*
X1479550Y956208D01*
X1471980Y963779D01*
Y975969D01*
X1471980Y975969D01*
X1471409Y977346D01*
X1471409Y977346D01*
X1461878Y986878D01*
X1460500Y987448D01*
X1460500Y987448D01*
X1442479D01*
X1441102Y986878D01*
X1437172Y982948D01*
X1423807D01*
X1419878Y986878D01*
X1419878Y986878D01*
X1415948Y990807D01*
Y1020193D01*
X1422617Y1026862D01*
X1422617Y1026862D01*
X1423188Y1028239D01*
X1422617Y1029617D01*
X1421709Y1029993D01*
X1421239Y1030188D01*
X1419862Y1029617D01*
X1419862Y1029617D01*
X1412622Y1022378D01*
X1412052Y1021000D01*
X1412052Y1021000D01*
Y990000D01*
X1412052Y990000D01*
X1412622Y988622D01*
X1415512Y985732D01*
X1402728Y972948D01*
X1382755D01*
X1382357Y974948D01*
X1382691Y975087D01*
X1385497Y977892D01*
X1387124Y976265D01*
X1390607Y974822D01*
X1394089Y976265D01*
X1399392Y981568D01*
X1400835Y985050D01*
X1399392Y988533D01*
X1393382Y994543D01*
X1392201Y995032D01*
Y999077D01*
X1392074Y999384D01*
X1392159Y999588D01*
X1391588Y1000966D01*
X1391588Y1000966D01*
X1389104Y1003450D01*
X1427367Y1041714D01*
X1429367Y1040885D01*
Y1038224D01*
X1425520Y1034378D01*
X1424950Y1033000D01*
X1425520Y1031622D01*
X1426898Y1031052D01*
X1428276Y1031622D01*
X1432693Y1036040D01*
X1433264Y1037417D01*
Y1043999D01*
X1433264Y1043999D01*
X1432693Y1045377D01*
X1432693Y1045377D01*
X1428692Y1049378D01*
X1428846Y1051140D01*
X1428846Y1051140D01*
X1428276Y1052518D01*
X1427806Y1052713D01*
X1426898Y1053089D01*
X1425382Y1054626D01*
Y1057193D01*
X1428276Y1060086D01*
X1428276Y1060086D01*
X1428846Y1061464D01*
X1428846Y1061464D01*
Y1065731D01*
X1428276Y1067108D01*
X1426898Y1067679D01*
X1426071Y1067337D01*
X1424071Y1068272D01*
Y1072889D01*
X1426005Y1074823D01*
X1426417Y1075818D01*
X1426005Y1076813D01*
X1423884Y1078934D01*
X1422889Y1079346D01*
D02*
G37*
G36*
X1438212Y1067679D02*
X1436834Y1067108D01*
X1436263Y1065731D01*
X1436834Y1064353D01*
X1438212Y1063783D01*
X1439589Y1064353D01*
X1440160Y1065731D01*
X1439589Y1067108D01*
X1438212Y1067679D01*
D02*
G37*
G36*
X1364000Y1066948D02*
X1362622Y1066378D01*
X1362052Y1065000D01*
X1362622Y1063622D01*
X1364000Y1063052D01*
X1365378Y1063622D01*
X1365948Y1065000D01*
X1365378Y1066378D01*
X1364000Y1066948D01*
D02*
G37*
G36*
X1432555Y1062022D02*
X1431178Y1061451D01*
X1430607Y1060074D01*
X1431178Y1058696D01*
X1432555Y1058125D01*
X1433933Y1058696D01*
X1434503Y1060074D01*
X1433933Y1061451D01*
X1432555Y1062022D01*
D02*
G37*
G36*
X1575952Y1072758D02*
X1573242Y1072401D01*
X1571578Y1070232D01*
X1570284Y1065403D01*
X1570641Y1062692D01*
X1572418Y1061328D01*
X1572986Y1059068D01*
X1569153Y1055235D01*
X1568291Y1055361D01*
X1566907Y1057000D01*
Y1061000D01*
X1566495Y1061995D01*
X1565500Y1062407D01*
X1562500D01*
X1561505Y1061995D01*
X1561093Y1061000D01*
Y1057000D01*
X1561505Y1056005D01*
X1562052Y1055779D01*
Y1054071D01*
X1562052Y1054071D01*
X1562622Y1052693D01*
X1563880Y1051435D01*
X1563654Y1050889D01*
X1564066Y1049894D01*
X1566894Y1047066D01*
X1567889Y1046653D01*
X1568884Y1047066D01*
X1571005Y1049187D01*
X1571418Y1050182D01*
X1571005Y1051177D01*
X1570806Y1051377D01*
X1574127Y1054698D01*
X1577202Y1051622D01*
X1577202Y1051622D01*
X1578580Y1051052D01*
X1579958Y1051622D01*
X1580528Y1053000D01*
X1579958Y1054378D01*
X1578316Y1056019D01*
X1578392Y1058242D01*
X1579565Y1059218D01*
X1587298Y1057146D01*
X1590009Y1057503D01*
X1591673Y1059671D01*
X1592967Y1064501D01*
X1592610Y1067212D01*
X1590441Y1068876D01*
X1575952Y1072758D01*
D02*
G37*
G36*
X1555500Y1062408D02*
X1552500D01*
X1551505Y1061995D01*
X1551093Y1061000D01*
Y1057000D01*
X1551505Y1056005D01*
X1552052Y1055779D01*
Y1048000D01*
X1552052Y1048000D01*
X1552622Y1046622D01*
X1553051Y1046445D01*
X1554000Y1046052D01*
X1555378Y1046622D01*
X1555948Y1048000D01*
X1555948Y1048000D01*
Y1055779D01*
X1556495Y1056005D01*
X1556907Y1057000D01*
Y1061000D01*
X1556495Y1061995D01*
X1555500Y1062408D01*
D02*
G37*
G36*
X1283000Y1040948D02*
X1281622Y1040378D01*
X1281052Y1039000D01*
X1281622Y1037622D01*
X1283000Y1037052D01*
X1284378Y1037622D01*
X1284948Y1039000D01*
X1284378Y1040378D01*
X1283000Y1040948D01*
D02*
G37*
G36*
X1312000Y1036948D02*
X1310622Y1036378D01*
X1310052Y1035000D01*
X1310622Y1033622D01*
X1312000Y1033052D01*
X1313378Y1033622D01*
X1313948Y1035000D01*
X1313378Y1036378D01*
X1312000Y1036948D01*
D02*
G37*
G36*
X1283041Y1031160D02*
X1281663Y1030590D01*
X1281093Y1029212D01*
X1281663Y1027834D01*
X1283041Y1027263D01*
X1284418Y1027834D01*
X1284989Y1029212D01*
X1284418Y1030590D01*
X1283041Y1031160D01*
D02*
G37*
G36*
X1366000Y1026948D02*
X1364622Y1026378D01*
Y1026378D01*
X1362213Y1023969D01*
X1362177Y1024005D01*
X1361182Y1024417D01*
X1360187Y1024005D01*
X1358066Y1021884D01*
X1357654Y1020889D01*
X1358066Y1019894D01*
X1360894Y1017066D01*
X1361889Y1016654D01*
X1362884Y1017066D01*
X1365005Y1019187D01*
X1365417Y1020182D01*
X1365005Y1021177D01*
X1364969Y1021214D01*
X1367377Y1023622D01*
X1367378Y1023622D01*
X1367948Y1025000D01*
X1367378Y1026378D01*
X1366435Y1026768D01*
X1366428Y1026771D01*
X1366428Y1026771D01*
X1366000Y1026948D01*
D02*
G37*
G36*
X1328364Y1026948D02*
X1326987Y1026378D01*
X1326416Y1025000D01*
X1326987Y1023622D01*
X1328364Y1023052D01*
X1329742Y1023622D01*
X1330312Y1025000D01*
X1329742Y1026378D01*
X1328364Y1026948D01*
D02*
G37*
G36*
X1294000D02*
X1292622Y1026378D01*
X1292052Y1025000D01*
X1292622Y1023622D01*
X1294000Y1023052D01*
X1295378Y1023622D01*
X1295948Y1025000D01*
X1295378Y1026378D01*
X1294000Y1026948D01*
D02*
G37*
G36*
X1501765Y1022876D02*
X1500388Y1022305D01*
X1499817Y1020927D01*
X1500388Y1019549D01*
X1501765Y1018979D01*
X1503143Y1019549D01*
X1503714Y1020927D01*
X1503143Y1022305D01*
X1501765Y1022876D01*
D02*
G37*
G36*
X1509611Y1016228D02*
X1508233Y1015658D01*
X1507663Y1014280D01*
X1508233Y1012902D01*
X1509611Y1012332D01*
X1510989Y1012902D01*
X1511559Y1014280D01*
X1510989Y1015658D01*
X1509611Y1016228D01*
D02*
G37*
G36*
X1551151Y1022174D02*
X1546329Y1020177D01*
X1544332Y1015355D01*
X1546329Y1010534D01*
X1551151Y1008536D01*
X1555972Y1010534D01*
X1557970Y1015355D01*
X1555972Y1020177D01*
X1551151Y1022174D01*
D02*
G37*
G36*
X1266000Y1013572D02*
X1263474Y1012526D01*
X1262428Y1010000D01*
X1263474Y1007474D01*
X1266000Y1006428D01*
X1268526Y1007474D01*
X1269572Y1010000D01*
X1268526Y1012526D01*
X1266000Y1013572D01*
D02*
G37*
G36*
X1545682Y1004917D02*
X1544687Y1004505D01*
X1542566Y1002384D01*
X1542154Y1001389D01*
X1542566Y1000394D01*
X1545394Y997566D01*
X1546389Y997153D01*
X1547384Y997566D01*
X1548906Y999087D01*
X1553429D01*
X1553429Y999087D01*
X1554806Y999658D01*
X1556400Y1001251D01*
X1556400Y1001251D01*
X1556971Y1002629D01*
X1556400Y1004007D01*
X1555492Y1004382D01*
X1555022Y1004577D01*
X1553645Y1004007D01*
X1553645Y1004007D01*
X1552622Y1002984D01*
X1548199D01*
X1546677Y1004505D01*
X1545682Y1004917D01*
D02*
G37*
G36*
X1528523Y1024163D02*
X1523529Y1023170D01*
X1519295Y1020341D01*
X1516466Y1016107D01*
X1515472Y1011113D01*
X1516466Y1006118D01*
X1519295Y1001884D01*
X1523529Y999055D01*
X1528523Y998062D01*
X1533518Y999055D01*
X1537751Y1001884D01*
X1540581Y1006118D01*
X1541574Y1011113D01*
X1540581Y1016107D01*
X1537751Y1020341D01*
X1533518Y1023170D01*
X1528523Y1024163D01*
D02*
G37*
G36*
X1434818Y1004417D02*
X1433823Y1004005D01*
X1430995Y1001177D01*
X1430582Y1000182D01*
X1430830Y999585D01*
X1427622Y996378D01*
X1427052Y995000D01*
X1427622Y993622D01*
X1429000Y993052D01*
X1430378Y993622D01*
X1433615Y996859D01*
X1434111Y996654D01*
X1435106Y997066D01*
X1437934Y999894D01*
X1438346Y1000889D01*
X1437934Y1001884D01*
X1435813Y1004005D01*
X1434818Y1004417D01*
D02*
G37*
G36*
X1538611Y997846D02*
X1537616Y997434D01*
X1536095Y995913D01*
X1528151D01*
X1527722Y996091D01*
X1526814Y995715D01*
X1526344Y995520D01*
X1525773Y994142D01*
X1525773Y994142D01*
X1526344Y992765D01*
X1526521Y992587D01*
X1526522Y992587D01*
X1526740Y992496D01*
X1527899Y992016D01*
X1536802D01*
X1538323Y990495D01*
X1539318Y990082D01*
X1540313Y990495D01*
X1542435Y992616D01*
X1542847Y993611D01*
X1542435Y994606D01*
X1539606Y997434D01*
X1538611Y997846D01*
D02*
G37*
G36*
X1567414Y1005911D02*
X1562592Y1003913D01*
X1560595Y999092D01*
X1562592Y994270D01*
X1567414Y992273D01*
X1572236Y994270D01*
X1574233Y999092D01*
X1572236Y1003913D01*
X1567414Y1005911D01*
D02*
G37*
G36*
X1486000Y992617D02*
X1484622Y992047D01*
X1484052Y990669D01*
X1484622Y989291D01*
X1486000Y988721D01*
X1487378Y989291D01*
X1487948Y990669D01*
X1487378Y992047D01*
X1486000Y992617D01*
D02*
G37*
G36*
X1520071Y993948D02*
X1520071Y993948D01*
X1510000D01*
X1508622Y993378D01*
X1508052Y992000D01*
X1508622Y990622D01*
X1510000Y990052D01*
X1519264D01*
X1524880Y984436D01*
X1524653Y983889D01*
X1525066Y982894D01*
X1527894Y980066D01*
X1528889Y979654D01*
X1529884Y980066D01*
X1532005Y982187D01*
X1532417Y983182D01*
X1532005Y984177D01*
X1529177Y987006D01*
X1528182Y987418D01*
X1527635Y987191D01*
X1521449Y993378D01*
X1520071Y993948D01*
D02*
G37*
G36*
X1515000Y984948D02*
X1513622Y984378D01*
X1513622Y984376D01*
X1513428Y983908D01*
X1513052Y983000D01*
Y982929D01*
X1513052Y982929D01*
X1513622Y981551D01*
X1517809Y977365D01*
X1517583Y976818D01*
X1517995Y975823D01*
X1520823Y972995D01*
X1521818Y972582D01*
X1522813Y972995D01*
X1524934Y975116D01*
X1525347Y976111D01*
X1524934Y977106D01*
X1522106Y979934D01*
X1521111Y980346D01*
X1520564Y980120D01*
X1516428Y984256D01*
X1516378Y984378D01*
X1515000Y984948D01*
D02*
G37*
G36*
X1544682Y987418D02*
X1543687Y987006D01*
X1541566Y984884D01*
X1541154Y983889D01*
X1541566Y982894D01*
X1543087Y981373D01*
Y970964D01*
X1543087Y970964D01*
X1543658Y969587D01*
X1546622Y966622D01*
X1546622Y966622D01*
X1548000Y966052D01*
X1549378Y966622D01*
X1549771Y967571D01*
X1549948Y968000D01*
X1549378Y969378D01*
X1549378Y969378D01*
X1546984Y971771D01*
Y980666D01*
X1548506Y982187D01*
X1548918Y983182D01*
X1548506Y984177D01*
X1545677Y987006D01*
X1544682Y987418D01*
D02*
G37*
G36*
X1563878Y988808D02*
X1558884Y987815D01*
X1554650Y984986D01*
X1551821Y980752D01*
X1550828Y975757D01*
X1551821Y970763D01*
X1554650Y966529D01*
X1558884Y963700D01*
X1563878Y962706D01*
X1568873Y963700D01*
X1573107Y966529D01*
X1575936Y970763D01*
X1576929Y975757D01*
X1575936Y980752D01*
X1573107Y984986D01*
X1568873Y987815D01*
X1563878Y988808D01*
D02*
G37*
G36*
X1507753Y1006948D02*
X1506376Y1006378D01*
X1500782Y1000784D01*
X1500211Y999406D01*
X1500211Y999406D01*
Y983804D01*
X1500211Y983804D01*
X1500782Y982427D01*
X1519051Y964158D01*
Y964158D01*
X1519100Y962741D01*
X1518905Y962054D01*
X1518616Y961934D01*
X1516495Y959813D01*
X1516082Y958818D01*
X1516495Y957823D01*
X1519323Y954995D01*
X1520318Y954583D01*
X1520865Y954809D01*
X1526051Y949622D01*
X1527429Y949052D01*
X1527429Y949052D01*
X1537000D01*
X1538378Y949622D01*
X1538948Y951000D01*
X1538378Y952378D01*
X1537000Y952948D01*
X1528236D01*
X1523620Y957564D01*
X1523846Y958111D01*
X1523434Y959106D01*
X1520953Y961588D01*
X1521353Y963222D01*
X1521566Y963587D01*
X1524872D01*
X1526394Y962066D01*
X1527389Y961654D01*
X1527935Y961880D01*
X1530193Y959622D01*
X1530193Y959622D01*
X1531571Y959052D01*
X1531571Y959052D01*
X1534000D01*
X1535378Y959622D01*
X1535948Y961000D01*
X1535378Y962378D01*
X1534000Y962948D01*
X1532378D01*
X1530691Y964636D01*
X1530917Y965182D01*
X1530505Y966177D01*
X1527677Y969006D01*
X1526682Y969418D01*
X1525687Y969006D01*
X1524165Y967484D01*
X1521235D01*
X1504108Y984612D01*
Y998599D01*
X1508560Y1003052D01*
X1509062D01*
X1510440Y1003622D01*
X1511011Y1005000D01*
X1510440Y1006378D01*
X1509062Y1006948D01*
X1507753D01*
X1507753Y1006948D01*
D02*
G37*
G36*
X1487511Y983151D02*
X1482517Y982158D01*
X1478283Y979329D01*
X1475454Y975095D01*
X1474461Y970101D01*
X1475454Y965106D01*
X1478283Y960872D01*
X1482517Y958043D01*
X1487511Y957050D01*
X1492506Y958043D01*
X1496740Y960872D01*
X1499569Y965106D01*
X1500562Y970101D01*
X1499569Y975095D01*
X1496740Y979329D01*
X1492506Y982158D01*
X1487511Y983151D01*
D02*
G37*
G36*
X1548000Y958572D02*
X1545474Y957526D01*
X1544428Y955000D01*
X1545474Y952474D01*
X1548000Y951428D01*
X1550526Y952474D01*
X1551572Y955000D01*
X1550526Y957526D01*
X1548000Y958572D01*
D02*
G37*
G36*
X1403000Y954948D02*
X1401622Y954378D01*
X1401052Y953000D01*
X1401622Y951622D01*
X1403000Y951052D01*
X1404378Y951622D01*
X1404948Y953000D01*
X1404378Y954378D01*
X1403000Y954948D01*
D02*
G37*
G36*
X1505189Y959242D02*
X1500367Y957245D01*
X1498370Y952423D01*
X1500367Y947601D01*
X1505189Y945604D01*
X1510011Y947601D01*
X1512008Y952423D01*
X1510011Y957245D01*
X1505189Y959242D01*
D02*
G37*
G36*
X1296977Y993279D02*
X1287363Y983665D01*
X1329023Y942005D01*
X1338637Y951619D01*
X1296977Y993279D01*
D02*
G37*
G36*
X1496071Y935948D02*
X1494693Y935378D01*
X1494123Y934000D01*
X1494693Y932622D01*
X1496071Y932052D01*
X1497449Y932622D01*
X1498019Y934000D01*
X1497449Y935378D01*
X1496071Y935948D01*
D02*
G37*
G36*
X1490000Y929948D02*
X1488622Y929378D01*
X1488052Y928000D01*
X1488622Y926622D01*
X1490000Y926052D01*
X1491378Y926622D01*
X1491948Y928000D01*
X1491378Y929378D01*
X1490000Y929948D01*
D02*
G37*
G36*
X1498000Y928948D02*
X1496622Y928378D01*
X1496052Y927000D01*
X1496622Y925622D01*
X1498000Y925052D01*
X1499378Y925622D01*
X1499948Y927000D01*
X1499378Y928378D01*
X1498000Y928948D01*
D02*
G37*
G36*
X1504201Y931149D02*
X1502823Y930578D01*
X1502253Y929201D01*
X1502750Y928000D01*
X1502823Y927823D01*
X1503634Y926020D01*
X1503240Y925071D01*
X1503811Y923693D01*
X1505189Y923123D01*
X1506566Y923693D01*
X1507137Y925071D01*
X1506640Y926271D01*
X1506566Y926449D01*
X1505756Y928251D01*
X1506149Y929201D01*
X1505578Y930578D01*
X1504201Y931149D01*
D02*
G37*
G36*
X1522867Y947796D02*
X1517872Y946803D01*
X1513638Y943974D01*
X1510809Y939740D01*
X1509816Y934745D01*
X1510809Y929751D01*
X1513638Y925517D01*
X1517872Y922688D01*
X1522867Y921695D01*
X1527861Y922688D01*
X1532095Y925517D01*
X1534924Y929751D01*
X1535918Y934745D01*
X1534924Y939740D01*
X1532095Y943974D01*
X1527861Y946803D01*
X1522867Y947796D01*
D02*
G37*
G36*
X1499000Y920948D02*
X1497622Y920378D01*
X1497052Y919000D01*
X1497622Y917622D01*
X1499000Y917052D01*
X1500378Y917622D01*
X1500948Y919000D01*
X1500378Y920378D01*
X1499000Y920948D01*
D02*
G37*
G36*
X1401910Y918625D02*
X1393644Y915201D01*
X1390220Y906935D01*
X1393644Y898669D01*
X1401910Y895245D01*
X1410175Y898669D01*
X1413599Y906935D01*
X1410175Y915201D01*
X1401910Y918625D01*
D02*
G37*
%LPD*%
G36*
X1379480Y1209520D02*
X1355120Y1185161D01*
X1349141Y1191141D01*
X1339536Y1181535D01*
X1332536Y1188536D01*
X1344220Y1200220D01*
X1319277Y1225164D01*
X1325221Y1229721D01*
X1333700Y1236220D01*
X1345983Y1243017D01*
X1379480Y1209520D01*
D02*
G37*
G36*
X1377439Y1167562D02*
X1396213Y1148787D01*
X1395744Y1146428D01*
X1395622Y1146378D01*
X1395052Y1145000D01*
X1395622Y1143622D01*
X1396530Y1143246D01*
X1397000Y1143052D01*
X1398378Y1143622D01*
X1398428Y1143744D01*
X1400787Y1144213D01*
X1407914Y1137086D01*
X1406781Y1135390D01*
X1406400Y1135548D01*
X1405022Y1134978D01*
X1404452Y1133600D01*
X1404477Y1133539D01*
X1402781Y1132406D01*
X1374791Y1160396D01*
Y1164046D01*
X1374855Y1164201D01*
X1374855Y1164201D01*
Y1166728D01*
X1375185Y1167447D01*
X1376118Y1167607D01*
X1377439Y1167562D01*
D02*
G37*
G36*
X1455428Y928500D02*
Y917368D01*
X1453877Y915817D01*
X1453643Y915720D01*
X1439765Y901842D01*
X1437405Y902311D01*
X1437378Y902378D01*
X1436724Y902648D01*
X1436043Y904796D01*
X1450305Y919058D01*
X1451034Y920818D01*
X1450305Y922579D01*
X1448183Y924700D01*
X1446423Y925429D01*
X1444663Y924700D01*
X1444483Y924521D01*
X1442378Y924378D01*
X1441000Y924948D01*
X1439975Y926689D01*
X1441325Y928038D01*
X1442054Y929799D01*
X1441385Y931413D01*
X1441654Y932061D01*
Y939445D01*
X1442910Y940252D01*
X1443502Y940426D01*
X1455428Y928500D01*
D02*
G37*
G54D11*
X1252000Y1108000D02*
X1275098Y1131098D01*
X1252000Y1046000D02*
Y1108000D01*
X1249000Y1043000D02*
X1252000Y1046000D01*
X1279800Y1055957D02*
X1283672Y1059828D01*
X1279800Y1049800D02*
Y1055957D01*
X1262000Y1032000D02*
X1279800Y1049800D01*
X1253000Y1032000D02*
X1262000D01*
X1249000Y1036000D02*
X1253000Y1032000D01*
X1249000Y1036000D02*
Y1043000D01*
X1308144Y1138644D02*
Y1153692D01*
X1300598Y1131098D02*
X1308144Y1138644D01*
X1275098Y1131098D02*
X1300598D01*
X1288044Y1137338D02*
X1296602D01*
X1283902Y1141481D02*
X1288044Y1137338D01*
X1283902Y1141481D02*
Y1154850D01*
X1478172Y952568D02*
Y954830D01*
X1470031Y962972D02*
X1478172Y954830D01*
X1470031Y962972D02*
Y975969D01*
X1574127Y1057453D02*
X1581626Y1064952D01*
X1567536Y1050862D02*
X1574127Y1057453D01*
X1578580Y1053000D01*
X1431315Y1037417D02*
Y1043999D01*
X1427315Y1048000D02*
X1431315Y1043999D01*
X1426079Y1048000D02*
X1427315D01*
X1460500Y985500D02*
X1470031Y975969D01*
X1442479Y985500D02*
X1460500D01*
X1437979Y981000D02*
X1442479Y985500D01*
X1453000Y1147000D02*
X1465000Y1159000D01*
X1453000Y1093596D02*
Y1147000D01*
X1443869Y1084465D02*
X1453000Y1093596D01*
X1396093Y1219937D02*
X1408500D01*
X1372843Y1196687D02*
X1396093Y1219937D01*
X1372843Y1166792D02*
Y1196687D01*
X1448820Y993465D02*
X1454678Y999322D01*
X1439979Y1033424D02*
Y1044712D01*
X1433691Y1051000D02*
X1439979Y1044712D01*
X1423434Y1050645D02*
X1426079Y1048000D01*
X1412315Y1069000D02*
X1415584Y1065731D01*
X1407071Y1069000D02*
X1412315D01*
X1390535Y1052464D02*
X1407071Y1069000D01*
X1565039Y1101540D02*
X1575579Y1091000D01*
X1576000D01*
X1526573Y1122046D02*
Y1123983D01*
X1518000Y1132556D02*
X1526573Y1123983D01*
X1518000Y1132556D02*
Y1136000D01*
X1469192Y943587D02*
X1478172Y952568D01*
X1460212Y979000D02*
X1462000Y977212D01*
Y973846D02*
Y977212D01*
X1451232Y963078D02*
X1462000Y973846D01*
X1417553Y962034D02*
X1439706Y939882D01*
X1384172Y962034D02*
X1417553D01*
X1380542Y965665D02*
X1384172Y962034D01*
X1439706Y932061D02*
Y939882D01*
X1430726Y923081D02*
X1439706Y932061D01*
X1328000Y1132681D02*
X1334702Y1139383D01*
X1328000Y1095000D02*
Y1132681D01*
X1423434Y1050645D02*
Y1058000D01*
X1502576Y1060050D02*
X1507832D01*
X1513465Y1054417D01*
X1487000Y1049000D02*
X1491525D01*
X1502576Y1060050D01*
X1465967Y1070033D02*
X1487000Y1049000D01*
X1448983Y1060074D02*
X1458942Y1070033D01*
X1465967D01*
X1443869Y1060074D02*
X1448983D01*
X1524000Y1214000D02*
X1524500D01*
X1528500Y1218000D01*
X1529000D01*
X1521000Y1221000D02*
Y1227000D01*
X1519000Y1219000D02*
X1521000Y1221000D01*
X1529000Y1208000D02*
X1536000D01*
X1537000Y1209000D01*
X1524000Y1203000D02*
X1529000Y1208000D01*
X1519000Y1219000D02*
X1519000D01*
X1514000Y1214000D02*
X1519000Y1219000D01*
X1519000Y1209000D02*
X1524000Y1214000D01*
X1519000Y1209000D02*
Y1209000D01*
X1372843Y1159589D02*
Y1164137D01*
X1372907Y1164201D01*
Y1166728D01*
X1372843Y1166792D02*
X1372907Y1166728D01*
X1372843Y1159589D02*
X1404271Y1128161D01*
X1442000Y1110000D02*
Y1119096D01*
X1438212Y1122884D02*
X1442000Y1119096D01*
X1382483Y1030929D02*
X1386071D01*
X1379794Y1028239D02*
X1382483Y1030929D01*
X1374343Y1028239D02*
X1379794D01*
X1386071Y1030929D02*
X1422123Y1066980D01*
Y1072270D01*
X1374343Y1015456D02*
X1386349Y1003450D01*
X1426898Y1044000D01*
X1386349Y1003450D02*
X1390211Y999588D01*
X1442000Y1091579D02*
Y1110000D01*
Y1091579D02*
X1442352Y1091227D01*
Y1089813D02*
Y1091227D01*
X1502576Y1066000D02*
X1502697D01*
X1498542Y1070033D02*
X1502576Y1066000D01*
X1497648Y1070033D02*
X1503575Y1075960D01*
X1487666Y1060050D02*
X1497648Y1070033D01*
X1498542D01*
X1426898Y1061464D02*
Y1065731D01*
X1423434Y1058000D02*
X1426898Y1061464D01*
Y1033000D02*
X1431315Y1037417D01*
X1309302Y1130302D02*
X1312702Y1133702D01*
Y1135000D01*
X1309302Y1113150D02*
Y1130302D01*
X1324010Y1061763D02*
X1330046D01*
X1323637Y1062137D02*
X1324010Y1061763D01*
X1310379Y1048879D02*
X1323637Y1062137D01*
X1408500Y1219937D02*
Y1230500D01*
Y1213000D02*
Y1219937D01*
X1392957Y1077044D02*
Y1083943D01*
X1388230Y1088670D02*
X1392957Y1083943D01*
X1388230Y1088670D02*
Y1091570D01*
X1404271Y1107611D01*
Y1128161D01*
X1484801Y1038000D02*
X1485950D01*
X1468383Y1054417D02*
X1484801Y1038000D01*
X1438212Y1054417D02*
X1468383D01*
X1485950Y1038000D02*
X1488414Y1040465D01*
X1488535D01*
X1476071Y1052929D02*
X1481465Y1047535D01*
X1476071Y1052929D02*
Y1053536D01*
X1460840Y1118840D02*
X1473000Y1131000D01*
Y1152000D01*
X1481496Y1128343D02*
Y1153000D01*
Y1128343D02*
X1495000Y1114839D01*
X1531441Y1092559D02*
X1549231D01*
X1497000Y1127000D02*
X1531441Y1092559D01*
X1497000Y1127000D02*
Y1165000D01*
X1480200Y1181800D02*
X1497000Y1165000D01*
X1471779Y1181800D02*
X1480200D01*
X1454564Y1164585D02*
X1471779Y1181800D01*
X1505000Y1130000D02*
Y1171000D01*
X1471000Y1205000D02*
X1505000Y1171000D01*
X1417900Y1205000D02*
X1471000D01*
X1440879Y1150900D02*
X1454564Y1164585D01*
X1505000Y1130000D02*
X1528000Y1107000D01*
X1403500Y1190600D02*
X1417900Y1205000D01*
X1528000Y1107000D02*
X1540033D01*
X1472153Y1077927D02*
X1495000Y1100773D01*
Y1114839D01*
X1455182Y1084465D02*
X1460840Y1090123D01*
Y1118840D01*
X1390253Y985404D02*
Y999077D01*
X1418500Y985500D02*
X1423000Y981000D01*
X1414000Y990000D02*
X1418500Y985500D01*
X1403535Y971000D02*
X1418035Y985500D01*
X1418500D01*
X1372343Y968000D02*
X1375343Y971000D01*
X1403535D01*
X1363000Y968000D02*
X1372343D01*
X1359465Y971535D02*
X1363000Y968000D01*
X1359111Y983182D02*
X1359465Y983536D01*
X1359111Y981768D02*
Y983182D01*
Y981768D02*
X1359465Y981414D01*
Y971535D02*
Y981414D01*
X1358000Y1070314D02*
X1381343Y1093657D01*
X1384000Y956000D02*
X1398958Y941041D01*
X1361000Y956000D02*
X1384000D01*
X1343000Y974000D02*
X1361000Y956000D01*
X1343000Y974000D02*
Y1021000D01*
X1422536Y1074050D02*
Y1075464D01*
X1422123Y1073638D02*
X1422536Y1074050D01*
X1422123Y1072270D02*
Y1073638D01*
X1440938Y1089813D02*
X1442352D01*
X1439483Y1088358D02*
X1440938Y1089813D01*
X1438212Y1088358D02*
X1439483D01*
X1434556Y1082465D02*
X1435558D01*
X1432555Y1084465D02*
X1434556Y1082465D01*
X1422830D02*
X1424245D01*
X1421712Y1083583D02*
X1422830Y1082465D01*
X1421241Y1083583D02*
X1421712D01*
X1415111Y1082182D02*
X1415465Y1082535D01*
X1415111Y1080768D02*
Y1082182D01*
Y1080768D02*
X1415585Y1080294D01*
Y1077927D02*
Y1080294D01*
X1420111Y1090475D02*
X1420464Y1090122D01*
X1418697Y1090475D02*
X1420111D01*
X1418343Y1090122D02*
X1418697Y1090475D01*
X1416466Y1090122D02*
X1418343D01*
X1415585Y1089240D02*
X1416466Y1090122D01*
X1427182Y1097546D02*
X1427535Y1097193D01*
X1425768Y1097546D02*
X1427182D01*
X1425414Y1097193D02*
X1425768Y1097546D01*
X1423434Y1097193D02*
X1425414D01*
X1421241Y1095000D02*
X1423434Y1097193D01*
X1429901Y1089536D02*
X1431315D01*
X1429315Y1090122D02*
X1429901Y1089536D01*
X1426898Y1090122D02*
X1429315D01*
X1383000Y1192000D02*
X1393000Y1202000D01*
X1378584Y1169171D02*
Y1192000D01*
X1383000Y1171000D02*
Y1192000D01*
X1378584Y1169171D02*
X1415585Y1132171D01*
X1383000Y1171000D02*
X1420000Y1134000D01*
X1409927Y1090122D02*
X1420000Y1100194D01*
Y1134000D01*
X1404271Y1090122D02*
X1409927D01*
X1399144D02*
X1415585Y1106563D01*
Y1132171D01*
X1392957Y1090122D02*
X1399144D01*
X1398614Y1095779D02*
X1409408Y1106573D01*
Y1123300D01*
X1358000Y1036000D02*
Y1070314D01*
X1343000Y1021000D02*
X1358000Y1036000D01*
X1378500Y1096500D02*
X1381343Y1093657D01*
X1502160Y983804D02*
Y999406D01*
Y983804D02*
X1520428Y965536D01*
X1502160Y999406D02*
X1507753Y1005000D01*
X1509062D01*
X1526682Y965889D02*
X1527035Y965536D01*
X1525267Y965889D02*
X1526682D01*
X1524914Y965536D02*
X1525267Y965889D01*
X1520428Y965536D02*
X1524914D01*
X1527035D02*
X1531571Y961000D01*
X1534000D01*
X1510000Y992000D02*
X1520071D01*
X1528535Y983536D01*
X1515000Y982929D02*
X1521465Y976464D01*
X1377000Y1065000D02*
Y1065098D01*
X1387301Y1075399D02*
Y1083583D01*
X1377000Y1065098D02*
X1387301Y1075399D01*
X1562494Y1157967D02*
X1564521Y1155940D01*
X1567295D01*
X1569322Y1157967D01*
X1577033D01*
X1593000Y1142000D01*
X1341700Y1063800D02*
X1345481Y1067581D01*
X1328000Y1095000D02*
X1345481Y1077519D01*
Y1067581D02*
Y1077519D01*
X1334702Y1139383D02*
Y1154850D01*
X1308144Y1153692D02*
X1309302Y1154850D01*
X1296602Y1113150D02*
Y1128298D01*
X1342000Y1105621D02*
X1348293Y1099328D01*
X1342000Y1127100D02*
X1347000Y1132100D01*
X1342000Y1105621D02*
Y1127100D01*
X1351881Y1111500D02*
X1363557D01*
X1345481Y1117900D02*
X1351881Y1111500D01*
X1354657Y1092964D02*
X1356778D01*
X1359063Y1095249D01*
X1359686D01*
X1366815Y1102379D01*
X1410738Y939015D02*
X1412765Y941041D01*
X1407963Y939015D02*
X1410738D01*
X1405936Y941041D02*
X1407963Y939015D01*
X1398958Y941041D02*
X1405936D01*
X1451232Y961548D02*
Y963078D01*
X1439979Y1013464D02*
Y1015485D01*
X1434465Y1021000D02*
X1439979Y1015485D01*
X1414000Y1021000D02*
X1421239Y1028239D01*
X1414000Y990000D02*
Y1021000D01*
X1423000Y981000D02*
X1437979D01*
X1466000Y922435D02*
X1478172Y934607D01*
X1466000Y922000D02*
Y922435D01*
X1283902Y1113150D02*
X1284000Y1113052D01*
Y1097000D02*
Y1113052D01*
X1540033Y1107000D02*
X1554032Y1121000D01*
X1563539D01*
X1574020Y1110519D01*
X1554032Y1094586D02*
X1556059Y1092559D01*
X1551258Y1094586D02*
X1554032D01*
X1549231Y1092559D02*
X1551258Y1094586D01*
X1580460Y1140000D02*
X1591980Y1128480D01*
X1578000Y1140000D02*
X1580460D01*
X1420000Y1013445D02*
X1439979Y1033424D01*
X1420000Y994000D02*
X1427000Y987000D01*
X1420000Y994000D02*
Y1013445D01*
X1427000Y987000D02*
X1435071D01*
X1441535Y993465D01*
X1439979Y1013464D02*
X1455889Y1029374D01*
X1470031D01*
X1441535Y993465D02*
X1441889Y993818D01*
X1443303D01*
X1443657Y993465D01*
X1448820D01*
X1454678Y999322D02*
X1463000Y991000D01*
X1465000D01*
X1472465Y998465D01*
X1503575Y1075960D02*
X1517717D01*
X1384172Y1058829D02*
X1392957Y1067614D01*
Y1071387D01*
X1406035Y1084465D01*
X1409928D01*
X1513465Y1040465D02*
X1520465Y1047465D01*
X1507435Y1040465D02*
X1513465D01*
X1501808Y1045908D02*
X1501992D01*
X1507435Y1040465D01*
X1527182Y1054889D02*
X1527536Y1054536D01*
X1527182Y1054889D02*
Y1056303D01*
X1527536Y1056657D01*
Y1066142D01*
X1517717Y1075960D02*
X1527536Y1066142D01*
X1488535Y1040465D02*
X1488889Y1040818D01*
X1490303D01*
X1490657Y1040465D01*
X1496180D01*
X1501624Y1045908D01*
X1501808D01*
X1360201Y1001040D02*
Y1001314D01*
X1354818Y995657D02*
X1360201Y1001040D01*
X1354818Y988182D02*
X1359465Y983536D01*
X1354818Y988182D02*
Y995657D01*
X1366535Y976465D02*
X1366889Y976818D01*
X1368303D01*
X1368657Y976465D01*
X1381314D01*
X1390253Y985404D01*
X1361535Y1020536D02*
X1366000Y1025000D01*
X1354465Y1013465D02*
X1354818Y1013111D01*
Y1011697D02*
Y1013111D01*
X1354465Y1011343D02*
X1354818Y1011697D01*
X1354465Y1007050D02*
Y1011343D01*
Y1007050D02*
X1360201Y1001314D01*
X1479182Y1005889D02*
X1479536Y1005536D01*
X1479182Y1005889D02*
Y1007303D01*
X1479536Y1007657D01*
Y1019870D01*
X1470031Y1029374D02*
X1479536Y1019870D01*
X1434465Y1000464D02*
Y1000535D01*
X1429000Y995000D02*
X1434465Y1000464D01*
X1513000Y1146000D02*
X1527000Y1160000D01*
X1542500D02*
X1553514Y1148986D01*
X1527000Y1160000D02*
X1542500D01*
X1522000Y1144579D02*
X1535553Y1131026D01*
X1522000Y1144579D02*
Y1144628D01*
X1519964Y958464D02*
X1527429Y951000D01*
X1537000D01*
X1538611Y994318D02*
X1538965Y993964D01*
X1537197Y994318D02*
X1538611D01*
X1536843Y993964D02*
X1537197Y994318D01*
X1527899Y993964D02*
X1536843D01*
X1527722Y994142D02*
X1527899Y993964D01*
X1515000Y982929D02*
Y983000D01*
X1553429Y1001035D02*
X1555022Y1002629D01*
X1546035Y1001035D02*
X1546389Y1000682D01*
X1547803D01*
X1548157Y1001035D01*
X1553429D01*
X1545036Y983536D02*
X1545389Y983182D01*
Y981768D02*
Y983182D01*
X1545036Y981414D02*
X1545389Y981768D01*
X1545036Y970964D02*
Y981414D01*
Y970964D02*
X1548000Y968000D01*
X1457677Y1177669D02*
Y1184181D01*
X1452879Y1188979D02*
X1457677Y1184181D01*
X1341700Y1051700D02*
Y1063800D01*
X1329000Y1039000D02*
X1341700Y1051700D01*
X1326000Y1039000D02*
X1329000D01*
X1421000Y1213000D02*
X1421500D01*
X1422500Y1212000D01*
Y1211500D02*
Y1212000D01*
Y1211500D02*
X1424200Y1209800D01*
X1431500D01*
X1398500Y1212500D02*
Y1213000D01*
Y1212500D02*
X1399500Y1211500D01*
X1400000D01*
X1407500Y1204000D01*
X1407621D01*
X1408500Y1230500D02*
X1409500Y1231500D01*
X1420500Y1223000D02*
X1421000D01*
X1419500Y1224000D02*
X1420500Y1223000D01*
X1419500Y1224000D02*
Y1224500D01*
X1416328Y1227672D02*
X1419500Y1224500D01*
X1413328Y1227672D02*
X1416328D01*
X1409500Y1231500D02*
X1413328Y1227672D01*
X1396379Y1129956D02*
Y1130479D01*
X1293000Y1093000D02*
X1305125Y1080875D01*
Y1077009D02*
Y1080875D01*
X1268000Y1072500D02*
X1288500Y1093000D01*
X1293000D01*
X1268000Y1051000D02*
Y1072500D01*
X1256000Y1039000D02*
X1268000Y1051000D01*
X1554000Y1048000D02*
Y1059000D01*
Y1048000D02*
X1554000Y1048000D01*
X1560464Y1043071D02*
Y1043465D01*
X1555393Y1038000D02*
X1560464Y1043071D01*
X1567536Y1050535D02*
Y1050862D01*
X1564000Y1054071D02*
Y1059000D01*
Y1054071D02*
X1567536Y1050535D01*
X1448700Y1181800D02*
X1454564Y1175936D01*
Y1164585D02*
Y1175936D01*
X1439100Y1150900D02*
X1440879D01*
X1435000Y1155000D02*
X1439100Y1150900D01*
X1335700Y1069800D02*
X1341700Y1063800D01*
X1322000Y1043000D02*
X1326000Y1039000D01*
X1398800Y1106100D02*
Y1115366D01*
X1390866Y1123300D02*
X1398800Y1115366D01*
X1361232Y1123300D02*
X1390866D01*
X1385200Y1092500D02*
X1398800Y1106100D01*
X1382500Y1092500D02*
X1385200D01*
X1378500Y1096500D02*
X1382500Y1092500D01*
X1420057Y1170000D02*
X1426357Y1176300D01*
X1409408Y1170000D02*
X1420057D01*
X1400100Y1179308D02*
X1409408Y1170000D01*
X1452866Y1188966D02*
X1452879Y1188979D01*
X1429343Y1188966D02*
X1452866D01*
X1429300Y1189009D02*
X1429343Y1188966D01*
X1418125Y1189009D02*
X1429300D01*
X1411960Y1182843D02*
X1418125Y1189009D01*
X1417733Y1181800D02*
X1448700D01*
X1413601Y1177669D02*
X1417733Y1181800D01*
X1392800Y1179900D02*
X1403500Y1190600D01*
X1392800Y1175700D02*
Y1179900D01*
Y1175700D02*
X1396672Y1171829D01*
X1436229Y1173729D02*
X1447400D01*
X1423379Y1160879D02*
X1436229Y1173729D01*
X1403035Y1165464D02*
X1407621Y1160879D01*
X1423315D02*
X1423379D01*
X1407621D02*
X1423315D01*
X1363557Y1111500D02*
X1369857Y1117800D01*
X1396366Y1130466D02*
X1396379Y1130479D01*
X1372843Y1130466D02*
X1396366D01*
X1372800Y1130509D02*
X1372843Y1130466D01*
X1361625Y1130509D02*
X1372800D01*
X1355460Y1124343D02*
X1361625Y1130509D01*
X1357101Y1119168D02*
X1361232Y1123300D01*
X1379729Y1115229D02*
X1390900D01*
X1366879Y1102379D02*
X1379729Y1115229D01*
X1366815Y1102379D02*
X1366879D01*
X1290036Y1053464D02*
X1294621Y1048879D01*
X1310315D01*
X1304733Y1069800D02*
X1335700D01*
X1300601Y1065668D02*
X1304733Y1069800D01*
X1339866Y1076966D02*
X1339879Y1076979D01*
X1316343Y1076966D02*
X1339866D01*
X1316300Y1077009D02*
X1316343Y1076966D01*
X1310315Y1048879D02*
X1310379D01*
X1298960Y1070843D02*
X1305125Y1077009D01*
X1316300D01*
X1307057Y1058000D02*
X1313357Y1064300D01*
X1296408Y1058000D02*
X1307057D01*
X1287100Y1067308D02*
X1296408Y1058000D01*
X1279800Y1067900D02*
X1290500Y1078600D01*
X1279800Y1063700D02*
Y1067900D01*
Y1063700D02*
X1283672Y1059828D01*
X1291322Y983665D02*
X1296977Y989320D01*
X1300747Y985550D01*
Y974240D02*
X1299805Y977067D01*
Y980837D01*
X1301690Y982722D01*
X1303575D01*
X1305460Y980837D01*
X1305460Y978952D01*
X1304517Y978010D01*
X1302632Y978010D01*
X1299805Y980837D01*
G54D12*
X1322000Y1132573D02*
X1326232Y1136806D01*
X1322000Y1113152D02*
Y1132573D01*
X1363464Y1165464D02*
X1363733D01*
X1342000Y1144000D02*
X1363464Y1165464D01*
X1342000Y1139000D02*
Y1144000D01*
X1322000Y1113152D02*
X1322002Y1113150D01*
X1334702Y1131702D02*
X1342000Y1139000D01*
X1334702Y1113150D02*
Y1131702D01*
X1470496Y1108839D02*
X1475700Y1103635D01*
Y1096700D02*
Y1103635D01*
X1456044Y1077044D02*
X1475700Y1096700D01*
X1479000Y1112343D02*
X1481496Y1114839D01*
X1479000Y1095205D02*
Y1112343D01*
X1455182Y1071387D02*
X1479000Y1095205D01*
X1449526Y1077044D02*
X1456044D01*
G54D19*
X1520465Y1047465D02*
D03*
X1527536Y1054536D02*
D03*
X1472465Y998465D02*
D03*
X1479536Y1005536D02*
D03*
X1361535Y1020536D02*
D03*
X1354465Y1013465D02*
D03*
X1424245Y1082465D02*
D03*
X1431315Y1089536D02*
D03*
X1427535Y1097193D02*
D03*
X1420464Y1090122D02*
D03*
X1435558Y1082465D02*
D03*
X1442629Y1089536D02*
D03*
X1567536Y1050535D02*
D03*
X1560464Y1043465D02*
D03*
X1538965Y993964D02*
D03*
X1546035Y1001035D02*
D03*
X1545036Y983536D02*
D03*
X1537964Y976464D02*
D03*
X1521465Y976464D02*
D03*
X1528535Y983536D02*
D03*
X1519964Y958464D02*
D03*
X1527035Y965536D02*
D03*
G54D20*
X1372283Y1044717D02*
D03*
X1385718Y1031282D02*
D03*
G54D21*
X1408500Y1213000D02*
D03*
X1398500Y1213000D02*
D03*
X1564000Y1059000D02*
D03*
X1554000Y1059000D02*
D03*
G54D22*
X1481465Y1047535D02*
D03*
X1488535Y1040465D02*
D03*
X1434465Y1000535D02*
D03*
X1441535Y993465D02*
D03*
X1415465Y1082535D02*
D03*
X1422536Y1075464D02*
D03*
X1366535Y976465D02*
D03*
X1359465Y983536D02*
D03*
G54D24*
X1479791Y1244000D02*
D03*
X1266000Y1010000D02*
D03*
X1548000Y955000D02*
D03*
X1421745Y903000D02*
D03*
G54D30*
X1317000Y1182000D02*
D03*
X1327000Y1172000D02*
D03*
Y1182000D02*
D03*
X1337000Y1172000D02*
D03*
X1598000Y1109044D02*
D03*
X1597000Y1036000D02*
D03*
Y1026000D02*
D03*
X1587000Y1036000D02*
D03*
X1577000D02*
D03*
Y1026000D02*
D03*
X1587000D02*
D03*
X1275970Y978929D02*
D03*
X1268899Y986000D02*
D03*
X1283041Y986000D02*
D03*
X1290112Y993071D02*
D03*
X1283041Y1000142D02*
D03*
X1275970Y993071D02*
D03*
X1334142Y919929D02*
D03*
X1327071Y927000D02*
D03*
X1341213Y927000D02*
D03*
X1348284Y934071D02*
D03*
X1341213Y941142D02*
D03*
X1334142Y934071D02*
D03*
X1389929Y1222929D02*
D03*
X1382858Y1230000D02*
D03*
X1397000Y1230000D02*
D03*
X1389929Y1237071D02*
D03*
X1330960Y1216702D02*
D03*
X1350960Y1196702D02*
D03*
X1340960Y1206702D02*
D03*
X1350960D02*
D03*
X1330960Y1226702D02*
D03*
X1340960Y1216702D02*
D03*
X1360960Y1196702D02*
D03*
X1370960Y1206702D02*
D03*
X1350960Y1226702D02*
D03*
X1340960Y1236702D02*
D03*
X1360960Y1216702D02*
D03*
X1350960D02*
D03*
X1360960Y1206702D02*
D03*
X1340960Y1226702D02*
D03*
G54D31*
X1369201Y1249201D02*
D03*
X1589201Y1089201D02*
D03*
Y1049201D02*
D03*
X1569201Y1009201D02*
D03*
X1579201Y989201D02*
D03*
X1549201Y1209201D02*
D03*
Y1169201D02*
D03*
X1559201Y989201D02*
D03*
Y949201D02*
D03*
X1539201Y1069201D02*
D03*
Y1029201D02*
D03*
X1519201Y1189201D02*
D03*
X1509201Y1009201D02*
D03*
X1519201Y949201D02*
D03*
X1509201Y929201D02*
D03*
X1499201Y1029201D02*
D03*
X1489201Y1009201D02*
D03*
X1499201Y909201D02*
D03*
X1469201Y1209201D02*
D03*
X1479201Y1189201D02*
D03*
X1469201Y1049201D02*
D03*
X1449201Y1009201D02*
D03*
Y929201D02*
D03*
X1399201Y949201D02*
D03*
X1379201Y989201D02*
D03*
X1369201Y929201D02*
D03*
X1379201Y909201D02*
D03*
X1349201Y1169201D02*
D03*
X1359201Y1149201D02*
D03*
X1349201Y1009201D02*
D03*
X1359201Y909201D02*
D03*
X1329201Y1089201D02*
D03*
Y1009201D02*
D03*
X1339201Y989201D02*
D03*
X1309201Y1209201D02*
D03*
X1319201Y1029201D02*
D03*
X1309201Y1009201D02*
D03*
X1319201Y989201D02*
D03*
X1309201Y969201D02*
D03*
X1319201Y949201D02*
D03*
X1299201Y1029201D02*
D03*
X1289201Y969201D02*
D03*
X1299201Y949201D02*
D03*
X1279201Y1029201D02*
D03*
X1465747Y1146000D02*
D03*
X1504201Y929201D02*
D03*
X1261998Y1158998D02*
D03*
X1267998Y1169998D02*
D03*
X1269997Y1147998D02*
D03*
X1262998Y1137998D02*
D03*
X1256998Y1148998D02*
D03*
X1275997Y1138998D02*
D03*
X1274201Y1159201D02*
D03*
X1573000Y1176000D02*
D03*
X1482000Y1165943D02*
D03*
X1418000Y977000D02*
D03*
X1328364Y1025000D02*
D03*
X1322000Y1017000D02*
D03*
X1289447Y1036283D02*
D03*
X1283041Y1029212D02*
D03*
X1366000Y1025000D02*
D03*
X1480000Y910000D02*
D03*
X1472000Y911000D02*
D03*
X1481000Y902000D02*
D03*
X1478071Y917000D02*
D03*
X1487189Y908071D02*
D03*
X1505189Y925071D02*
D03*
X1496071Y934000D02*
D03*
X1499000Y919000D02*
D03*
X1490000Y928000D02*
D03*
X1498000Y927000D02*
D03*
X1466000Y973000D02*
D03*
X1441000Y923000D02*
D03*
X1534000Y1151000D02*
D03*
X1593000Y1098000D02*
D03*
X1576000Y1091000D02*
D03*
X1518000Y1136000D02*
D03*
X1385568Y1155000D02*
D03*
X1397000Y1145000D02*
D03*
X1289201Y1189201D02*
D03*
X1259201Y1129201D02*
D03*
X1296602Y1137338D02*
D03*
X1430000Y901000D02*
D03*
X1451232Y979000D02*
D03*
X1381644Y1075710D02*
D03*
X1326232Y1136806D02*
D03*
X1433691Y1051000D02*
D03*
X1426898Y1051140D02*
D03*
X1517000Y1036000D02*
D03*
X1513465Y1054417D02*
D03*
X1501765Y1020927D02*
D03*
X1464000Y1020000D02*
D03*
X1453980Y1021000D02*
D03*
X1524000Y1203000D02*
D03*
X1514000Y1214000D02*
D03*
X1519000Y1209000D02*
D03*
X1363733Y1165464D02*
D03*
X1505000Y1098000D02*
D03*
X1438212Y1122884D02*
D03*
X1374343Y1028239D02*
D03*
X1388230Y1049642D02*
D03*
X1502697Y1066000D02*
D03*
X1489373Y1111000D02*
D03*
X1468000Y1097113D02*
D03*
X1535000Y1097000D02*
D03*
X1512000Y1065000D02*
D03*
X1486000Y990669D02*
D03*
X1312702Y1135000D02*
D03*
X1426898Y1135348D02*
D03*
X1330046Y1061763D02*
D03*
X1294000Y1025000D02*
D03*
X1312000Y1035000D02*
D03*
X1509611Y1014280D02*
D03*
X1512000Y1101000D02*
D03*
X1476071Y1053536D02*
D03*
X1465000Y1159000D02*
D03*
X1473000Y1152000D02*
D03*
X1481496Y1153000D02*
D03*
X1489244Y1159586D02*
D03*
X1390211Y999588D02*
D03*
X1283000Y1039000D02*
D03*
X1421241Y1083583D02*
D03*
Y1095000D02*
D03*
X1471000Y1216000D02*
D03*
X1378584Y1192000D02*
D03*
X1484000Y1235000D02*
D03*
X1393000Y1202000D02*
D03*
X1409408Y1123300D02*
D03*
X1344000Y1048879D02*
D03*
X1470000Y1058000D02*
D03*
X1340000Y1132100D02*
D03*
X1509062Y1005000D02*
D03*
X1534000Y961000D02*
D03*
X1510000Y992000D02*
D03*
X1462900Y1192100D02*
D03*
X1455900Y1199200D02*
D03*
X1381300Y1089240D02*
D03*
X1377000Y1065000D02*
D03*
X1387301Y1083583D02*
D03*
X1415585Y1077927D02*
D03*
Y1089240D02*
D03*
Y1100554D02*
D03*
X1455183Y1060956D02*
D03*
X1460840Y1066613D02*
D03*
X1472153Y1077927D02*
D03*
X1432555Y1117227D02*
D03*
X1426898Y1112000D02*
D03*
X1527657Y1148889D02*
D03*
X1422000Y1237000D02*
D03*
Y1247000D02*
D03*
X1593000Y1142000D02*
D03*
X1296602Y1128298D02*
D03*
X1380542Y965665D02*
D03*
X1345481Y1117900D02*
D03*
X1426898Y1033000D02*
D03*
X1460212Y979000D02*
D03*
X1436000Y901000D02*
D03*
X1364000Y1065000D02*
D03*
X1434465Y1021000D02*
D03*
X1421239Y1028239D02*
D03*
X1466000Y922000D02*
D03*
X1425000Y973000D02*
D03*
X1403000Y953000D02*
D03*
X1383512Y1104146D02*
D03*
X1284000Y1097000D02*
D03*
X1409928Y1049642D02*
D03*
X1404271Y1044000D02*
D03*
X1578000Y1140000D02*
D03*
X1481496Y1114839D02*
D03*
X1470496Y1108839D02*
D03*
X1426898Y1044000D02*
D03*
X1429000Y995000D02*
D03*
X1539750Y1102289D02*
D03*
X1489373Y1143919D02*
D03*
X1513000Y1146000D02*
D03*
X1522000Y1144628D02*
D03*
X1457677Y1177669D02*
D03*
X1527722Y994142D02*
D03*
X1537000Y951000D02*
D03*
X1555022Y1002629D02*
D03*
X1515000Y983000D02*
D03*
X1578580Y1053000D02*
D03*
X1548000Y968000D02*
D03*
X1256000Y1121000D02*
D03*
X1248719Y1053281D02*
D03*
X1256000Y1061000D02*
D03*
X1407621Y1204000D02*
D03*
X1256000Y1039000D02*
D03*
X1554000Y1048000D02*
D03*
X1555393Y1038000D02*
D03*
X1422123Y1072270D02*
D03*
X1427780Y1077927D02*
D03*
X1433436Y1072270D02*
D03*
X1438212Y1088358D02*
D03*
X1432555Y1084465D02*
D03*
X1426898Y1065731D02*
D03*
X1439094Y1077927D02*
D03*
X1426898Y1090122D02*
D03*
X1438212Y1065731D02*
D03*
X1415584D02*
D03*
X1443869Y1071387D02*
D03*
X1409928Y1084465D02*
D03*
X1443869D02*
D03*
X1421241Y1060074D02*
D03*
X1432555D02*
D03*
X1449526Y1077044D02*
D03*
X1432555Y1095779D02*
D03*
X1409928Y1060074D02*
D03*
X1443869D02*
D03*
X1449526Y1065731D02*
D03*
X1404271Y1090122D02*
D03*
X1438212Y1054417D02*
D03*
X1415584D02*
D03*
X1398614Y1071387D02*
D03*
X1455182D02*
D03*
Y1084465D02*
D03*
X1392957Y1077044D02*
D03*
X1398614Y1095779D02*
D03*
X1392957Y1090122D02*
D03*
X1410280Y1156700D02*
D03*
X1417200Y1148900D02*
D03*
X1395000Y1191900D02*
D03*
X1402410Y1198500D02*
D03*
X1426357Y1176300D02*
D03*
X1400100Y1179308D02*
D03*
X1431500Y1209800D02*
D03*
X1452879Y1188979D02*
D03*
X1429300Y1189009D02*
D03*
X1411960Y1182843D02*
D03*
X1413601Y1177669D02*
D03*
X1441364Y1161364D02*
D03*
X1403500Y1190600D02*
D03*
X1447400Y1173729D02*
D03*
X1423315Y1160879D02*
D03*
X1353780Y1098200D02*
D03*
X1360700Y1090400D02*
D03*
X1406400Y1133600D02*
D03*
X1399400Y1140700D02*
D03*
X1345910Y1140000D02*
D03*
X1369857Y1117800D02*
D03*
X1375000Y1151300D02*
D03*
X1396379Y1130479D02*
D03*
X1372800Y1130509D02*
D03*
X1355460Y1124343D02*
D03*
X1357101Y1119168D02*
D03*
X1347000Y1132100D02*
D03*
X1390900Y1115229D02*
D03*
X1366815Y1102379D02*
D03*
X1349900Y1080100D02*
D03*
X1342900Y1087200D02*
D03*
X1289411Y1086500D02*
D03*
X1282000Y1079900D02*
D03*
X1297280Y1044700D02*
D03*
X1304200Y1036900D02*
D03*
X1300601Y1065668D02*
D03*
X1318500Y1097800D02*
D03*
X1339879Y1076979D02*
D03*
X1310315Y1048879D02*
D03*
X1316300Y1077009D02*
D03*
X1298960Y1070843D02*
D03*
X1290500Y1078600D02*
D03*
X1313357Y1064300D02*
D03*
X1287100Y1067308D02*
D03*
X1328364Y1049364D02*
D03*
G54D38*
X1421000Y1223000D02*
D03*
Y1213000D02*
D03*
G54D41*
X1435000Y1155000D02*
D03*
X1441364Y1161364D02*
D03*
X1378500Y1096500D02*
D03*
X1384864Y1102864D02*
D03*
X1322000Y1043000D02*
D03*
X1328364Y1049364D02*
D03*
G54D49*
X1521000Y1227000D02*
D03*
X1529000Y1218000D02*
D03*
X1537000Y1209000D02*
D03*
G54D88*
X1487511Y970101D02*
D03*
X1522867Y934745D02*
D03*
X1563878Y975757D02*
D03*
X1528523Y1011113D02*
D03*
G54D89*
X1505189Y952423D02*
D03*
X1567414Y999092D02*
D03*
X1551151Y1015355D02*
D03*
G54D90*
X1460212Y952568D02*
X1466681Y959036D01*
Y962007D01*
X1466000Y962688D02*
X1466681Y962007D01*
X1466000Y962688D02*
Y973000D01*
X1439706Y914101D02*
X1442885Y917280D01*
Y920251D01*
X1441057Y922078D02*
X1442885Y920251D01*
X1441057Y922078D02*
Y922943D01*
X1441000Y923000D02*
X1441057Y922943D01*
X1534057Y1150482D02*
X1544533Y1140006D01*
X1534057Y1150482D02*
Y1150943D01*
X1534000Y1151000D02*
X1534057Y1150943D01*
X1583000Y1119500D02*
X1593000Y1109500D01*
Y1098000D02*
Y1109500D01*
X1351881Y1073507D02*
X1353780Y1075406D01*
X1351881Y1056759D02*
Y1073507D01*
X1344000Y1048879D02*
X1351881Y1056759D01*
X1344932Y1094415D02*
X1346735Y1096217D01*
X1344932Y1090561D02*
Y1094415D01*
Y1090561D02*
X1353780Y1081713D01*
X1346735Y1096217D02*
Y1097771D01*
X1348293Y1099328D01*
X1353780Y1075406D02*
Y1081713D01*
X1512000Y1101000D02*
X1536000Y1077000D01*
Y1052000D02*
Y1077000D01*
X1528000Y1044000D02*
X1536000Y1052000D01*
X1523929Y1044000D02*
X1528000D01*
X1520465Y1047465D02*
X1523929Y1044000D01*
G54D91*
X1420000Y1255000D02*
D03*
X1446000Y1253000D02*
D03*
G54D92*
X1401910Y906935D02*
D03*
X1384232Y924613D02*
D03*
G54D105*
X1501808Y1045908D02*
D03*
X1487666Y1060050D02*
D03*
X1454121Y999322D02*
D03*
X1439979Y1013464D02*
D03*
G54D106*
X1517717Y1075960D02*
D03*
X1470031Y1029374D02*
D03*
G54D107*
X1360201Y1001314D02*
D03*
X1374343Y1015456D02*
D03*
G54D108*
X1390253Y985404D02*
D03*
G54D109*
X1390535Y1052464D02*
D03*
X1384172Y1058829D02*
D03*
X1348293Y1099328D02*
D03*
X1354657Y1092964D02*
D03*
X1396672Y1171829D02*
D03*
X1403035Y1165464D02*
D03*
X1283672Y1059828D02*
D03*
X1290036Y1053464D02*
D03*
G54D110*
X1442000Y1129500D02*
D03*
X1442000Y1110500D02*
D03*
G54D111*
X1519000Y1219000D02*
D03*
X1529000Y1208000D02*
D03*
X1524000Y1214000D02*
D03*
G54D112*
X1553514Y1148986D02*
D03*
X1562494Y1157967D02*
D03*
X1544533Y1140006D02*
D03*
X1591980Y1128480D02*
D03*
X1574020Y1110519D02*
D03*
X1526573Y1122046D02*
D03*
X1535553Y1131026D02*
D03*
X1556059Y1092559D02*
D03*
X1565039Y1101540D02*
D03*
X1583000Y1119500D02*
D03*
G54D113*
X1322002Y1113150D02*
D03*
X1334702D02*
D03*
X1296602D02*
D03*
X1309302D02*
D03*
X1283902D02*
D03*
Y1154850D02*
D03*
X1309302D02*
D03*
X1334702D02*
D03*
X1322002D02*
D03*
X1296602D02*
D03*
G54D114*
X1478172Y934607D02*
D03*
X1460212Y952568D02*
D03*
X1448686Y905121D02*
D03*
X1430726Y923081D02*
D03*
X1442251Y970528D02*
D03*
X1451232Y961548D02*
D03*
X1469192Y943587D02*
D03*
X1412765Y941041D02*
D03*
X1421745Y932062D02*
D03*
X1439706Y914101D02*
D03*
G54D115*
X1604757Y1070142D02*
D03*
X1588193Y1008323D02*
D03*
G54D116*
X1570496Y1023417D02*
D03*
X1581626Y1064952D02*
D03*
G54D117*
X1398500Y1252500D02*
D03*
X1462500D02*
D03*
G54D118*
X1452500Y1231500D02*
D03*
X1409500D02*
D03*
G54D119*
X1426000Y891000D02*
X1434565D01*
X1421745Y895255D02*
X1426000Y891000D01*
X1421745Y895255D02*
Y903000D01*
X1434565Y891000D02*
X1448686Y905121D01*
Y905575D01*
X1459000Y915889D01*
X1434465Y954515D02*
X1459000Y929979D01*
Y915889D02*
Y929979D01*
X1434465Y954515D02*
Y962034D01*
X1442251Y969821D02*
Y970528D01*
X1434465Y962034D02*
X1442251Y969821D01*
M02*
