G04*
G04 #@! TF.GenerationSoftware,Altium Limited,Altium Designer,20.0.13 (296)*
G04*
G04 Layer_Physical_Order=4*
G04 Layer_Color=16440176*
%FSLAX44Y44*%
%MOMM*%
G71*
G01*
G75*
%ADD10C,0.1000*%
%ADD11C,0.2000*%
%ADD24C,0.5000*%
%ADD30C,0.3000*%
%ADD31C,0.2000*%
%ADD92C,2.0000*%
%ADD103C,0.8000*%
G36*
X1444702Y1265412D02*
X1475396Y1259816D01*
X1504731Y1249191D01*
X1531888Y1233832D01*
X1544000Y1224000D01*
X1555310Y1215270D01*
X1575044Y1194605D01*
X1591441Y1171203D01*
X1604127Y1145599D01*
X1612813Y1118377D01*
X1617301Y1090157D01*
X1617489Y1061584D01*
X1613372Y1033308D01*
X1605044Y1005974D01*
X1592696Y980205D01*
X1576608Y956590D01*
X1557147Y935667D01*
X1545953Y926790D01*
X1533914Y917071D01*
X1507007Y901785D01*
X1477983Y891053D01*
X1447605Y885157D01*
X1416673Y884254D01*
X1386002Y888366D01*
X1356401Y897386D01*
X1328648Y911076D01*
X1316062Y920076D01*
X1303924Y928755D01*
X1282656Y949690D01*
X1264917Y973689D01*
X1251142Y1000163D01*
X1241670Y1028463D01*
X1236731Y1057895D01*
X1236448Y1087737D01*
X1240828Y1117258D01*
X1249762Y1145732D01*
X1263033Y1172463D01*
X1280314Y1196794D01*
X1301181Y1218128D01*
X1313152Y1227036D01*
X1313153Y1227036D01*
X1313153Y1227036D01*
X1325519Y1236546D01*
X1353071Y1251185D01*
X1382675Y1261035D01*
X1413505Y1265822D01*
X1444702Y1265412D01*
D02*
G37*
%LPC*%
G36*
X1446000Y1259278D02*
X1441561Y1257439D01*
X1439722Y1253000D01*
X1441561Y1248561D01*
X1446000Y1246722D01*
X1450439Y1248561D01*
X1452278Y1253000D01*
X1450439Y1257439D01*
X1446000Y1259278D01*
D02*
G37*
G36*
X1420000Y1261278D02*
X1415561Y1259439D01*
X1413722Y1255000D01*
X1415561Y1250561D01*
X1418836Y1249204D01*
X1419706Y1248802D01*
X1420052Y1247000D01*
X1420104Y1246874D01*
X1420622Y1245622D01*
X1422000Y1245052D01*
X1423378Y1245622D01*
X1423948Y1247000D01*
X1423378Y1248378D01*
X1423886Y1250332D01*
X1424439Y1250561D01*
X1426278Y1255000D01*
X1424439Y1259439D01*
X1420000Y1261278D01*
D02*
G37*
G36*
X1340960Y1239192D02*
X1339199Y1238463D01*
X1338470Y1236702D01*
X1339199Y1234942D01*
X1340960Y1234213D01*
X1342720Y1234942D01*
X1343449Y1236702D01*
X1342720Y1238463D01*
X1340960Y1239192D01*
D02*
G37*
G36*
X1422000Y1238948D02*
X1420622Y1238378D01*
X1420052Y1237000D01*
X1420487Y1235948D01*
X1419683Y1233948D01*
X1414000D01*
X1414000Y1233948D01*
X1412622Y1233378D01*
X1412622Y1233378D01*
X1391622Y1212378D01*
X1391052Y1211000D01*
X1391052Y1211000D01*
Y1202000D01*
X1391622Y1200622D01*
X1393000Y1200052D01*
X1393925Y1198270D01*
X1389603Y1193948D01*
X1378584D01*
X1377207Y1193378D01*
X1376636Y1192000D01*
X1377207Y1190622D01*
X1378584Y1190052D01*
X1390410D01*
X1390410Y1190052D01*
X1391471Y1190491D01*
X1393622Y1190522D01*
X1395000Y1189952D01*
X1396378Y1190522D01*
X1396572Y1190992D01*
X1396948Y1191900D01*
X1396378Y1193278D01*
X1396057Y1194891D01*
X1403994Y1202828D01*
X1406243Y1202622D01*
X1407621Y1202052D01*
X1408999Y1202622D01*
X1409194Y1203092D01*
X1409569Y1204000D01*
X1408999Y1205378D01*
X1408793Y1207627D01*
X1423217Y1222052D01*
X1462193D01*
X1469622Y1214622D01*
X1469622Y1214622D01*
X1471000Y1214052D01*
X1471428Y1214229D01*
X1472378Y1214622D01*
X1472771Y1215571D01*
X1472948Y1216000D01*
X1472378Y1217378D01*
X1472378Y1217378D01*
X1464378Y1225378D01*
X1463000Y1225948D01*
X1463000Y1225948D01*
X1422411D01*
X1422410Y1225948D01*
X1421033Y1225378D01*
X1421033Y1225378D01*
X1396730Y1201075D01*
X1395280Y1201827D01*
X1394948Y1202122D01*
Y1210193D01*
X1414807Y1230052D01*
X1481000D01*
X1481000Y1230052D01*
X1482378Y1230622D01*
X1485378Y1233622D01*
X1485378Y1233622D01*
X1485948Y1235000D01*
X1485378Y1236378D01*
X1484000Y1236948D01*
X1482622Y1236378D01*
X1482622Y1236378D01*
X1480193Y1233948D01*
X1424317D01*
X1423513Y1235948D01*
X1423948Y1237000D01*
X1423378Y1238378D01*
X1422000Y1238948D01*
D02*
G37*
G36*
X1350960Y1229192D02*
X1349199Y1228463D01*
X1348470Y1226702D01*
X1349199Y1224942D01*
X1350960Y1224213D01*
X1352720Y1224942D01*
X1353449Y1226702D01*
X1352720Y1228463D01*
X1350960Y1229192D01*
D02*
G37*
G36*
X1340960D02*
X1339199Y1228463D01*
X1338470Y1226702D01*
X1339199Y1224942D01*
X1340960Y1224213D01*
X1342720Y1224942D01*
X1343449Y1226702D01*
X1342720Y1228463D01*
X1340960Y1229192D01*
D02*
G37*
G36*
X1330960D02*
X1329199Y1228463D01*
X1328470Y1226702D01*
X1329199Y1224942D01*
X1330960Y1224213D01*
X1332720Y1224942D01*
X1333449Y1226702D01*
X1332720Y1228463D01*
X1330960Y1229192D01*
D02*
G37*
G36*
X1360960Y1219192D02*
X1359199Y1218463D01*
X1358470Y1216702D01*
X1359199Y1214942D01*
X1360960Y1214213D01*
X1362720Y1214942D01*
X1363449Y1216702D01*
X1362720Y1218463D01*
X1360960Y1219192D01*
D02*
G37*
G36*
X1350960D02*
X1349199Y1218463D01*
X1348470Y1216702D01*
X1349199Y1214942D01*
X1350960Y1214213D01*
X1352720Y1214942D01*
X1353449Y1216702D01*
X1352720Y1218463D01*
X1350960Y1219192D01*
D02*
G37*
G36*
X1340960D02*
X1339199Y1218463D01*
X1338470Y1216702D01*
X1339199Y1214942D01*
X1340960Y1214213D01*
X1342720Y1214942D01*
X1343449Y1216702D01*
X1342720Y1218463D01*
X1340960Y1219192D01*
D02*
G37*
G36*
X1514000Y1215948D02*
X1512622Y1215378D01*
X1512052Y1214000D01*
X1512622Y1212622D01*
X1514000Y1212052D01*
X1515378Y1212622D01*
X1515948Y1214000D01*
X1515378Y1215378D01*
X1514000Y1215948D01*
D02*
G37*
G36*
X1519000Y1210948D02*
X1517622Y1210378D01*
X1517052Y1209000D01*
X1517622Y1207622D01*
X1519000Y1207052D01*
X1520378Y1207622D01*
X1520948Y1209000D01*
X1520378Y1210378D01*
X1519000Y1210948D01*
D02*
G37*
G36*
X1370960Y1209192D02*
X1369199Y1208463D01*
X1368470Y1206702D01*
X1369199Y1204942D01*
X1370960Y1204213D01*
X1372720Y1204942D01*
X1373449Y1206702D01*
X1372720Y1208463D01*
X1370960Y1209192D01*
D02*
G37*
G36*
X1360960D02*
X1359199Y1208463D01*
X1358470Y1206702D01*
X1359199Y1204942D01*
X1360960Y1204213D01*
X1362720Y1204942D01*
X1363449Y1206702D01*
X1362720Y1208463D01*
X1360960Y1209192D01*
D02*
G37*
G36*
X1350960D02*
X1349199Y1208463D01*
X1348470Y1206702D01*
X1349199Y1204942D01*
X1350960Y1204213D01*
X1352720Y1204942D01*
X1353449Y1206702D01*
X1352720Y1208463D01*
X1350960Y1209192D01*
D02*
G37*
G36*
X1340960D02*
X1339199Y1208463D01*
X1338470Y1206702D01*
X1339199Y1204942D01*
X1340960Y1204213D01*
X1342720Y1204942D01*
X1343449Y1206702D01*
X1342720Y1208463D01*
X1340960Y1209192D01*
D02*
G37*
G36*
X1521000Y1232196D02*
X1517326Y1230674D01*
X1515804Y1227000D01*
X1517326Y1223326D01*
X1521000Y1221805D01*
X1523075Y1222664D01*
X1524148Y1223108D01*
X1525205Y1221382D01*
X1524790Y1220379D01*
X1523804Y1218000D01*
X1525326Y1214326D01*
X1529000Y1212804D01*
X1531075Y1213664D01*
X1532148Y1214108D01*
X1533205Y1212382D01*
X1532790Y1211379D01*
X1531805Y1209000D01*
X1533326Y1205326D01*
X1537000Y1203804D01*
X1540674Y1205326D01*
X1542195Y1209000D01*
X1540674Y1212674D01*
X1537000Y1214195D01*
X1534925Y1213336D01*
X1533852Y1212892D01*
X1532795Y1214618D01*
X1533210Y1215621D01*
X1534196Y1218000D01*
X1532674Y1221674D01*
X1529000Y1223195D01*
X1526925Y1222336D01*
X1525852Y1221892D01*
X1524795Y1223618D01*
X1525210Y1224621D01*
X1526196Y1227000D01*
X1524674Y1230674D01*
X1521000Y1232196D01*
D02*
G37*
G36*
X1524000Y1204948D02*
X1522622Y1204378D01*
X1522052Y1203000D01*
X1522622Y1201622D01*
X1524000Y1201052D01*
X1525378Y1201622D01*
X1525948Y1203000D01*
X1525378Y1204378D01*
X1524000Y1204948D01*
D02*
G37*
G36*
X1360960Y1199192D02*
X1359199Y1198463D01*
X1358470Y1196702D01*
X1359199Y1194942D01*
X1360960Y1194213D01*
X1362720Y1194942D01*
X1363449Y1196702D01*
X1362720Y1198463D01*
X1360960Y1199192D01*
D02*
G37*
G36*
X1350960D02*
X1349199Y1198463D01*
X1348470Y1196702D01*
X1349199Y1194942D01*
X1350960Y1194213D01*
X1352720Y1194942D01*
X1353449Y1196702D01*
X1352720Y1198463D01*
X1350960Y1199192D01*
D02*
G37*
G36*
X1462900Y1194048D02*
X1461522Y1193478D01*
X1461469Y1193349D01*
X1459110Y1192880D01*
X1458895Y1193095D01*
X1457900Y1193507D01*
X1436800D01*
X1435805Y1193095D01*
X1432917Y1190207D01*
X1430678Y1190386D01*
X1429300Y1190957D01*
X1427922Y1190386D01*
X1427352Y1189009D01*
X1427922Y1187631D01*
X1428102Y1185392D01*
X1413905Y1171195D01*
X1413493Y1170200D01*
Y1158855D01*
X1411493Y1158146D01*
X1410750Y1158454D01*
X1410280Y1158648D01*
X1408902Y1158078D01*
X1408707Y1157608D01*
X1408331Y1156700D01*
X1408707Y1155792D01*
X1408902Y1155322D01*
X1410280Y1154752D01*
X1410750Y1154946D01*
X1411493Y1155254D01*
X1413493Y1154545D01*
Y1128443D01*
X1413905Y1127448D01*
X1418593Y1122760D01*
Y1108334D01*
X1419005Y1107339D01*
X1430636Y1095708D01*
X1430983Y1094871D01*
X1431177Y1094401D01*
X1432555Y1093831D01*
X1433025Y1094025D01*
X1433933Y1094401D01*
X1434309Y1095309D01*
X1434503Y1095779D01*
X1433933Y1097157D01*
X1433463Y1097351D01*
X1432626Y1097698D01*
X1421407Y1108917D01*
Y1123343D01*
X1420995Y1124338D01*
X1416307Y1129026D01*
Y1169617D01*
X1422561Y1175871D01*
X1424821Y1175303D01*
X1424979Y1174922D01*
X1426357Y1174352D01*
X1427735Y1174922D01*
X1428305Y1176300D01*
X1427735Y1177678D01*
X1427354Y1177835D01*
X1426786Y1180096D01*
X1437383Y1190693D01*
X1449476D01*
X1450931Y1188979D01*
X1451502Y1187602D01*
X1452879Y1187031D01*
X1454257Y1187602D01*
X1454828Y1188979D01*
X1455634Y1189929D01*
X1458003Y1190007D01*
X1477593Y1170417D01*
Y1105000D01*
X1478005Y1104005D01*
X1492593Y1089417D01*
Y1048036D01*
X1482005Y1037448D01*
X1481593Y1036453D01*
Y1031000D01*
X1482005Y1030005D01*
X1507188Y1004822D01*
X1507685Y1003622D01*
X1509062Y1003052D01*
X1510440Y1003622D01*
X1511011Y1005000D01*
X1510440Y1006378D01*
X1509062Y1006948D01*
X1509048Y1006942D01*
X1484407Y1031583D01*
Y1035870D01*
X1494995Y1046458D01*
X1495407Y1047453D01*
Y1090000D01*
X1494995Y1090995D01*
X1480407Y1105583D01*
Y1112163D01*
X1481496Y1112891D01*
X1482874Y1113461D01*
X1483445Y1114839D01*
X1482874Y1116217D01*
X1481496Y1116787D01*
X1480407Y1117515D01*
Y1150324D01*
X1481496Y1151052D01*
X1482874Y1151622D01*
X1483445Y1153000D01*
X1482874Y1154378D01*
X1481496Y1154948D01*
X1480407Y1155676D01*
Y1162490D01*
X1482000Y1163995D01*
X1483378Y1164566D01*
X1483948Y1165943D01*
X1483378Y1167321D01*
X1482000Y1167892D01*
X1480407Y1169397D01*
Y1171000D01*
X1479995Y1171995D01*
X1463680Y1188310D01*
X1464149Y1190669D01*
X1464278Y1190722D01*
X1464848Y1192100D01*
X1464278Y1193478D01*
X1462900Y1194048D01*
D02*
G37*
G36*
X1403500Y1192548D02*
X1402122Y1191978D01*
X1401552Y1190600D01*
X1402122Y1189222D01*
X1403500Y1188652D01*
X1404878Y1189222D01*
X1405448Y1190600D01*
X1404878Y1191978D01*
X1403500Y1192548D01*
D02*
G37*
G36*
X1289201Y1191149D02*
X1287823Y1190578D01*
X1287252Y1189201D01*
X1287823Y1187823D01*
X1289201Y1187252D01*
X1290578Y1187823D01*
X1291149Y1189201D01*
X1290578Y1190578D01*
X1289201Y1191149D01*
D02*
G37*
G36*
X1267998Y1171946D02*
X1266620Y1171375D01*
X1266049Y1169998D01*
X1266620Y1168620D01*
X1267998Y1168049D01*
X1269375Y1168620D01*
X1269946Y1169998D01*
X1269375Y1171375D01*
X1267998Y1171946D01*
D02*
G37*
G36*
X1363733Y1167412D02*
X1362356Y1166842D01*
X1361785Y1165464D01*
X1362356Y1164087D01*
X1363733Y1163516D01*
X1365111Y1164087D01*
X1365682Y1165464D01*
X1365111Y1166842D01*
X1363733Y1167412D01*
D02*
G37*
G36*
X1457157Y1184250D02*
X1440714D01*
X1439719Y1183838D01*
X1419005Y1163125D01*
X1418593Y1162130D01*
Y1132315D01*
X1419005Y1131320D01*
X1425491Y1124834D01*
Y1113307D01*
X1425144Y1112470D01*
X1424950Y1112000D01*
X1425520Y1110622D01*
X1425990Y1110428D01*
X1426898Y1110052D01*
X1427806Y1110428D01*
X1428276Y1110622D01*
X1428846Y1112000D01*
X1428652Y1112470D01*
X1428305Y1113307D01*
Y1125417D01*
X1427893Y1126412D01*
X1421407Y1132898D01*
Y1157556D01*
X1423315Y1158930D01*
X1424693Y1159501D01*
X1425263Y1160879D01*
X1424693Y1162256D01*
X1424402Y1164541D01*
X1441296Y1181436D01*
X1454642D01*
X1456359Y1179436D01*
X1456300Y1179046D01*
X1455729Y1177669D01*
X1456300Y1176291D01*
X1457677Y1175720D01*
X1459055Y1176291D01*
X1461366Y1176644D01*
X1467593Y1170417D01*
Y1161776D01*
X1465593Y1160703D01*
X1465000Y1160948D01*
X1463622Y1160378D01*
X1463428Y1159908D01*
X1463052Y1159000D01*
X1463428Y1158092D01*
X1463622Y1157622D01*
X1465000Y1157052D01*
X1465593Y1157297D01*
X1467593Y1156224D01*
Y1149349D01*
X1465747Y1147948D01*
X1464369Y1147378D01*
X1463799Y1146000D01*
X1464369Y1144622D01*
X1465747Y1144052D01*
X1467593Y1142652D01*
Y1139583D01*
X1465005Y1136995D01*
X1464593Y1136000D01*
Y1105000D01*
X1465005Y1104005D01*
X1468101Y1100909D01*
X1467378Y1098804D01*
X1466622Y1098491D01*
X1466052Y1097113D01*
X1466622Y1095735D01*
X1467092Y1095541D01*
X1468000Y1095165D01*
X1469378Y1095735D01*
X1469691Y1096491D01*
X1471796Y1097214D01*
X1484593Y1084417D01*
Y1050583D01*
X1477005Y1042995D01*
X1476593Y1042000D01*
Y1024000D01*
X1477005Y1023005D01*
X1508081Y991929D01*
X1508622Y990622D01*
X1510000Y990052D01*
X1511378Y990622D01*
X1511948Y992000D01*
X1511378Y993378D01*
X1510071Y993919D01*
X1479407Y1024583D01*
Y1041417D01*
X1486995Y1049005D01*
X1487407Y1050000D01*
Y1085000D01*
X1486995Y1085995D01*
X1468249Y1104741D01*
X1468428Y1105708D01*
X1470496Y1106891D01*
X1471874Y1107461D01*
X1472445Y1108839D01*
X1472069Y1109747D01*
X1471874Y1110217D01*
X1470496Y1110787D01*
X1470026Y1110593D01*
X1469407Y1110336D01*
X1467407Y1111118D01*
Y1135417D01*
X1469995Y1138005D01*
X1470407Y1139000D01*
Y1149224D01*
X1472407Y1150297D01*
X1473000Y1150052D01*
X1474378Y1150622D01*
X1474948Y1152000D01*
X1474378Y1153378D01*
X1473000Y1153948D01*
X1472407Y1153703D01*
X1470407Y1154776D01*
Y1171000D01*
X1469995Y1171995D01*
X1458152Y1183838D01*
X1457157Y1184250D01*
D02*
G37*
G36*
X1274201Y1161149D02*
X1272823Y1160578D01*
X1272252Y1159201D01*
X1272823Y1157823D01*
X1274201Y1157252D01*
X1275578Y1157823D01*
X1276149Y1159201D01*
X1275578Y1160578D01*
X1274201Y1161149D01*
D02*
G37*
G36*
X1261998Y1160946D02*
X1260620Y1160375D01*
X1260049Y1158998D01*
X1260620Y1157620D01*
X1261998Y1157049D01*
X1263375Y1157620D01*
X1263946Y1158998D01*
X1263375Y1160375D01*
X1261998Y1160946D01*
D02*
G37*
G36*
X1534000Y1152948D02*
X1532622Y1152378D01*
X1532052Y1151000D01*
X1532622Y1149622D01*
X1534000Y1149052D01*
X1535378Y1149622D01*
X1535948Y1151000D01*
X1535378Y1152378D01*
X1534000Y1152948D01*
D02*
G37*
G36*
X1256998Y1150946D02*
X1255620Y1150375D01*
X1255049Y1148998D01*
X1255620Y1147620D01*
X1256998Y1147049D01*
X1258375Y1147620D01*
X1258946Y1148998D01*
X1258375Y1150375D01*
X1256998Y1150946D01*
D02*
G37*
G36*
X1527657Y1150838D02*
X1526279Y1150267D01*
X1525709Y1148889D01*
X1526279Y1147512D01*
X1527657Y1146941D01*
X1529035Y1147512D01*
X1529605Y1148889D01*
X1529035Y1150267D01*
X1527657Y1150838D01*
D02*
G37*
G36*
X1269997Y1149946D02*
X1268620Y1149375D01*
X1268049Y1147998D01*
X1268620Y1146620D01*
X1269997Y1146049D01*
X1271375Y1146620D01*
X1271946Y1147998D01*
X1271375Y1149375D01*
X1269997Y1149946D01*
D02*
G37*
G36*
X1513000Y1147948D02*
X1511622Y1147378D01*
X1511052Y1146000D01*
X1511622Y1144622D01*
X1513000Y1144052D01*
X1514378Y1144622D01*
X1514948Y1146000D01*
X1514378Y1147378D01*
X1513000Y1147948D01*
D02*
G37*
G36*
X1397000Y1146948D02*
X1395622Y1146378D01*
X1395052Y1145000D01*
X1395622Y1143622D01*
X1397000Y1143052D01*
X1398378Y1143622D01*
X1398948Y1145000D01*
X1398378Y1146378D01*
X1397000Y1146948D01*
D02*
G37*
G36*
X1522000Y1146576D02*
X1520622Y1146005D01*
X1520052Y1144628D01*
X1520622Y1143250D01*
X1522000Y1142679D01*
X1523378Y1143250D01*
X1523948Y1144628D01*
X1523378Y1146005D01*
X1522000Y1146576D01*
D02*
G37*
G36*
X1489373Y1145868D02*
X1487995Y1145297D01*
X1487424Y1143919D01*
X1487995Y1142542D01*
X1489373Y1141971D01*
X1490750Y1142542D01*
X1491321Y1143919D01*
X1490750Y1145297D01*
X1489373Y1145868D01*
D02*
G37*
G36*
X1593000Y1143948D02*
X1591622Y1143378D01*
X1591052Y1142000D01*
X1591622Y1140622D01*
X1593000Y1140052D01*
X1594378Y1140622D01*
X1594948Y1142000D01*
X1594378Y1143378D01*
X1593000Y1143948D01*
D02*
G37*
G36*
X1578000Y1141948D02*
X1576622Y1141378D01*
X1576052Y1140000D01*
X1576622Y1138622D01*
X1578000Y1138052D01*
X1579378Y1138622D01*
X1579948Y1140000D01*
X1579378Y1141378D01*
X1578000Y1141948D01*
D02*
G37*
G36*
X1262998Y1139946D02*
X1261620Y1139375D01*
X1261049Y1137998D01*
X1261620Y1136620D01*
X1262998Y1136049D01*
X1264375Y1136620D01*
X1264946Y1137998D01*
X1264375Y1139375D01*
X1262998Y1139946D01*
D02*
G37*
G36*
X1326232Y1138754D02*
X1324855Y1138184D01*
X1324284Y1136806D01*
X1324855Y1135428D01*
X1326232Y1134857D01*
X1327610Y1135428D01*
X1328181Y1136806D01*
X1327610Y1138184D01*
X1326232Y1138754D01*
D02*
G37*
G36*
X1518000Y1137948D02*
X1516622Y1137378D01*
X1516052Y1136000D01*
X1516622Y1134622D01*
X1518000Y1134052D01*
X1519378Y1134622D01*
X1519948Y1136000D01*
X1519378Y1137378D01*
X1518000Y1137948D01*
D02*
G37*
G36*
X1426898Y1137297D02*
X1425520Y1136726D01*
X1424950Y1135348D01*
X1425520Y1133971D01*
X1426898Y1133400D01*
X1428276Y1133971D01*
X1428846Y1135348D01*
X1428276Y1136726D01*
X1426898Y1137297D01*
D02*
G37*
G36*
X1312702Y1136948D02*
X1311325Y1136378D01*
X1310754Y1135000D01*
X1311325Y1133622D01*
X1312702Y1133052D01*
X1314080Y1133622D01*
X1314651Y1135000D01*
X1314080Y1136378D01*
X1312702Y1136948D01*
D02*
G37*
G36*
X1347000Y1134048D02*
X1345622Y1133478D01*
X1345052Y1132100D01*
X1345622Y1130722D01*
X1347000Y1130152D01*
X1348378Y1130722D01*
X1348948Y1132100D01*
X1348378Y1133478D01*
X1347000Y1134048D01*
D02*
G37*
G36*
X1340000D02*
X1338622Y1133478D01*
X1338052Y1132100D01*
X1338622Y1130722D01*
X1340000Y1130152D01*
X1341378Y1130722D01*
X1341948Y1132100D01*
X1341378Y1133478D01*
X1340000Y1134048D01*
D02*
G37*
G36*
X1372800Y1132457D02*
X1371422Y1131886D01*
X1370852Y1130509D01*
X1371422Y1129131D01*
X1372800Y1128560D01*
X1374178Y1129131D01*
X1374748Y1130509D01*
X1374178Y1131886D01*
X1372800Y1132457D01*
D02*
G37*
G36*
X1396379Y1132428D02*
X1395002Y1131857D01*
X1394431Y1130479D01*
X1395002Y1129102D01*
X1396379Y1128531D01*
X1397757Y1129102D01*
X1398328Y1130479D01*
X1397757Y1131857D01*
X1396379Y1132428D01*
D02*
G37*
G36*
X1259201Y1131149D02*
X1257823Y1130578D01*
X1257252Y1129201D01*
X1257823Y1127823D01*
X1259201Y1127252D01*
X1260578Y1127823D01*
X1261149Y1129201D01*
X1260578Y1130578D01*
X1259201Y1131149D01*
D02*
G37*
G36*
X1296602Y1130246D02*
X1295224Y1129675D01*
X1294654Y1128298D01*
X1295224Y1126920D01*
X1296602Y1126349D01*
X1297980Y1126920D01*
X1298550Y1128298D01*
X1297980Y1129675D01*
X1296602Y1130246D01*
D02*
G37*
G36*
X1355460Y1126292D02*
X1354082Y1125721D01*
X1353511Y1124343D01*
X1354082Y1122965D01*
X1354924Y1122617D01*
X1355210Y1122498D01*
X1355726Y1120548D01*
X1355723Y1120546D01*
X1355571Y1120180D01*
X1355153Y1119168D01*
X1355723Y1117791D01*
X1357101Y1117220D01*
X1358479Y1117791D01*
X1359049Y1119168D01*
X1358479Y1120546D01*
X1357637Y1120895D01*
X1357351Y1121013D01*
X1356835Y1122964D01*
X1356837Y1122965D01*
X1356989Y1123332D01*
X1357408Y1124343D01*
X1356837Y1125721D01*
X1355460Y1126292D01*
D02*
G37*
G36*
X1345481Y1119848D02*
X1344103Y1119278D01*
X1343533Y1117900D01*
X1344103Y1116522D01*
X1345481Y1115952D01*
X1346858Y1116522D01*
X1347429Y1117900D01*
X1346858Y1119278D01*
X1345481Y1119848D01*
D02*
G37*
G36*
X1369857Y1119748D02*
X1368479Y1119178D01*
X1367909Y1117800D01*
X1368479Y1116422D01*
X1369857Y1115852D01*
X1371235Y1116422D01*
X1371805Y1117800D01*
X1371235Y1119178D01*
X1369857Y1119748D01*
D02*
G37*
G36*
X1489373Y1112948D02*
X1487995Y1112378D01*
X1487424Y1111000D01*
X1487995Y1109622D01*
X1489373Y1109052D01*
X1490750Y1109622D01*
X1491321Y1111000D01*
X1490750Y1112378D01*
X1489373Y1112948D01*
D02*
G37*
G36*
X1539750Y1104237D02*
X1538372Y1103667D01*
X1537802Y1102289D01*
X1538372Y1100911D01*
X1539750Y1100341D01*
X1541128Y1100911D01*
X1541698Y1102289D01*
X1541128Y1103667D01*
X1539750Y1104237D01*
D02*
G37*
G36*
X1512000Y1102948D02*
X1510622Y1102378D01*
X1510052Y1101000D01*
X1510622Y1099622D01*
X1512000Y1099052D01*
X1513378Y1099622D01*
X1513948Y1101000D01*
X1513378Y1102378D01*
X1512000Y1102948D01*
D02*
G37*
G36*
X1593000Y1099948D02*
X1591622Y1099378D01*
X1591052Y1098000D01*
X1591622Y1096622D01*
X1593000Y1096052D01*
X1594378Y1096622D01*
X1594948Y1098000D01*
X1594378Y1099378D01*
X1593000Y1099948D01*
D02*
G37*
G36*
X1505000D02*
X1503622Y1099378D01*
X1503052Y1098000D01*
X1503622Y1096622D01*
X1505000Y1096052D01*
X1506378Y1096622D01*
X1506948Y1098000D01*
X1506378Y1099378D01*
X1505000Y1099948D01*
D02*
G37*
G36*
X1535000Y1098948D02*
X1533622Y1098378D01*
X1533052Y1097000D01*
X1533622Y1095622D01*
X1535000Y1095052D01*
X1536378Y1095622D01*
X1536948Y1097000D01*
X1536378Y1098378D01*
X1535000Y1098948D01*
D02*
G37*
G36*
X1284000D02*
X1282622Y1098378D01*
X1282052Y1097000D01*
X1282622Y1095622D01*
X1284000Y1095052D01*
X1285378Y1095622D01*
X1285948Y1097000D01*
X1285378Y1098378D01*
X1284000Y1098948D01*
D02*
G37*
G36*
X1381300Y1091189D02*
X1380830Y1090994D01*
X1379993Y1090647D01*
X1372240D01*
X1371245Y1090235D01*
X1336417Y1055407D01*
X1325636D01*
X1324641Y1054995D01*
X1311005Y1041359D01*
X1310593Y1040364D01*
Y1036307D01*
X1310246Y1035470D01*
X1310052Y1035000D01*
X1310622Y1033622D01*
X1311092Y1033428D01*
X1312000Y1033052D01*
X1312908Y1033428D01*
X1313378Y1033622D01*
X1313948Y1035000D01*
X1313754Y1035470D01*
X1313407Y1036307D01*
Y1039781D01*
X1324693Y1051067D01*
X1325510Y1050951D01*
X1326416Y1049364D01*
X1326792Y1048456D01*
X1326987Y1047986D01*
X1328364Y1047415D01*
X1328834Y1047610D01*
X1329671Y1047957D01*
X1339364D01*
X1340204Y1048305D01*
X1340480Y1048332D01*
X1342534Y1047715D01*
X1342622Y1047501D01*
X1344000Y1046930D01*
X1345378Y1047501D01*
X1345572Y1047971D01*
X1345948Y1048879D01*
X1345378Y1050256D01*
X1345163Y1050345D01*
X1344665Y1052675D01*
X1373583Y1081593D01*
X1380762D01*
X1383160Y1079195D01*
X1382027Y1077500D01*
X1381644Y1077659D01*
X1381173Y1077464D01*
X1380337Y1077117D01*
X1379710D01*
X1378715Y1076705D01*
X1368905Y1066895D01*
X1368493Y1065900D01*
Y1051483D01*
X1357005Y1039995D01*
X1356593Y1039000D01*
Y1023000D01*
X1357005Y1022005D01*
X1434593Y944417D01*
Y902307D01*
X1434246Y901470D01*
X1434052Y901000D01*
X1434622Y899622D01*
X1435092Y899428D01*
X1436000Y899052D01*
X1436908Y899428D01*
X1437378Y899622D01*
X1437948Y901000D01*
X1437754Y901470D01*
X1437407Y902307D01*
Y920472D01*
X1438595Y921980D01*
X1438595Y921980D01*
Y921980D01*
X1439407Y922142D01*
X1439450Y922038D01*
Y922037D01*
X1439465Y922003D01*
X1439622Y921622D01*
X1441000Y921052D01*
X1442378Y921622D01*
X1442572Y922092D01*
X1442948Y923000D01*
X1442378Y924378D01*
X1441000Y924948D01*
X1439622Y924378D01*
X1439471Y924013D01*
X1439407Y923858D01*
X1438595Y924020D01*
Y924020D01*
X1438595Y924020D01*
X1437407Y925527D01*
Y945000D01*
X1436995Y945995D01*
X1359407Y1023583D01*
Y1038417D01*
X1370895Y1049905D01*
X1371307Y1050900D01*
Y1065317D01*
X1380293Y1074303D01*
X1380337D01*
X1381173Y1073957D01*
X1381644Y1073762D01*
X1383021Y1074333D01*
X1383216Y1074803D01*
X1383592Y1075710D01*
X1383433Y1076094D01*
X1385129Y1077226D01*
X1408989Y1053366D01*
X1408550Y1051020D01*
X1407980Y1049642D01*
X1408550Y1048264D01*
X1409020Y1048070D01*
X1409928Y1047694D01*
X1411306Y1048264D01*
X1413652Y1048703D01*
X1424631Y1037724D01*
X1425350Y1037005D01*
X1426070Y1036369D01*
X1426070Y1036369D01*
X1426070D01*
X1426257Y1035471D01*
X1426192Y1034656D01*
X1425895Y1034533D01*
X1425520Y1034378D01*
X1424950Y1033000D01*
X1425520Y1031622D01*
X1426898Y1031052D01*
X1428276Y1031622D01*
X1428846Y1033000D01*
X1428276Y1034378D01*
X1427955Y1034511D01*
X1427954Y1034511D01*
X1427762Y1034620D01*
X1428111Y1036378D01*
X1430022Y1036593D01*
X1449000D01*
X1449995Y1037005D01*
X1465995Y1053005D01*
X1466407Y1054000D01*
Y1055472D01*
X1467595Y1056980D01*
X1467595Y1056980D01*
Y1056980D01*
X1468407Y1057142D01*
X1468450Y1057038D01*
X1468450Y1057037D01*
X1468465Y1057003D01*
X1468622Y1056622D01*
X1470000Y1056052D01*
X1471378Y1056622D01*
X1471572Y1057092D01*
X1471948Y1058000D01*
X1471378Y1059378D01*
X1470000Y1059948D01*
X1468622Y1059378D01*
X1468465Y1058997D01*
X1468450Y1058963D01*
X1468450Y1058962D01*
X1468407Y1058858D01*
X1467595Y1059020D01*
Y1059020D01*
X1467595Y1059020D01*
X1466407Y1060528D01*
Y1062453D01*
X1465995Y1063448D01*
X1462759Y1066684D01*
X1462217Y1067991D01*
X1460840Y1068561D01*
X1459462Y1067991D01*
X1458891Y1066613D01*
X1459462Y1065235D01*
X1459932Y1065041D01*
X1460769Y1064694D01*
X1463593Y1061870D01*
Y1054583D01*
X1448417Y1039407D01*
X1427947D01*
X1427353Y1040204D01*
X1428047Y1042527D01*
X1428276Y1042622D01*
X1428846Y1044000D01*
X1428276Y1045378D01*
X1426898Y1045948D01*
X1425520Y1045378D01*
X1424950Y1044000D01*
X1423103Y1043232D01*
X1415714Y1050621D01*
X1416369Y1052794D01*
X1416962Y1053039D01*
X1417533Y1054417D01*
X1416962Y1055795D01*
X1416492Y1055990D01*
X1415584Y1056365D01*
X1414207Y1055795D01*
X1413961Y1055202D01*
X1411788Y1054547D01*
X1410057Y1056278D01*
X1410713Y1058450D01*
X1411306Y1058696D01*
X1411876Y1060074D01*
X1411306Y1061451D01*
X1409928Y1062022D01*
X1408550Y1061451D01*
X1408305Y1060859D01*
X1406132Y1060203D01*
X1393087Y1073248D01*
X1393742Y1075421D01*
X1394335Y1075667D01*
X1394905Y1077044D01*
X1394335Y1078422D01*
X1392957Y1078993D01*
X1391579Y1078422D01*
X1391334Y1077830D01*
X1389161Y1077174D01*
X1386548Y1079787D01*
X1386548Y1079787D01*
X1387462Y1081702D01*
X1388678Y1082206D01*
X1389249Y1083583D01*
X1388678Y1084961D01*
X1387301Y1085532D01*
X1385923Y1084961D01*
X1385728Y1084491D01*
X1385419Y1083744D01*
X1383505Y1082831D01*
X1383504Y1082830D01*
X1382340Y1083995D01*
X1381345Y1084407D01*
X1373000D01*
X1372005Y1083995D01*
X1339686Y1051676D01*
X1339539Y1051721D01*
X1338973Y1053983D01*
X1372823Y1087833D01*
X1379993D01*
X1380830Y1087487D01*
X1381300Y1087292D01*
X1382678Y1087863D01*
X1382872Y1088333D01*
X1383248Y1089240D01*
X1382678Y1090618D01*
X1381300Y1091189D01*
D02*
G37*
G36*
X1438212Y1090306D02*
X1436834Y1089736D01*
X1436263Y1088358D01*
X1436834Y1086980D01*
X1438212Y1086410D01*
X1439589Y1086980D01*
X1440160Y1088358D01*
X1439589Y1089736D01*
X1438212Y1090306D01*
D02*
G37*
G36*
X1282000Y1081848D02*
X1280622Y1081278D01*
X1280052Y1079900D01*
X1280622Y1078522D01*
X1282000Y1077952D01*
X1283378Y1078522D01*
X1283948Y1079900D01*
X1283378Y1081278D01*
X1282000Y1081848D01*
D02*
G37*
G36*
X1290500Y1080548D02*
X1289122Y1079978D01*
X1288552Y1078600D01*
X1289122Y1077222D01*
X1290500Y1076652D01*
X1291878Y1077222D01*
X1292448Y1078600D01*
X1291878Y1079978D01*
X1290500Y1080548D01*
D02*
G37*
G36*
X1316300Y1078957D02*
X1314922Y1078386D01*
X1314352Y1077009D01*
X1314922Y1075631D01*
X1316300Y1075060D01*
X1317678Y1075631D01*
X1318248Y1077009D01*
X1317678Y1078386D01*
X1316300Y1078957D01*
D02*
G37*
G36*
X1287100Y1069256D02*
X1285722Y1068686D01*
X1285152Y1067308D01*
X1285722Y1065930D01*
X1287100Y1065360D01*
X1288478Y1065930D01*
X1289048Y1067308D01*
X1288478Y1068686D01*
X1287100Y1069256D01*
D02*
G37*
G36*
X1502697Y1067948D02*
X1501319Y1067378D01*
X1500748Y1066000D01*
X1501319Y1064622D01*
X1502697Y1064052D01*
X1504074Y1064622D01*
X1504645Y1066000D01*
X1504074Y1067378D01*
X1502697Y1067948D01*
D02*
G37*
G36*
X1298960Y1072792D02*
X1297582Y1072221D01*
X1297011Y1070843D01*
X1297582Y1069466D01*
X1298423Y1069117D01*
X1298710Y1068998D01*
X1299225Y1067048D01*
X1299223Y1067046D01*
X1299072Y1066680D01*
X1298653Y1065668D01*
X1299223Y1064291D01*
X1300601Y1063720D01*
X1301979Y1064291D01*
X1302549Y1065668D01*
X1301979Y1067046D01*
X1301137Y1067395D01*
X1300851Y1067514D01*
X1300335Y1069464D01*
X1300337Y1069466D01*
X1300489Y1069832D01*
X1300908Y1070843D01*
X1300337Y1072221D01*
X1298960Y1072792D01*
D02*
G37*
G36*
X1512000Y1066948D02*
X1510622Y1066378D01*
X1510052Y1065000D01*
X1510622Y1063622D01*
X1512000Y1063052D01*
X1513378Y1063622D01*
X1513948Y1065000D01*
X1513378Y1066378D01*
X1512000Y1066948D01*
D02*
G37*
G36*
X1377000D02*
X1375622Y1066378D01*
X1375052Y1065000D01*
X1375622Y1063622D01*
X1377000Y1063052D01*
X1378378Y1063622D01*
X1378948Y1065000D01*
X1378378Y1066378D01*
X1377000Y1066948D01*
D02*
G37*
G36*
X1256000Y1062948D02*
X1254622Y1062378D01*
X1254052Y1061000D01*
X1254622Y1059622D01*
X1256000Y1059052D01*
X1257378Y1059622D01*
X1257948Y1061000D01*
X1257378Y1062378D01*
X1256000Y1062948D01*
D02*
G37*
G36*
X1330960Y1221898D02*
X1327286Y1220376D01*
X1305326Y1198417D01*
X1303804Y1194743D01*
Y1164152D01*
X1279683Y1140030D01*
X1277375Y1140375D01*
X1275997Y1140946D01*
X1274620Y1140375D01*
X1274425Y1139905D01*
X1274049Y1138998D01*
X1274620Y1137620D01*
X1274965Y1135312D01*
X1266826Y1127174D01*
X1265305Y1123500D01*
Y1028500D01*
X1266826Y1024826D01*
X1323179Y968474D01*
X1323960Y966797D01*
X1322993Y965831D01*
X1314345Y957182D01*
X1339040Y932487D01*
X1348655Y942102D01*
X1342493Y948264D01*
X1343626Y949959D01*
X1344000Y949805D01*
X1380461D01*
X1416550Y913715D01*
Y903000D01*
X1418071Y899326D01*
X1421745Y897804D01*
X1425419Y899326D01*
X1426203Y901220D01*
X1428164Y900727D01*
X1428622Y899622D01*
X1430000Y899051D01*
X1430907Y899427D01*
X1431377Y899622D01*
X1431948Y901000D01*
X1431753Y901470D01*
X1431407Y902305D01*
Y933000D01*
X1430995Y933995D01*
X1347407Y1017583D01*
Y1042296D01*
X1364995Y1059884D01*
X1365407Y1060879D01*
Y1063693D01*
X1365754Y1064530D01*
X1365948Y1065000D01*
X1365378Y1066378D01*
X1364908Y1066572D01*
X1364000Y1066948D01*
X1363092Y1066572D01*
X1362622Y1066378D01*
X1362052Y1065000D01*
X1362246Y1064530D01*
X1362593Y1063693D01*
Y1061461D01*
X1345005Y1043874D01*
X1344593Y1042879D01*
Y1017000D01*
X1345005Y1016005D01*
X1404531Y956479D01*
X1403398Y954783D01*
X1403000Y954948D01*
X1401622Y954378D01*
X1401052Y953000D01*
X1401622Y951622D01*
X1403000Y951052D01*
X1404378Y951622D01*
X1404948Y953000D01*
X1404783Y953398D01*
X1406479Y954531D01*
X1428593Y932417D01*
Y917105D01*
X1426593Y916707D01*
X1425419Y919541D01*
X1386286Y958674D01*
X1382613Y960195D01*
X1346152D01*
X1275695Y1030652D01*
Y1121348D01*
X1293056Y1138709D01*
X1294752Y1137576D01*
X1294654Y1137338D01*
X1295224Y1135961D01*
X1296602Y1135390D01*
X1297980Y1135961D01*
X1298521Y1137267D01*
X1304846Y1143593D01*
X1368715D01*
X1388960Y1123348D01*
X1389955Y1122936D01*
X1398701D01*
X1412593Y1109044D01*
Y1103780D01*
X1410593Y1102951D01*
X1407807Y1105737D01*
Y1109600D01*
X1407395Y1110595D01*
X1398995Y1118995D01*
X1398000Y1119407D01*
X1383000D01*
X1382005Y1118995D01*
X1371207Y1108197D01*
X1353536D01*
X1352542Y1107785D01*
X1329051Y1084295D01*
X1328639Y1083299D01*
Y1063070D01*
X1328098Y1061763D01*
X1327501Y1060871D01*
X1315007D01*
X1314610Y1062870D01*
X1314735Y1062922D01*
X1315305Y1064300D01*
X1314735Y1065678D01*
X1313357Y1066248D01*
X1311979Y1065678D01*
X1311409Y1064300D01*
X1311979Y1062922D01*
X1312585Y1062671D01*
X1312727Y1060969D01*
X1312585Y1060507D01*
X1312468Y1060458D01*
X1305005Y1052995D01*
X1304593Y1052000D01*
Y1046583D01*
X1293005Y1034995D01*
X1292593Y1034000D01*
Y1026307D01*
X1292246Y1025470D01*
X1292052Y1025000D01*
X1292622Y1023622D01*
X1293092Y1023428D01*
X1294000Y1023052D01*
X1294908Y1023428D01*
X1295378Y1023622D01*
X1295948Y1025000D01*
X1295754Y1025470D01*
X1295407Y1026307D01*
Y1033417D01*
X1306995Y1045005D01*
X1307407Y1046000D01*
Y1046418D01*
X1309407Y1047306D01*
X1310315Y1046930D01*
X1311693Y1047501D01*
X1311887Y1047971D01*
X1312263Y1048879D01*
X1311887Y1049786D01*
X1311693Y1050256D01*
X1310315Y1050827D01*
X1308952Y1052427D01*
X1308868Y1052878D01*
X1314046Y1058056D01*
X1334363D01*
X1335358Y1058468D01*
X1370483Y1093593D01*
X1383675D01*
X1408521Y1068747D01*
Y1068135D01*
X1408933Y1067140D01*
X1416994Y1059079D01*
X1417989Y1058667D01*
X1419935D01*
X1420771Y1058320D01*
X1421241Y1058125D01*
X1422619Y1058696D01*
X1422814Y1059166D01*
X1423190Y1060074D01*
X1422814Y1060981D01*
X1422619Y1061451D01*
X1421241Y1062022D01*
X1420771Y1061827D01*
X1419935Y1061481D01*
X1418572D01*
X1416753Y1063300D01*
X1416962Y1064353D01*
X1417533Y1065731D01*
X1416962Y1067109D01*
X1416492Y1067303D01*
X1415584Y1067679D01*
X1414207Y1067109D01*
X1413154Y1066899D01*
X1411335Y1068717D01*
Y1069330D01*
X1410923Y1070325D01*
X1394031Y1087217D01*
X1394335Y1088744D01*
X1394658Y1089524D01*
X1396753Y1090257D01*
X1432422Y1054588D01*
X1432313Y1052378D01*
X1431743Y1051000D01*
X1432313Y1049622D01*
X1433691Y1049052D01*
X1435068Y1049622D01*
X1437278Y1049732D01*
X1441005Y1046005D01*
X1442000Y1045593D01*
X1451000D01*
X1451995Y1046005D01*
X1460995Y1055005D01*
X1461407Y1056000D01*
Y1060000D01*
X1460995Y1060995D01*
X1454984Y1067006D01*
X1454765Y1067225D01*
X1454439Y1067744D01*
X1455132Y1069406D01*
X1455180Y1069437D01*
X1455182Y1069439D01*
X1455580Y1069604D01*
X1456560Y1070010D01*
X1456755Y1070480D01*
X1457131Y1071387D01*
X1456560Y1072765D01*
X1456090Y1072960D01*
X1455182Y1073336D01*
X1455020Y1073397D01*
X1453407Y1074765D01*
Y1081088D01*
X1455182Y1082517D01*
X1456560Y1083088D01*
X1457131Y1084465D01*
X1456560Y1085843D01*
X1455182Y1086414D01*
X1453407Y1087843D01*
Y1100554D01*
X1452995Y1101549D01*
X1448807Y1105737D01*
Y1172423D01*
X1448881Y1172601D01*
X1451196Y1173114D01*
X1457593Y1166717D01*
Y1096000D01*
X1458005Y1095005D01*
X1471317Y1081693D01*
X1470847Y1079334D01*
X1470776Y1079305D01*
X1470205Y1077927D01*
X1470400Y1077457D01*
X1470776Y1076549D01*
X1471683Y1076173D01*
X1472153Y1075978D01*
X1473531Y1076549D01*
X1473561Y1076621D01*
X1475920Y1077090D01*
X1478593Y1074417D01*
Y1056382D01*
X1476593Y1055268D01*
X1476071Y1055484D01*
X1474693Y1054913D01*
X1474499Y1054443D01*
X1474123Y1053536D01*
X1474693Y1052158D01*
X1475153Y1051967D01*
X1475753Y1049739D01*
X1471158Y1045145D01*
X1470746Y1044150D01*
Y1014847D01*
X1471158Y1013852D01*
X1528005Y957005D01*
X1529000Y956593D01*
X1538000D01*
X1538995Y957005D01*
X1548071Y966081D01*
X1548908Y966428D01*
X1549378Y966622D01*
X1549948Y968000D01*
X1549378Y969378D01*
X1548908Y969572D01*
X1548000Y969948D01*
X1546622Y969378D01*
X1546081Y968071D01*
X1538438Y960428D01*
X1536438Y960469D01*
X1535948Y961000D01*
X1535378Y962378D01*
X1534000Y962948D01*
X1532622Y962378D01*
X1532052Y961000D01*
X1531267Y960170D01*
X1528849Y960141D01*
X1473560Y1015430D01*
Y1043567D01*
X1480995Y1051001D01*
X1481407Y1051996D01*
Y1075000D01*
X1480995Y1075995D01*
X1460407Y1096583D01*
Y1167300D01*
X1459995Y1168295D01*
X1451295Y1176995D01*
X1450300Y1177407D01*
X1448430D01*
X1448359Y1177437D01*
X1446447D01*
X1446376Y1177407D01*
X1444000D01*
X1443005Y1176995D01*
X1431560Y1165550D01*
X1431148Y1164555D01*
Y1118534D01*
X1430802Y1117697D01*
X1430607Y1117227D01*
X1431178Y1115849D01*
X1431648Y1115655D01*
X1432555Y1115279D01*
X1433463Y1115655D01*
X1433933Y1115849D01*
X1434504Y1117227D01*
X1434309Y1117697D01*
X1433962Y1118534D01*
Y1163972D01*
X1443604Y1173614D01*
X1445773Y1172954D01*
X1445993Y1172423D01*
Y1105154D01*
X1446405Y1104159D01*
X1450593Y1099971D01*
Y1098010D01*
X1450466Y1097930D01*
X1448593Y1097397D01*
X1442771Y1103219D01*
Y1160057D01*
X1443118Y1160894D01*
X1443313Y1161364D01*
X1442742Y1162741D01*
X1442272Y1162936D01*
X1441364Y1163312D01*
X1440457Y1162936D01*
X1439987Y1162741D01*
X1439416Y1161364D01*
X1439611Y1160894D01*
X1439957Y1160057D01*
Y1126274D01*
X1438212Y1124832D01*
X1436834Y1124261D01*
X1436263Y1122884D01*
X1436834Y1121506D01*
X1438212Y1120935D01*
X1439957Y1119494D01*
Y1102636D01*
X1440369Y1101641D01*
X1446593Y1095417D01*
Y1087110D01*
X1444593Y1086114D01*
X1443869Y1086414D01*
X1442491Y1085843D01*
X1442296Y1085373D01*
X1441920Y1084465D01*
X1442491Y1083088D01*
X1443041Y1082860D01*
X1443591Y1080973D01*
X1442438Y1079264D01*
X1441071Y1079036D01*
X1440557Y1079098D01*
X1440471Y1079305D01*
X1439094Y1079875D01*
X1437716Y1079305D01*
X1437521Y1078834D01*
X1437145Y1077927D01*
X1437716Y1076549D01*
X1439094Y1075978D01*
X1440471Y1076549D01*
X1442462Y1076128D01*
Y1072694D01*
X1442115Y1071857D01*
X1441920Y1071387D01*
X1442491Y1070010D01*
X1442279Y1067957D01*
X1441651Y1067138D01*
X1439518D01*
X1438212Y1067679D01*
X1436834Y1067109D01*
X1435781Y1066899D01*
X1434205Y1068475D01*
X1434674Y1070834D01*
X1434814Y1070892D01*
X1435385Y1072270D01*
X1435190Y1072740D01*
X1434844Y1073576D01*
Y1078117D01*
X1434431Y1079112D01*
X1427218Y1086326D01*
X1427818Y1088555D01*
X1428276Y1088744D01*
X1428846Y1090122D01*
X1428276Y1091500D01*
X1426898Y1092070D01*
X1425520Y1091500D01*
X1425331Y1091042D01*
X1423102Y1090442D01*
X1416658Y1096886D01*
X1416962Y1099176D01*
X1417533Y1100554D01*
X1416962Y1101932D01*
X1416492Y1102126D01*
X1415656Y1102473D01*
X1415407Y1102721D01*
Y1109627D01*
X1414995Y1110622D01*
X1400279Y1125338D01*
X1399284Y1125750D01*
X1390538D01*
X1370293Y1145995D01*
X1369298Y1146407D01*
X1304263D01*
X1303268Y1145995D01*
X1297845Y1140572D01*
X1297756Y1140581D01*
X1297011Y1142664D01*
X1312674Y1158326D01*
X1314196Y1162000D01*
Y1192591D01*
X1334633Y1213028D01*
X1336155Y1216702D01*
X1334633Y1220376D01*
X1330960Y1221898D01*
D02*
G37*
G36*
X1513465Y1056365D02*
X1512087Y1055795D01*
X1511516Y1054417D01*
X1512087Y1053039D01*
X1513465Y1052469D01*
X1514842Y1053039D01*
X1515413Y1054417D01*
X1514842Y1055795D01*
X1513465Y1056365D01*
D02*
G37*
G36*
X1578580Y1054948D02*
X1577202Y1054378D01*
X1576632Y1053000D01*
X1577202Y1051622D01*
X1578580Y1051052D01*
X1579958Y1051622D01*
X1580528Y1053000D01*
X1579958Y1054378D01*
X1578580Y1054948D01*
D02*
G37*
G36*
X1426898Y1053089D02*
X1425520Y1052518D01*
X1424950Y1051140D01*
X1425520Y1049763D01*
X1426898Y1049192D01*
X1428276Y1049763D01*
X1428846Y1051140D01*
X1428276Y1052518D01*
X1426898Y1053089D01*
D02*
G37*
G36*
X1554000Y1049948D02*
X1552622Y1049378D01*
X1552052Y1048000D01*
X1552622Y1046622D01*
X1554000Y1046052D01*
X1555378Y1046622D01*
X1555948Y1048000D01*
X1555378Y1049378D01*
X1554000Y1049948D01*
D02*
G37*
G36*
X1297280Y1046648D02*
X1295902Y1046078D01*
X1295331Y1044700D01*
X1295902Y1043322D01*
X1297280Y1042752D01*
X1298657Y1043322D01*
X1299228Y1044700D01*
X1298657Y1046078D01*
X1297280Y1046648D01*
D02*
G37*
G36*
X1404271Y1045948D02*
X1402893Y1045378D01*
X1402322Y1044000D01*
X1402893Y1042622D01*
X1404271Y1042052D01*
X1405648Y1042622D01*
X1406219Y1044000D01*
X1405648Y1045378D01*
X1404271Y1045948D01*
D02*
G37*
G36*
X1283000Y1040948D02*
X1281622Y1040378D01*
X1281052Y1039000D01*
X1281622Y1037622D01*
X1283000Y1037052D01*
X1284378Y1037622D01*
X1284948Y1039000D01*
X1284378Y1040378D01*
X1283000Y1040948D01*
D02*
G37*
G36*
X1256000D02*
X1254622Y1040378D01*
X1254052Y1039000D01*
X1254622Y1037622D01*
X1256000Y1037052D01*
X1257378Y1037622D01*
X1257948Y1039000D01*
X1257378Y1040378D01*
X1256000Y1040948D01*
D02*
G37*
G36*
X1517000Y1037948D02*
X1515622Y1037378D01*
X1515052Y1036000D01*
X1515622Y1034622D01*
X1517000Y1034052D01*
X1518378Y1034622D01*
X1518948Y1036000D01*
X1518378Y1037378D01*
X1517000Y1037948D01*
D02*
G37*
G36*
X1283041Y1031160D02*
X1281663Y1030590D01*
X1281093Y1029212D01*
X1281663Y1027834D01*
X1283041Y1027263D01*
X1284418Y1027834D01*
X1284989Y1029212D01*
X1284418Y1030590D01*
X1283041Y1031160D01*
D02*
G37*
G36*
X1421239Y1030188D02*
X1419862Y1029617D01*
X1419291Y1028239D01*
X1419862Y1026862D01*
X1421239Y1026291D01*
X1422617Y1026862D01*
X1423188Y1028239D01*
X1422617Y1029617D01*
X1421239Y1030188D01*
D02*
G37*
G36*
X1374343D02*
X1372966Y1029617D01*
X1372395Y1028239D01*
X1372966Y1026862D01*
X1374343Y1026291D01*
X1375721Y1026862D01*
X1376292Y1028239D01*
X1375721Y1029617D01*
X1374343Y1030188D01*
D02*
G37*
G36*
X1366000Y1026948D02*
X1364622Y1026378D01*
X1364052Y1025000D01*
X1364622Y1023622D01*
X1366000Y1023052D01*
X1367378Y1023622D01*
X1367948Y1025000D01*
X1367378Y1026378D01*
X1366000Y1026948D01*
D02*
G37*
G36*
X1328364D02*
X1326987Y1026378D01*
X1326416Y1025000D01*
X1326987Y1023622D01*
X1328364Y1023052D01*
X1329742Y1023622D01*
X1330312Y1025000D01*
X1329742Y1026378D01*
X1328364Y1026948D01*
D02*
G37*
G36*
X1453980Y1022948D02*
X1452602Y1022378D01*
X1452031Y1021000D01*
X1452602Y1019622D01*
X1453980Y1019052D01*
X1455357Y1019622D01*
X1455928Y1021000D01*
X1455357Y1022378D01*
X1453980Y1022948D01*
D02*
G37*
G36*
X1434465D02*
X1433087Y1022378D01*
X1432516Y1021000D01*
X1433087Y1019622D01*
X1434465Y1019052D01*
X1435842Y1019622D01*
X1436413Y1021000D01*
X1435842Y1022378D01*
X1434465Y1022948D01*
D02*
G37*
G36*
X1501765Y1022876D02*
X1500388Y1022305D01*
X1499817Y1020927D01*
X1500388Y1019549D01*
X1501765Y1018979D01*
X1503143Y1019549D01*
X1503714Y1020927D01*
X1503143Y1022305D01*
X1501765Y1022876D01*
D02*
G37*
G36*
X1464000Y1021948D02*
X1462622Y1021378D01*
X1462052Y1020000D01*
X1462622Y1018622D01*
X1464000Y1018052D01*
X1465378Y1018622D01*
X1465948Y1020000D01*
X1465378Y1021378D01*
X1464000Y1021948D01*
D02*
G37*
G36*
X1509611Y1016228D02*
X1508233Y1015658D01*
X1507663Y1014280D01*
X1508233Y1012902D01*
X1509611Y1012332D01*
X1510989Y1012902D01*
X1511559Y1014280D01*
X1510989Y1015658D01*
X1509611Y1016228D01*
D02*
G37*
G36*
X1551151Y1022174D02*
X1546329Y1020177D01*
X1544332Y1015355D01*
X1546329Y1010534D01*
X1551151Y1008536D01*
X1555972Y1010534D01*
X1557970Y1015355D01*
X1555972Y1020177D01*
X1551151Y1022174D01*
D02*
G37*
G36*
X1460000Y1206407D02*
X1427280D01*
X1426285Y1205995D01*
X1402533Y1182243D01*
X1402505Y1182215D01*
X1401465Y1181231D01*
X1400107Y1181254D01*
X1400100Y1181256D01*
X1398722Y1180686D01*
X1398152Y1179308D01*
X1398722Y1177930D01*
X1400100Y1177360D01*
X1402093Y1176020D01*
Y1153000D01*
X1402505Y1152005D01*
X1408001Y1146509D01*
Y1137050D01*
X1406400Y1135548D01*
X1405022Y1134978D01*
X1404452Y1133600D01*
X1405022Y1132222D01*
X1406400Y1131652D01*
X1408001Y1130150D01*
Y1124607D01*
X1407654Y1123770D01*
X1407460Y1123300D01*
X1408030Y1121922D01*
X1408500Y1121728D01*
X1409408Y1121352D01*
X1410316Y1121728D01*
X1410786Y1121922D01*
X1411356Y1123300D01*
X1411161Y1123770D01*
X1410815Y1124607D01*
Y1147092D01*
X1410403Y1148087D01*
X1404907Y1153583D01*
Y1180638D01*
X1408365Y1184096D01*
X1410061Y1182963D01*
X1410011Y1182843D01*
X1410582Y1181466D01*
X1411423Y1181117D01*
X1411710Y1180998D01*
X1412225Y1179048D01*
X1412223Y1179046D01*
X1412072Y1178680D01*
X1411653Y1177669D01*
X1412223Y1176291D01*
X1413601Y1175720D01*
X1414979Y1176291D01*
X1415549Y1177669D01*
X1414979Y1179046D01*
X1414137Y1179395D01*
X1413851Y1179513D01*
X1413335Y1181464D01*
X1413337Y1181466D01*
X1413489Y1181832D01*
X1413908Y1182843D01*
X1413713Y1183313D01*
X1413337Y1184221D01*
X1411960Y1184792D01*
X1411840Y1184742D01*
X1410707Y1186438D01*
X1427862Y1203593D01*
X1459417D01*
X1494593Y1168417D01*
Y1099000D01*
X1495005Y1098005D01*
X1517593Y1075417D01*
Y1067000D01*
X1518005Y1066005D01*
X1563593Y1020417D01*
Y1013189D01*
X1554951Y1004548D01*
X1554115Y1004201D01*
X1553645Y1004007D01*
X1553074Y1002629D01*
X1553269Y1002159D01*
X1553645Y1001251D01*
X1554552Y1000875D01*
X1555022Y1000680D01*
X1556400Y1001251D01*
X1556595Y1001721D01*
X1556941Y1002558D01*
X1565995Y1011612D01*
X1566407Y1012607D01*
Y1021000D01*
X1565995Y1021995D01*
X1520407Y1067583D01*
Y1076000D01*
X1519995Y1076995D01*
X1497407Y1099583D01*
Y1169000D01*
X1496995Y1169995D01*
X1460995Y1205995D01*
X1460000Y1206407D01*
D02*
G37*
G36*
X1528523Y1024163D02*
X1523529Y1023170D01*
X1519295Y1020341D01*
X1516466Y1016107D01*
X1515472Y1011113D01*
X1516466Y1006118D01*
X1519295Y1001884D01*
X1523529Y999055D01*
X1528523Y998062D01*
X1533518Y999055D01*
X1537751Y1001884D01*
X1540581Y1006118D01*
X1541574Y1011113D01*
X1540581Y1016107D01*
X1537751Y1020341D01*
X1533518Y1023170D01*
X1528523Y1024163D01*
D02*
G37*
G36*
X1390211Y1001536D02*
X1388833Y1000966D01*
X1388262Y999588D01*
X1388833Y998211D01*
X1390211Y997640D01*
X1391588Y998211D01*
X1392159Y999588D01*
X1391588Y1000966D01*
X1390211Y1001536D01*
D02*
G37*
G36*
X1429000Y996948D02*
X1427622Y996378D01*
X1427052Y995000D01*
X1427622Y993622D01*
X1429000Y993052D01*
X1430378Y993622D01*
X1430948Y995000D01*
X1430378Y996378D01*
X1429000Y996948D01*
D02*
G37*
G36*
X1567414Y1005911D02*
X1562592Y1003913D01*
X1560595Y999092D01*
X1562592Y994270D01*
X1567414Y992273D01*
X1572236Y994270D01*
X1574233Y999092D01*
X1572236Y1003913D01*
X1567414Y1005911D01*
D02*
G37*
G36*
X1527722Y996091D02*
X1526344Y995520D01*
X1525773Y994142D01*
X1526344Y992765D01*
X1527722Y992194D01*
X1529099Y992765D01*
X1529670Y994142D01*
X1529099Y995520D01*
X1527722Y996091D01*
D02*
G37*
G36*
X1388230Y1051590D02*
X1386853Y1051020D01*
X1386282Y1049642D01*
X1386853Y1048264D01*
X1388159Y1047723D01*
X1434877Y1001005D01*
X1435872Y1000593D01*
X1474086D01*
X1484081Y990598D01*
X1484428Y989761D01*
X1484622Y989291D01*
X1486000Y988721D01*
X1486470Y988915D01*
X1487378Y989291D01*
X1487754Y990199D01*
X1487948Y990669D01*
X1487378Y992047D01*
X1486908Y992241D01*
X1486071Y992588D01*
X1475664Y1002995D01*
X1474669Y1003407D01*
X1436455D01*
X1390149Y1049713D01*
X1389608Y1051020D01*
X1388230Y1051590D01*
D02*
G37*
G36*
X1515000Y984948D02*
X1513622Y984378D01*
X1513052Y983000D01*
X1513622Y981622D01*
X1515000Y981052D01*
X1516378Y981622D01*
X1516948Y983000D01*
X1516378Y984378D01*
X1515000Y984948D01*
D02*
G37*
G36*
X1460212Y980948D02*
X1458834Y980378D01*
X1458264Y979000D01*
X1458834Y977622D01*
X1460212Y977052D01*
X1461590Y977622D01*
X1462160Y979000D01*
X1461590Y980378D01*
X1460212Y980948D01*
D02*
G37*
G36*
X1451232D02*
X1449854Y980378D01*
X1449283Y979000D01*
X1449854Y977622D01*
X1451232Y977052D01*
X1452609Y977622D01*
X1453180Y979000D01*
X1452609Y980378D01*
X1451232Y980948D01*
D02*
G37*
G36*
X1418000Y978948D02*
X1416622Y978378D01*
X1416052Y977000D01*
X1416622Y975622D01*
X1418000Y975052D01*
X1419378Y975622D01*
X1419948Y977000D01*
X1419378Y978378D01*
X1418000Y978948D01*
D02*
G37*
G36*
X1466000Y974948D02*
X1464622Y974378D01*
X1464052Y973000D01*
X1464622Y971622D01*
X1466000Y971052D01*
X1467378Y971622D01*
X1467948Y973000D01*
X1467378Y974378D01*
X1466000Y974948D01*
D02*
G37*
G36*
X1425000D02*
X1423622Y974378D01*
X1423052Y973000D01*
X1423622Y971622D01*
X1425000Y971052D01*
X1426378Y971622D01*
X1426948Y973000D01*
X1426378Y974378D01*
X1425000Y974948D01*
D02*
G37*
G36*
X1380542Y967613D02*
X1379164Y967042D01*
X1378593Y965665D01*
X1379164Y964287D01*
X1380542Y963717D01*
X1381919Y964287D01*
X1382490Y965665D01*
X1381919Y967042D01*
X1380542Y967613D01*
D02*
G37*
G36*
X1563878Y988808D02*
X1558884Y987815D01*
X1554650Y984986D01*
X1551821Y980752D01*
X1550828Y975757D01*
X1551821Y970763D01*
X1554650Y966529D01*
X1558884Y963700D01*
X1563878Y962706D01*
X1568873Y963700D01*
X1573107Y966529D01*
X1575936Y970763D01*
X1576929Y975757D01*
X1575936Y980752D01*
X1573107Y984986D01*
X1568873Y987815D01*
X1563878Y988808D01*
D02*
G37*
G36*
X1487511Y983151D02*
X1482517Y982158D01*
X1478283Y979329D01*
X1475454Y975095D01*
X1474461Y970101D01*
X1475454Y965106D01*
X1478283Y960872D01*
X1482517Y958043D01*
X1487511Y957050D01*
X1492506Y958043D01*
X1496740Y960872D01*
X1499569Y965106D01*
X1500562Y970101D01*
X1499569Y975095D01*
X1496740Y979329D01*
X1492506Y982158D01*
X1487511Y983151D01*
D02*
G37*
G36*
X1537000Y952948D02*
X1535622Y952378D01*
X1535052Y951000D01*
X1535622Y949622D01*
X1537000Y949052D01*
X1538378Y949622D01*
X1538948Y951000D01*
X1538378Y952378D01*
X1537000Y952948D01*
D02*
G37*
G36*
X1505189Y959242D02*
X1500367Y957245D01*
X1498370Y952423D01*
X1500367Y947601D01*
X1505189Y945604D01*
X1510011Y947601D01*
X1512008Y952423D01*
X1510011Y957245D01*
X1505189Y959242D01*
D02*
G37*
G36*
X1496071Y935948D02*
X1494693Y935378D01*
X1494123Y934000D01*
X1494693Y932622D01*
X1496071Y932052D01*
X1497449Y932622D01*
X1498019Y934000D01*
X1497449Y935378D01*
X1496071Y935948D01*
D02*
G37*
G36*
X1490000Y929948D02*
X1488622Y929378D01*
X1488052Y928000D01*
X1488622Y926622D01*
X1490000Y926052D01*
X1491378Y926622D01*
X1491948Y928000D01*
X1491378Y929378D01*
X1490000Y929948D01*
D02*
G37*
G36*
X1498000Y928948D02*
X1496622Y928378D01*
X1496052Y927000D01*
X1496622Y925622D01*
X1498000Y925052D01*
X1499378Y925622D01*
X1499948Y927000D01*
X1499378Y928378D01*
X1498000Y928948D01*
D02*
G37*
G36*
X1504201Y931149D02*
X1502823Y930578D01*
X1502253Y929201D01*
X1502750Y928000D01*
X1502823Y927823D01*
X1503634Y926020D01*
X1503240Y925071D01*
X1503811Y923693D01*
X1505189Y923123D01*
X1506566Y923693D01*
X1507137Y925071D01*
X1506640Y926271D01*
X1506566Y926449D01*
X1505756Y928251D01*
X1506149Y929201D01*
X1505578Y930578D01*
X1504201Y931149D01*
D02*
G37*
G36*
X1522867Y947796D02*
X1517872Y946803D01*
X1513638Y943974D01*
X1510809Y939740D01*
X1509816Y934745D01*
X1510809Y929751D01*
X1513638Y925517D01*
X1517872Y922688D01*
X1522867Y921695D01*
X1527861Y922688D01*
X1532095Y925517D01*
X1534924Y929751D01*
X1535918Y934745D01*
X1534924Y939740D01*
X1532095Y943974D01*
X1527861Y946803D01*
X1522867Y947796D01*
D02*
G37*
G36*
X1466000Y923948D02*
X1464622Y923378D01*
X1464052Y922000D01*
X1464622Y920622D01*
X1466000Y920052D01*
X1467378Y920622D01*
X1467948Y922000D01*
X1467378Y923378D01*
X1466000Y923948D01*
D02*
G37*
G36*
X1499000Y920948D02*
X1497622Y920378D01*
X1497052Y919000D01*
X1497622Y917622D01*
X1499000Y917052D01*
X1500378Y917622D01*
X1500948Y919000D01*
X1500378Y920378D01*
X1499000Y920948D01*
D02*
G37*
G36*
X1401910Y918625D02*
X1393644Y915201D01*
X1390220Y906935D01*
X1393644Y898669D01*
X1401910Y895245D01*
X1410175Y898669D01*
X1413599Y906935D01*
X1410175Y915201D01*
X1401910Y918625D01*
D02*
G37*
%LPD*%
G36*
X1388952Y1115229D02*
X1389493Y1113923D01*
Y1109790D01*
X1389905Y1108795D01*
X1399125Y1099575D01*
X1398282Y1097590D01*
X1397236Y1097157D01*
X1397068Y1096750D01*
X1394818Y1096172D01*
X1385849Y1105141D01*
X1384854Y1105554D01*
X1384818D01*
X1383982Y1105900D01*
X1383512Y1106095D01*
X1382134Y1105524D01*
X1381939Y1105054D01*
X1381563Y1104146D01*
X1382134Y1102769D01*
X1383512Y1102198D01*
X1384431Y1102579D01*
X1393092Y1093918D01*
X1392359Y1091823D01*
X1391579Y1091499D01*
X1390052Y1091196D01*
X1385253Y1095995D01*
X1384258Y1096407D01*
X1369900D01*
X1368905Y1095995D01*
X1353696Y1080786D01*
X1351360Y1081279D01*
X1351278Y1081478D01*
X1349900Y1082048D01*
X1348522Y1081478D01*
X1348328Y1081008D01*
X1347952Y1080100D01*
X1348522Y1078722D01*
X1348721Y1078640D01*
X1349214Y1076304D01*
X1334360Y1061450D01*
X1332091Y1061619D01*
X1331994Y1061763D01*
X1331453Y1063070D01*
Y1082717D01*
X1354119Y1105383D01*
X1364451D01*
X1365283Y1103383D01*
X1364867Y1102379D01*
X1365437Y1101001D01*
X1366815Y1100430D01*
X1367723Y1100806D01*
X1368193Y1101001D01*
X1368763Y1102379D01*
X1368347Y1103383D01*
X1369179Y1105383D01*
X1371790D01*
X1372785Y1105795D01*
X1383583Y1116593D01*
X1388041D01*
X1388952Y1115229D01*
D02*
G37*
%LPC*%
G36*
X1353780Y1100148D02*
X1352402Y1099578D01*
X1351831Y1098200D01*
X1352402Y1096822D01*
X1353780Y1096252D01*
X1355157Y1096822D01*
X1355728Y1098200D01*
X1355157Y1099578D01*
X1353780Y1100148D01*
D02*
G37*
G36*
X1339879Y1078928D02*
X1338502Y1078357D01*
X1337931Y1076979D01*
X1338502Y1075602D01*
X1339879Y1075031D01*
X1341257Y1075602D01*
X1341828Y1076979D01*
X1341257Y1078357D01*
X1339879Y1078928D01*
D02*
G37*
%LPD*%
G54D10*
X1519000Y1067000D02*
Y1076000D01*
X1496000Y1099000D02*
X1519000Y1076000D01*
X1496000Y1099000D02*
Y1169000D01*
X1538000Y958000D02*
X1548000Y968000D01*
X1529000Y958000D02*
X1538000D01*
X1472153Y1014847D02*
X1529000Y958000D01*
X1304263Y1145000D02*
X1369298D01*
X1296602Y1137338D02*
X1304263Y1145000D01*
X1369298D02*
X1389955Y1124343D01*
X1430000Y901000D02*
X1430000Y901000D01*
X1346000Y1017000D02*
X1430000Y933000D01*
Y901000D02*
Y933000D01*
X1364000Y1060879D02*
Y1065000D01*
X1346000Y1042879D02*
X1364000Y1060879D01*
X1346000Y1017000D02*
Y1042879D01*
X1358000Y1039000D02*
X1369900Y1050900D01*
X1358000Y1023000D02*
Y1039000D01*
Y1023000D02*
X1436000Y945000D01*
Y901000D02*
Y945000D01*
X1313463Y1059463D02*
X1334363D01*
X1306000Y1052000D02*
X1313463Y1059463D01*
X1306000Y1046000D02*
Y1052000D01*
X1373000Y1083000D02*
X1381345D01*
X1339364Y1049364D02*
X1373000Y1083000D01*
X1328364Y1049364D02*
X1339364D01*
X1384258Y1095000D02*
X1409928Y1069330D01*
Y1068135D02*
Y1069330D01*
Y1068135D02*
X1417989Y1060074D01*
X1421241D01*
X1369900Y1095000D02*
X1384258D01*
X1426345Y1038000D02*
X1449000D01*
X1381345Y1083000D02*
X1426345Y1038000D01*
X1472153Y1014847D02*
Y1044150D01*
X1414000Y1102139D02*
Y1109627D01*
X1399284Y1124343D02*
X1414000Y1109627D01*
X1389955Y1124343D02*
X1399284D01*
X1414000Y1102139D02*
X1415585Y1100554D01*
X1414900Y1170200D02*
X1436800Y1192100D01*
X1414900Y1128443D02*
X1420000Y1123343D01*
X1414900Y1128443D02*
Y1170200D01*
X1420000Y1108334D02*
Y1123343D01*
X1426898Y1112000D02*
Y1125417D01*
X1420000Y1132315D02*
X1426898Y1125417D01*
X1420000Y1132315D02*
Y1162130D01*
X1457900Y1192100D02*
X1479000Y1171000D01*
Y1105000D02*
Y1171000D01*
Y1105000D02*
X1494000Y1090000D01*
X1460000Y1205000D02*
X1496000Y1169000D01*
X1480000Y1051996D02*
Y1075000D01*
X1459000Y1096000D02*
X1480000Y1075000D01*
X1459000Y1096000D02*
Y1167300D01*
X1450300Y1176000D02*
X1459000Y1167300D01*
X1383000Y1118000D02*
X1398000D01*
X1371790Y1106790D02*
X1383000Y1118000D01*
X1353536Y1106790D02*
X1371790D01*
X1379710Y1075710D02*
X1381644D01*
X1369900Y1065900D02*
X1379710Y1075710D01*
X1442000Y1047000D02*
X1451000D01*
X1384854Y1104146D02*
X1442000Y1047000D01*
X1383512Y1104146D02*
X1384854D01*
X1494000Y1047453D02*
Y1090000D01*
X1435872Y1002000D02*
X1474669D01*
X1388230Y1049642D02*
X1435872Y1002000D01*
X1474669D02*
X1486000Y990669D01*
X1369900Y1050900D02*
Y1065900D01*
X1325636Y1054000D02*
X1337000D01*
X1312000Y1040364D02*
X1325636Y1054000D01*
X1312000Y1035000D02*
Y1040364D01*
X1337000Y1054000D02*
X1372240Y1089240D01*
X1334363Y1059463D02*
X1369900Y1095000D01*
X1330046Y1083299D02*
X1353536Y1106790D01*
X1330046Y1061763D02*
Y1083299D01*
X1294000Y1034000D02*
X1306000Y1046000D01*
X1294000Y1025000D02*
Y1034000D01*
X1372240Y1089240D02*
X1381300D01*
X1483000Y1036453D02*
X1494000Y1047453D01*
X1469000Y1139000D02*
Y1171000D01*
X1466000Y1136000D02*
X1469000Y1139000D01*
X1466000Y1105000D02*
Y1136000D01*
Y1105000D02*
X1486000Y1085000D01*
Y1050000D02*
Y1085000D01*
X1478000Y1042000D02*
X1486000Y1050000D01*
X1478000Y1024000D02*
Y1042000D01*
X1472153Y1044150D02*
X1480000Y1051996D01*
X1406400Y1105154D02*
X1433436Y1078117D01*
X1406400Y1105154D02*
Y1109600D01*
X1433436Y1072270D02*
Y1078117D01*
X1555022Y1002629D02*
X1565000Y1012607D01*
X1519000Y1067000D02*
X1565000Y1021000D01*
Y1012607D02*
Y1021000D01*
X1403500Y1181220D02*
X1427280Y1205000D01*
X1460000D01*
X1403500Y1153000D02*
Y1181220D01*
X1409408Y1123300D02*
Y1147092D01*
X1403500Y1153000D02*
X1409408Y1147092D01*
X1478000Y1024000D02*
X1510000Y992000D01*
X1483000Y1031000D02*
X1509000Y1005000D01*
X1483000Y1031000D02*
Y1036453D01*
X1509000Y1005000D02*
X1509062D01*
X1457157Y1182843D02*
X1469000Y1171000D01*
X1440714Y1182843D02*
X1457157D01*
X1420000Y1162130D02*
X1440714Y1182843D01*
X1420000Y1108334D02*
X1432555Y1095779D01*
X1436800Y1192100D02*
X1457900D01*
X1432555Y1117227D02*
Y1164555D01*
X1444000Y1176000D01*
X1448388D02*
X1450300D01*
X1448359Y1176029D02*
X1448388Y1176000D01*
X1446447Y1176029D02*
X1448359D01*
X1446418Y1176000D02*
X1446447Y1176029D01*
X1444000Y1176000D02*
X1446418D01*
X1398000Y1118000D02*
X1406400Y1109600D01*
X1460840Y1066613D02*
X1465000Y1062453D01*
Y1054000D02*
Y1062453D01*
X1449000Y1038000D02*
X1465000Y1054000D01*
X1453387Y1066613D02*
X1460000Y1060000D01*
Y1056000D02*
Y1060000D01*
X1451000Y1047000D02*
X1460000Y1056000D01*
X1449526Y1065731D02*
X1449729D01*
X1450612Y1066613D01*
X1453387D01*
X1390900Y1109790D02*
X1444690Y1056000D01*
X1390900Y1109790D02*
Y1115229D01*
X1450227Y1056000D02*
X1455183Y1060956D01*
X1444690Y1056000D02*
X1450227D01*
X1438212Y1065731D02*
X1443731D01*
X1452000Y1074000D01*
Y1100554D01*
X1447400Y1105154D02*
Y1173729D01*
Y1105154D02*
X1452000Y1100554D01*
X1443869Y1071387D02*
Y1078869D01*
X1448000Y1083000D02*
Y1096000D01*
X1443869Y1078869D02*
X1448000Y1083000D01*
X1441364Y1102636D02*
Y1161364D01*
Y1102636D02*
X1448000Y1096000D01*
G54D11*
X1481000Y1232000D02*
X1484000Y1235000D01*
X1414000Y1232000D02*
X1481000D01*
X1393000Y1211000D02*
X1414000Y1232000D01*
X1393000Y1202000D02*
Y1211000D01*
X1422410Y1224000D02*
X1463000D01*
X1471000Y1216000D01*
X1390410Y1192000D02*
X1422410Y1224000D01*
X1378584Y1192000D02*
X1390410D01*
X1318305Y957182D02*
X1323960Y962837D01*
X1327730Y959067D01*
X1332442Y954355D02*
X1326788Y948700D01*
X1326788Y954355D01*
X1330558Y950585D01*
G54D24*
X1421745Y903000D02*
D03*
G54D30*
X1317000Y1182000D02*
D03*
X1327000Y1172000D02*
D03*
Y1182000D02*
D03*
X1337000Y1172000D02*
D03*
X1598000Y1109044D02*
D03*
X1597000Y1036000D02*
D03*
Y1026000D02*
D03*
X1587000Y1036000D02*
D03*
X1577000D02*
D03*
Y1026000D02*
D03*
X1587000D02*
D03*
X1275970Y978929D02*
D03*
X1268899Y986000D02*
D03*
X1283041Y986000D02*
D03*
X1290112Y993071D02*
D03*
X1283041Y1000142D02*
D03*
X1275970Y993071D02*
D03*
X1334142Y919929D02*
D03*
X1327071Y927000D02*
D03*
X1341213Y927000D02*
D03*
X1348284Y934071D02*
D03*
X1334142D02*
D03*
X1389929Y1222929D02*
D03*
X1382858Y1230000D02*
D03*
X1397000Y1230000D02*
D03*
X1389929Y1237071D02*
D03*
X1330960Y1216702D02*
D03*
G54D31*
X1369201Y1249201D02*
D03*
X1589201Y1089201D02*
D03*
Y1049201D02*
D03*
X1569201Y1009201D02*
D03*
X1579201Y989201D02*
D03*
X1549201Y1209201D02*
D03*
Y1169201D02*
D03*
X1559201Y989201D02*
D03*
Y949201D02*
D03*
X1539201Y1069201D02*
D03*
Y1029201D02*
D03*
X1519201Y1189201D02*
D03*
X1509201Y1009201D02*
D03*
X1519201Y949201D02*
D03*
X1509201Y929201D02*
D03*
X1499201Y1029201D02*
D03*
X1489201Y1009201D02*
D03*
X1499201Y909201D02*
D03*
X1469201Y1209201D02*
D03*
X1479201Y1189201D02*
D03*
X1469201Y1049201D02*
D03*
X1449201Y1009201D02*
D03*
Y929201D02*
D03*
X1399201Y949201D02*
D03*
X1379201Y989201D02*
D03*
X1369201Y929201D02*
D03*
X1379201Y909201D02*
D03*
X1349201Y1169201D02*
D03*
X1359201Y1149201D02*
D03*
X1349201Y1009201D02*
D03*
X1359201Y909201D02*
D03*
X1329201Y1089201D02*
D03*
Y1009201D02*
D03*
X1339201Y989201D02*
D03*
X1309201Y1209201D02*
D03*
X1319201Y1029201D02*
D03*
X1309201Y1009201D02*
D03*
X1319201Y989201D02*
D03*
X1309201Y969201D02*
D03*
X1319201Y949201D02*
D03*
X1299201Y1029201D02*
D03*
X1289201Y969201D02*
D03*
X1299201Y949201D02*
D03*
X1279201Y1029201D02*
D03*
X1573000Y1176000D02*
D03*
X1322000Y1017000D02*
D03*
X1289447Y1036283D02*
D03*
X1480000Y910000D02*
D03*
X1472000Y911000D02*
D03*
X1481000Y902000D02*
D03*
X1478071Y917000D02*
D03*
X1487189Y908071D02*
D03*
X1576000Y1091000D02*
D03*
X1385568Y1155000D02*
D03*
X1296602Y1137338D02*
D03*
X1430000Y901000D02*
D03*
X1381644Y1075710D02*
D03*
X1388230Y1049642D02*
D03*
X1486000Y990669D02*
D03*
X1330046Y1061763D02*
D03*
X1294000Y1025000D02*
D03*
X1312000Y1035000D02*
D03*
X1489244Y1159586D02*
D03*
X1421241Y1095000D02*
D03*
X1471000Y1216000D02*
D03*
X1378584Y1192000D02*
D03*
X1484000Y1235000D02*
D03*
X1393000Y1202000D02*
D03*
X1409408Y1123300D02*
D03*
X1509062Y1005000D02*
D03*
X1510000Y992000D02*
D03*
X1455900Y1199200D02*
D03*
X1381300Y1089240D02*
D03*
X1415585Y1100554D02*
D03*
X1455183Y1060956D02*
D03*
X1460840Y1066613D02*
D03*
X1432555Y1117227D02*
D03*
X1426898Y1112000D02*
D03*
X1436000Y901000D02*
D03*
X1364000Y1065000D02*
D03*
X1383512Y1104146D02*
D03*
X1555022Y1002629D02*
D03*
X1548000Y968000D02*
D03*
X1256000Y1121000D02*
D03*
X1248719Y1053281D02*
D03*
X1555393Y1038000D02*
D03*
X1433436Y1072270D02*
D03*
X1432555Y1084465D02*
D03*
X1438212Y1065731D02*
D03*
X1443869Y1071387D02*
D03*
X1421241Y1060074D02*
D03*
X1432555Y1095779D02*
D03*
X1449526Y1065731D02*
D03*
X1398614Y1071387D02*
D03*
X1417200Y1148900D02*
D03*
X1402410Y1198500D02*
D03*
X1431500Y1209800D02*
D03*
X1441364Y1161364D02*
D03*
X1447400Y1173729D02*
D03*
X1360700Y1090400D02*
D03*
X1399400Y1140700D02*
D03*
X1345910Y1140000D02*
D03*
X1375000Y1151300D02*
D03*
X1390900Y1115229D02*
D03*
X1342900Y1087200D02*
D03*
X1289411Y1086500D02*
D03*
X1304200Y1036900D02*
D03*
X1318500Y1097800D02*
D03*
X1328364Y1049364D02*
D03*
G54D92*
X1384232Y924613D02*
D03*
G54D103*
X1382613Y955000D02*
X1421745Y915867D01*
X1344000Y955000D02*
X1382613D01*
X1270500Y1028500D02*
X1344000Y955000D01*
X1309000Y1162000D02*
Y1194743D01*
X1330960Y1216702D01*
X1270500Y1123500D02*
X1309000Y1162000D01*
X1270500Y1028500D02*
Y1123500D01*
X1421745Y903000D02*
Y915867D01*
M02*
