G04*
G04 #@! TF.GenerationSoftware,Altium Limited,Altium Designer,20.0.13 (296)*
G04*
G04 Layer_Physical_Order=5*
G04 Layer_Color=128*
%FSLAX44Y44*%
%MOMM*%
G71*
G01*
G75*
%ADD11C,0.2000*%
%ADD24C,0.5000*%
%ADD93C,1.0160*%
%ADD95C,0.7000*%
%ADD96C,0.8000*%
%ADD97C,1.5000*%
%ADD98C,2.7000*%
%ADD99C,1.4000*%
%ADD100C,0.4500*%
%ADD101C,0.6000*%
G04:AMPARAMS|DCode=104|XSize=1.22mm|YSize=1.7044mm|CornerRadius=0mm|HoleSize=0mm|Usage=FLASHONLY|Rotation=45.000|XOffset=0mm|YOffset=0mm|HoleType=Round|Shape=Rectangle|*
%AMROTATEDRECTD104*
4,1,4,0.1712,-1.0339,-1.0339,0.1712,-0.1712,1.0339,1.0339,-0.1712,0.1712,-1.0339,0.0*
%
%ADD104ROTATEDRECTD104*%

G54D11*
X1500000Y1139000D02*
X1533000Y1106000D01*
X1478747Y1139000D02*
X1500000D01*
X1459313Y1158434D02*
X1478747Y1139000D01*
X1441940Y1141060D02*
X1459313Y1158434D01*
X1441940Y1141060D02*
X1455000Y1128000D01*
X1493000D01*
X1524000Y1097000D01*
Y1072389D02*
Y1097000D01*
X1500611Y1049000D02*
X1524000Y1072389D01*
X1453316Y1049000D02*
X1500611D01*
X1393158Y988842D02*
X1453316Y1049000D01*
X1393158Y988842D02*
X1415500Y966500D01*
X1423000Y974000D01*
Y999000D01*
X1459000Y1035000D01*
X1506000D01*
X1561500Y1090500D01*
X1540000Y1112000D02*
X1561500Y1090500D01*
X1533500Y1105500D02*
X1540000Y1112000D01*
X1305305Y970182D02*
X1310960Y975837D01*
X1314730Y972067D01*
Y960757D02*
X1310960Y964527D01*
X1313788Y967355D01*
X1314730Y964527D01*
X1315672Y963585D01*
X1317558D01*
X1319442Y965470D01*
X1319442Y967355D01*
X1317558Y969240D01*
X1315672D01*
G54D24*
X1317000Y1182000D02*
D03*
X1327000Y1172000D02*
D03*
Y1182000D02*
D03*
X1337000Y1172000D02*
D03*
X1598000Y1109044D02*
D03*
X1597000Y1036000D02*
D03*
Y1026000D02*
D03*
X1587000Y1036000D02*
D03*
X1577000D02*
D03*
Y1026000D02*
D03*
X1587000D02*
D03*
X1275970Y978929D02*
D03*
X1268899Y986000D02*
D03*
X1283041Y986000D02*
D03*
X1290112Y993071D02*
D03*
X1283041Y1000142D02*
D03*
X1275970Y993071D02*
D03*
X1334142Y919929D02*
D03*
X1327071Y927000D02*
D03*
X1341213Y927000D02*
D03*
X1348284Y934071D02*
D03*
X1341213Y941142D02*
D03*
X1334142Y934071D02*
D03*
X1389929Y1222929D02*
D03*
X1382858Y1230000D02*
D03*
X1397000Y1230000D02*
D03*
X1389929Y1237071D02*
D03*
X1330960Y1216702D02*
D03*
X1350960Y1196702D02*
D03*
X1340960Y1206702D02*
D03*
X1350960D02*
D03*
X1330960Y1226702D02*
D03*
X1340960Y1216702D02*
D03*
X1360960Y1196702D02*
D03*
X1370960Y1206702D02*
D03*
X1350960Y1226702D02*
D03*
X1340960Y1236702D02*
D03*
X1360960Y1216702D02*
D03*
X1350960D02*
D03*
X1360960Y1206702D02*
D03*
X1340960Y1226702D02*
D03*
G54D93*
X1237000Y1075000D02*
X1237017Y1072471D01*
X1237067Y1069942D01*
X1237151Y1067414D01*
X1237269Y1064888D01*
X1237421Y1062363D01*
X1237606Y1059841D01*
X1237824Y1057321D01*
X1238076Y1054804D01*
X1238362Y1052291D01*
X1238681Y1049782D01*
X1239033Y1047278D01*
X1239419Y1044778D01*
X1239838Y1042284D01*
X1240290Y1039795D01*
X1240775Y1037313D01*
X1241293Y1034837D01*
X1241844Y1032369D01*
X1242428Y1029908D01*
X1243045Y1027455D01*
X1243694Y1025011D01*
X1244376Y1022575D01*
X1245090Y1020149D01*
X1245836Y1017732D01*
X1246614Y1015325D01*
X1247425Y1012930D01*
X1248267Y1010545D01*
X1249141Y1008171D01*
X1250046Y1005810D01*
X1250983Y1003460D01*
X1251951Y1001124D01*
X1252950Y998800D01*
X1253979Y996490D01*
X1255040Y994194D01*
X1256131Y991912D01*
X1257252Y989645D01*
X1258403Y987393D01*
X1259584Y985156D01*
X1260795Y982935D01*
X1262035Y980731D01*
X1263305Y978544D01*
X1264603Y976373D01*
X1265930Y974220D01*
X1267286Y972085D01*
X1268670Y969968D01*
X1270082Y967870D01*
X1271522Y965790D01*
X1272990Y963731D01*
X1274485Y961690D01*
X1276006Y959670D01*
X1277555Y957671D01*
X1279130Y955692D01*
X1280731Y953734D01*
X1282359Y951797D01*
X1284011Y949883D01*
X1285690Y947991D01*
X1287393Y946121D01*
X1289121Y944274D01*
X1290873Y942450D01*
X1292650Y940650D01*
X1294450Y938873D01*
X1296274Y937121D01*
X1298121Y935393D01*
X1299990Y933690D01*
X1301883Y932012D01*
X1303797Y930359D01*
X1305733Y928732D01*
X1307691Y927131D01*
X1309670Y925555D01*
X1311670Y924007D01*
X1313690Y922485D01*
X1315730Y920990D01*
X1317790Y919523D01*
X1319869Y918083D01*
X1321968Y916671D01*
X1324085Y915286D01*
X1326220Y913931D01*
X1328373Y912603D01*
X1330543Y911305D01*
X1332731Y910035D01*
X1334935Y908795D01*
X1337156Y907584D01*
X1339392Y906403D01*
X1341644Y905252D01*
X1343911Y904131D01*
X1346193Y903040D01*
X1348489Y901980D01*
X1350799Y900950D01*
X1353123Y899951D01*
X1355460Y898983D01*
X1357809Y898046D01*
X1360171Y897141D01*
X1362544Y896267D01*
X1364929Y895425D01*
X1367325Y894615D01*
X1369731Y893836D01*
X1372148Y893090D01*
X1374574Y892376D01*
X1377010Y891694D01*
X1379455Y891045D01*
X1381908Y890428D01*
X1384368Y889845D01*
X1386837Y889293D01*
X1389313Y888775D01*
X1391795Y888290D01*
X1394283Y887838D01*
X1396778Y887419D01*
X1399277Y887033D01*
X1401782Y886681D01*
X1404291Y886362D01*
X1406804Y886076D01*
X1409321Y885824D01*
X1411841Y885606D01*
X1414363Y885421D01*
X1416888Y885269D01*
X1419415Y885152D01*
X1421942Y885067D01*
X1424471Y885017D01*
X1427000Y885000D01*
X1429529Y885017D01*
X1432058Y885067D01*
X1434586Y885152D01*
X1437112Y885269D01*
X1439637Y885421D01*
X1442160Y885606D01*
X1444679Y885824D01*
X1447196Y886076D01*
X1449709Y886362D01*
X1452218Y886681D01*
X1454723Y887033D01*
X1457223Y887419D01*
X1459717Y887838D01*
X1462206Y888290D01*
X1464688Y888775D01*
X1467163Y889294D01*
X1469632Y889845D01*
X1472093Y890428D01*
X1474546Y891045D01*
X1476990Y891694D01*
X1479426Y892376D01*
X1481852Y893090D01*
X1484269Y893836D01*
X1486676Y894615D01*
X1489072Y895425D01*
X1491456Y896267D01*
X1493830Y897141D01*
X1496192Y898047D01*
X1498541Y898983D01*
X1500878Y899951D01*
X1503201Y900950D01*
X1505512Y901980D01*
X1507808Y903040D01*
X1510090Y904131D01*
X1512357Y905253D01*
X1514609Y906404D01*
X1516846Y907585D01*
X1519066Y908796D01*
X1521270Y910036D01*
X1523458Y911306D01*
X1525629Y912604D01*
X1527782Y913932D01*
X1529917Y915287D01*
X1532034Y916672D01*
X1534132Y918084D01*
X1536211Y919524D01*
X1538271Y920991D01*
X1540312Y922486D01*
X1542332Y924008D01*
X1544332Y925557D01*
X1546310Y927132D01*
X1548268Y928733D01*
X1550204Y930360D01*
X1552119Y932013D01*
X1554011Y933691D01*
X1555881Y935395D01*
X1557728Y937123D01*
X1559552Y938875D01*
X1561352Y940652D01*
X1563129Y942452D01*
X1564881Y944276D01*
X1566609Y946123D01*
X1568312Y947993D01*
X1569990Y949885D01*
X1571643Y951800D01*
X1573270Y953736D01*
X1574872Y955694D01*
X1576447Y957673D01*
X1577995Y959673D01*
X1579517Y961693D01*
X1581012Y963733D01*
X1582479Y965793D01*
X1583919Y967872D01*
X1585332Y969971D01*
X1586716Y972088D01*
X1588071Y974223D01*
X1589399Y976376D01*
X1590697Y978547D01*
X1591967Y980734D01*
X1593207Y982939D01*
X1594418Y985159D01*
X1595599Y987396D01*
X1596750Y989648D01*
X1597871Y991915D01*
X1598962Y994197D01*
X1600022Y996493D01*
X1601052Y998803D01*
X1602051Y1001127D01*
X1603019Y1003464D01*
X1603955Y1005813D01*
X1604861Y1008175D01*
X1605735Y1010549D01*
X1606577Y1012934D01*
X1607387Y1015330D01*
X1608165Y1017736D01*
X1608911Y1020153D01*
X1609626Y1022579D01*
X1610307Y1025015D01*
X1610956Y1027459D01*
X1611573Y1029912D01*
X1612157Y1032373D01*
X1612708Y1034842D01*
X1613226Y1037318D01*
X1613711Y1039800D01*
X1614163Y1042288D01*
X1614582Y1044783D01*
X1614967Y1047282D01*
X1615320Y1049787D01*
X1615639Y1052296D01*
X1615924Y1054809D01*
X1616176Y1057326D01*
X1616395Y1059846D01*
X1616580Y1062368D01*
X1616731Y1064893D01*
X1616849Y1067420D01*
X1616933Y1069948D01*
X1616983Y1072476D01*
X1617000Y1075000D01*
X1616983Y1077529D01*
X1616933Y1080058D01*
X1616848Y1082586D01*
X1616731Y1085112D01*
X1616579Y1087637D01*
X1616394Y1090159D01*
X1616176Y1092679D01*
X1615924Y1095196D01*
X1615638Y1097709D01*
X1615319Y1100218D01*
X1614967Y1102722D01*
X1614581Y1105222D01*
X1614162Y1107716D01*
X1613710Y1110205D01*
X1613225Y1112687D01*
X1612707Y1115163D01*
X1612156Y1117631D01*
X1611572Y1120092D01*
X1610955Y1122545D01*
X1610306Y1124989D01*
X1609624Y1127425D01*
X1608910Y1129852D01*
X1608164Y1132268D01*
X1607386Y1134675D01*
X1606575Y1137070D01*
X1605733Y1139455D01*
X1604859Y1141829D01*
X1603954Y1144191D01*
X1603017Y1146540D01*
X1602049Y1148877D01*
X1601050Y1151200D01*
X1600021Y1153510D01*
X1598960Y1155807D01*
X1597869Y1158088D01*
X1596748Y1160356D01*
X1595597Y1162608D01*
X1594416Y1164844D01*
X1593205Y1167065D01*
X1591965Y1169269D01*
X1590695Y1171457D01*
X1589397Y1173627D01*
X1588069Y1175780D01*
X1586714Y1177915D01*
X1585330Y1180032D01*
X1583918Y1182130D01*
X1582478Y1184210D01*
X1581010Y1186270D01*
X1579515Y1188310D01*
X1577993Y1190330D01*
X1576445Y1192330D01*
X1574870Y1194309D01*
X1573268Y1196266D01*
X1571641Y1198203D01*
X1569989Y1200117D01*
X1568310Y1202010D01*
X1566607Y1203879D01*
X1564879Y1205726D01*
X1563127Y1207550D01*
X1561350Y1209350D01*
X1559550Y1211127D01*
X1557726Y1212879D01*
X1555879Y1214607D01*
X1554010Y1216310D01*
X1552117Y1217988D01*
X1550203Y1219641D01*
X1548266Y1221268D01*
X1546309Y1222870D01*
X1544330Y1224445D01*
X1542330Y1225993D01*
X1540310Y1227515D01*
X1538270Y1229010D01*
X1536210Y1230478D01*
X1534130Y1231917D01*
X1532032Y1233330D01*
X1529915Y1234714D01*
X1527780Y1236069D01*
X1525627Y1237397D01*
X1523457Y1238695D01*
X1521269Y1239965D01*
X1519065Y1241205D01*
X1516844Y1242416D01*
X1514608Y1243597D01*
X1512356Y1244748D01*
X1510089Y1245869D01*
X1507807Y1246960D01*
X1505510Y1248021D01*
X1503200Y1249050D01*
X1500877Y1250049D01*
X1498540Y1251017D01*
X1496191Y1251954D01*
X1493829Y1252859D01*
X1491456Y1253733D01*
X1489071Y1254575D01*
X1486675Y1255386D01*
X1484268Y1256164D01*
X1481852Y1256910D01*
X1479425Y1257624D01*
X1476990Y1258306D01*
X1474545Y1258955D01*
X1472092Y1259572D01*
X1469631Y1260155D01*
X1467163Y1260707D01*
X1464687Y1261225D01*
X1462205Y1261710D01*
X1459717Y1262162D01*
X1457222Y1262581D01*
X1454723Y1262967D01*
X1452218Y1263319D01*
X1449709Y1263638D01*
X1447196Y1263924D01*
X1444679Y1264176D01*
X1442160Y1264394D01*
X1439637Y1264579D01*
X1437112Y1264731D01*
X1434586Y1264848D01*
X1432058Y1264933D01*
X1429529Y1264983D01*
X1427000Y1265000D01*
X1427000D02*
X1424471Y1264983D01*
X1421942Y1264933D01*
X1419414Y1264848D01*
X1416888Y1264731D01*
X1414363Y1264579D01*
X1411841Y1264394D01*
X1409321Y1264176D01*
X1406804Y1263924D01*
X1404291Y1263638D01*
X1401782Y1263319D01*
X1399278Y1262967D01*
X1396778Y1262581D01*
X1394284Y1262162D01*
X1391795Y1261710D01*
X1389313Y1261225D01*
X1386837Y1260707D01*
X1384369Y1260156D01*
X1381908Y1259572D01*
X1379455Y1258955D01*
X1377011Y1258306D01*
X1374575Y1257624D01*
X1372149Y1256910D01*
X1369732Y1256164D01*
X1367325Y1255386D01*
X1364930Y1254575D01*
X1362545Y1253733D01*
X1360171Y1252859D01*
X1357810Y1251954D01*
X1355460Y1251017D01*
X1353123Y1250049D01*
X1350800Y1249050D01*
X1348490Y1248021D01*
X1346194Y1246960D01*
X1343912Y1245869D01*
X1341645Y1244748D01*
X1339393Y1243597D01*
X1337156Y1242416D01*
X1334935Y1241205D01*
X1332731Y1239965D01*
X1330544Y1238695D01*
X1328373Y1237397D01*
X1326220Y1236070D01*
X1324085Y1234714D01*
X1321968Y1233330D01*
X1319870Y1231918D01*
X1317791Y1230478D01*
X1315731Y1229010D01*
X1313690Y1227515D01*
X1311670Y1225993D01*
X1309671Y1224445D01*
X1307691Y1222870D01*
X1305734Y1221269D01*
X1303797Y1219641D01*
X1301883Y1217989D01*
X1299991Y1216310D01*
X1298121Y1214607D01*
X1296274Y1212879D01*
X1294450Y1211127D01*
X1292650Y1209351D01*
X1290873Y1207550D01*
X1289121Y1205726D01*
X1287393Y1203879D01*
X1285690Y1202010D01*
X1284012Y1200117D01*
X1282359Y1198203D01*
X1280732Y1196267D01*
X1279130Y1194309D01*
X1277555Y1192330D01*
X1276007Y1190330D01*
X1274485Y1188310D01*
X1272990Y1186270D01*
X1271523Y1184210D01*
X1270083Y1182131D01*
X1268671Y1180032D01*
X1267286Y1177915D01*
X1265931Y1175780D01*
X1264603Y1173627D01*
X1263305Y1171457D01*
X1262035Y1169269D01*
X1260795Y1167065D01*
X1259584Y1164844D01*
X1258403Y1162608D01*
X1257252Y1160356D01*
X1256131Y1158089D01*
X1255040Y1155807D01*
X1253979Y1153511D01*
X1252950Y1151201D01*
X1251951Y1148877D01*
X1250983Y1146540D01*
X1250046Y1144191D01*
X1249141Y1141829D01*
X1248267Y1139456D01*
X1247425Y1137071D01*
X1246615Y1134675D01*
X1245836Y1132269D01*
X1245090Y1129852D01*
X1244376Y1127426D01*
X1243694Y1124990D01*
X1243045Y1122545D01*
X1242428Y1120092D01*
X1241844Y1117632D01*
X1241293Y1115163D01*
X1240775Y1112688D01*
X1240290Y1110205D01*
X1239838Y1107717D01*
X1239419Y1105222D01*
X1239033Y1102723D01*
X1238681Y1100218D01*
X1238362Y1097709D01*
X1238076Y1095196D01*
X1237824Y1092680D01*
X1237606Y1090160D01*
X1237421Y1087637D01*
X1237269Y1085113D01*
X1237151Y1082586D01*
X1237067Y1080058D01*
X1237017Y1077530D01*
X1237000Y1075001D01*
G54D95*
X1420000Y1255000D02*
D03*
X1446000Y1253000D02*
D03*
G54D96*
X1521000Y1227000D02*
D03*
X1529000Y1218000D02*
D03*
X1537000Y1209000D02*
D03*
G54D97*
X1401910Y906935D02*
D03*
X1384232Y924613D02*
D03*
G54D98*
X1487511Y970101D02*
D03*
X1522867Y934745D02*
D03*
X1563878Y975757D02*
D03*
X1528523Y1011113D02*
D03*
G54D99*
X1505189Y952423D02*
D03*
X1567414Y999092D02*
D03*
X1551151Y1015355D02*
D03*
G54D100*
X1369201Y1249201D02*
D03*
X1589201Y1089201D02*
D03*
Y1049201D02*
D03*
X1569201Y1009201D02*
D03*
X1579201Y989201D02*
D03*
X1549201Y1209201D02*
D03*
Y1169201D02*
D03*
X1559201Y989201D02*
D03*
Y949201D02*
D03*
X1539201Y1069201D02*
D03*
Y1029201D02*
D03*
X1519201Y1189201D02*
D03*
X1509201Y1009201D02*
D03*
X1519201Y949201D02*
D03*
X1509201Y929201D02*
D03*
X1499201Y1029201D02*
D03*
X1489201Y1009201D02*
D03*
X1499201Y909201D02*
D03*
X1469201Y1209201D02*
D03*
X1479201Y1189201D02*
D03*
X1469201Y1049201D02*
D03*
X1449201Y1009201D02*
D03*
Y929201D02*
D03*
X1399201Y949201D02*
D03*
X1379201Y989201D02*
D03*
X1369201Y929201D02*
D03*
X1379201Y909201D02*
D03*
X1349201Y1169201D02*
D03*
X1359201Y1149201D02*
D03*
X1349201Y1009201D02*
D03*
X1359201Y909201D02*
D03*
X1329201Y1089201D02*
D03*
Y1009201D02*
D03*
X1339201Y989201D02*
D03*
X1309201Y1209201D02*
D03*
X1319201Y1029201D02*
D03*
X1309201Y1009201D02*
D03*
X1319201Y989201D02*
D03*
X1309201Y969201D02*
D03*
X1319201Y949201D02*
D03*
X1299201Y1029201D02*
D03*
X1289201Y969201D02*
D03*
X1299201Y949201D02*
D03*
X1279201Y1029201D02*
D03*
X1504201Y929201D02*
D03*
X1573000Y1176000D02*
D03*
X1322000Y1017000D02*
D03*
X1289447Y1036283D02*
D03*
X1366000Y1025000D02*
D03*
X1480000Y910000D02*
D03*
X1472000Y911000D02*
D03*
X1481000Y902000D02*
D03*
X1478071Y917000D02*
D03*
X1487189Y908071D02*
D03*
X1505189Y925071D02*
D03*
X1496071Y934000D02*
D03*
X1499000Y919000D02*
D03*
X1490000Y928000D02*
D03*
X1498000Y927000D02*
D03*
X1466000Y973000D02*
D03*
X1441000Y923000D02*
D03*
X1534000Y1151000D02*
D03*
X1593000Y1098000D02*
D03*
X1576000Y1091000D02*
D03*
X1385568Y1155000D02*
D03*
X1296602Y1137338D02*
D03*
X1430000Y901000D02*
D03*
X1451232Y979000D02*
D03*
X1381644Y1075710D02*
D03*
X1326232Y1136806D02*
D03*
X1433691Y1051000D02*
D03*
X1426898Y1051140D02*
D03*
X1517000Y1036000D02*
D03*
X1501765Y1020927D02*
D03*
X1464000Y1020000D02*
D03*
X1453980Y1021000D02*
D03*
X1524000Y1203000D02*
D03*
X1514000Y1214000D02*
D03*
X1519000Y1209000D02*
D03*
X1363733Y1165464D02*
D03*
X1388230Y1049642D02*
D03*
X1502697Y1066000D02*
D03*
X1489373Y1111000D02*
D03*
X1468000Y1097113D02*
D03*
X1535000Y1097000D02*
D03*
X1486000Y990669D02*
D03*
X1312702Y1135000D02*
D03*
X1426898Y1135348D02*
D03*
X1330046Y1061763D02*
D03*
X1294000Y1025000D02*
D03*
X1312000Y1035000D02*
D03*
X1509611Y1014280D02*
D03*
X1512000Y1101000D02*
D03*
X1476071Y1053536D02*
D03*
X1465000Y1159000D02*
D03*
X1473000Y1152000D02*
D03*
X1481496Y1153000D02*
D03*
X1489244Y1159586D02*
D03*
X1390211Y999588D02*
D03*
X1283000Y1039000D02*
D03*
X1421241Y1083583D02*
D03*
Y1095000D02*
D03*
X1471000Y1216000D02*
D03*
X1378584Y1192000D02*
D03*
X1484000Y1235000D02*
D03*
X1393000Y1202000D02*
D03*
X1409408Y1123300D02*
D03*
X1344000Y1048879D02*
D03*
X1470000Y1058000D02*
D03*
X1509062Y1005000D02*
D03*
X1534000Y961000D02*
D03*
X1510000Y992000D02*
D03*
X1455900Y1199200D02*
D03*
X1381300Y1089240D02*
D03*
X1377000Y1065000D02*
D03*
X1387301Y1083583D02*
D03*
X1415585Y1077927D02*
D03*
Y1100554D02*
D03*
X1455183Y1060956D02*
D03*
X1460840Y1066613D02*
D03*
X1472153Y1077927D02*
D03*
X1432555Y1117227D02*
D03*
X1426898Y1112000D02*
D03*
X1527657Y1148889D02*
D03*
X1593000Y1142000D02*
D03*
X1296602Y1128298D02*
D03*
X1380542Y965665D02*
D03*
X1345481Y1117900D02*
D03*
X1426898Y1033000D02*
D03*
X1460212Y979000D02*
D03*
X1436000Y901000D02*
D03*
X1364000Y1065000D02*
D03*
X1434465Y1021000D02*
D03*
X1421239Y1028239D02*
D03*
X1466000Y922000D02*
D03*
X1383512Y1104146D02*
D03*
X1284000Y1097000D02*
D03*
X1409928Y1049642D02*
D03*
X1404271Y1044000D02*
D03*
X1578000Y1140000D02*
D03*
X1481496Y1114839D02*
D03*
X1470496Y1108839D02*
D03*
X1426898Y1044000D02*
D03*
X1429000Y995000D02*
D03*
X1489373Y1143919D02*
D03*
X1513000Y1146000D02*
D03*
X1522000Y1144628D02*
D03*
X1457677Y1177669D02*
D03*
X1555022Y1002629D02*
D03*
X1578580Y1053000D02*
D03*
X1548000Y968000D02*
D03*
X1256000Y1121000D02*
D03*
X1248719Y1053281D02*
D03*
X1256000Y1039000D02*
D03*
X1555393Y1038000D02*
D03*
X1427780Y1077927D02*
D03*
X1433436Y1072270D02*
D03*
X1432555Y1084465D02*
D03*
X1426898Y1065731D02*
D03*
X1439094Y1077927D02*
D03*
X1438212Y1065731D02*
D03*
X1415584D02*
D03*
X1443869Y1071387D02*
D03*
X1409928Y1084465D02*
D03*
X1443869D02*
D03*
X1421241Y1060074D02*
D03*
X1432555D02*
D03*
X1449526Y1077044D02*
D03*
X1432555Y1095779D02*
D03*
X1409928Y1060074D02*
D03*
X1443869D02*
D03*
X1449526Y1065731D02*
D03*
X1404271Y1090122D02*
D03*
X1438212Y1054417D02*
D03*
X1415584D02*
D03*
X1398614Y1071387D02*
D03*
X1455182D02*
D03*
Y1084465D02*
D03*
X1392957Y1077044D02*
D03*
X1398614Y1095779D02*
D03*
X1392957Y1090122D02*
D03*
X1417200Y1148900D02*
D03*
X1402410Y1198500D02*
D03*
X1426357Y1176300D02*
D03*
X1400100Y1179308D02*
D03*
X1431500Y1209800D02*
D03*
X1452879Y1188979D02*
D03*
X1429300Y1189009D02*
D03*
X1411960Y1182843D02*
D03*
X1413601Y1177669D02*
D03*
X1441364Y1161364D02*
D03*
X1403500Y1190600D02*
D03*
X1447400Y1173729D02*
D03*
X1423315Y1160879D02*
D03*
X1360700Y1090400D02*
D03*
X1399400Y1140700D02*
D03*
X1345910Y1140000D02*
D03*
X1369857Y1117800D02*
D03*
X1375000Y1151300D02*
D03*
X1396379Y1130479D02*
D03*
X1372800Y1130509D02*
D03*
X1355460Y1124343D02*
D03*
X1357101Y1119168D02*
D03*
X1347000Y1132100D02*
D03*
X1390900Y1115229D02*
D03*
X1366815Y1102379D02*
D03*
X1342900Y1087200D02*
D03*
X1289411Y1086500D02*
D03*
X1304200Y1036900D02*
D03*
X1300601Y1065668D02*
D03*
X1318500Y1097800D02*
D03*
X1339879Y1076979D02*
D03*
X1310315Y1048879D02*
D03*
X1316300Y1077009D02*
D03*
X1298960Y1070843D02*
D03*
X1290500Y1078600D02*
D03*
X1313357Y1064300D02*
D03*
X1287100Y1067308D02*
D03*
X1328364Y1049364D02*
D03*
G54D101*
X1421745Y903000D02*
D03*
G54D104*
X1325381Y955575D02*
D03*
M02*
