G04*
G04 #@! TF.GenerationSoftware,Altium Limited,Altium Designer,20.0.13 (296)*
G04*
G04 Layer_Color=8388736*
%FSLAX44Y44*%
%MOMM*%
G71*
G01*
G75*
%ADD49C,0.8000*%
G04:AMPARAMS|DCode=52|XSize=0.6032mm|YSize=0.7032mm|CornerRadius=0.1516mm|HoleSize=0mm|Usage=FLASHONLY|Rotation=45.000|XOffset=0mm|YOffset=0mm|HoleType=Round|Shape=RoundedRectangle|*
%AMROUNDEDRECTD52*
21,1,0.6032,0.4000,0,0,45.0*
21,1,0.3000,0.7032,0,0,45.0*
1,1,0.3032,0.2475,-0.0354*
1,1,0.3032,0.0354,-0.2475*
1,1,0.3032,-0.2475,0.0354*
1,1,0.3032,-0.0354,0.2475*
%
%ADD52ROUNDEDRECTD52*%
G04:AMPARAMS|DCode=53|XSize=0.9032mm|YSize=1.4532mm|CornerRadius=0.2766mm|HoleSize=0mm|Usage=FLASHONLY|Rotation=135.000|XOffset=0mm|YOffset=0mm|HoleType=Round|Shape=RoundedRectangle|*
%AMROUNDEDRECTD53*
21,1,0.9032,0.9000,0,0,135.0*
21,1,0.3500,1.4532,0,0,135.0*
1,1,0.5532,0.1945,0.4419*
1,1,0.5532,0.4419,0.1945*
1,1,0.5532,-0.1945,-0.4419*
1,1,0.5532,-0.4419,-0.1945*
%
%ADD53ROUNDEDRECTD53*%
G04:AMPARAMS|DCode=54|XSize=0.6032mm|YSize=0.7032mm|CornerRadius=0.1516mm|HoleSize=0mm|Usage=FLASHONLY|Rotation=180.000|XOffset=0mm|YOffset=0mm|HoleType=Round|Shape=RoundedRectangle|*
%AMROUNDEDRECTD54*
21,1,0.6032,0.4000,0,0,180.0*
21,1,0.3000,0.7032,0,0,180.0*
1,1,0.3032,-0.1500,0.2000*
1,1,0.3032,0.1500,0.2000*
1,1,0.3032,0.1500,-0.2000*
1,1,0.3032,-0.1500,-0.2000*
%
%ADD54ROUNDEDRECTD54*%
G04:AMPARAMS|DCode=55|XSize=0.6032mm|YSize=0.7032mm|CornerRadius=0.1516mm|HoleSize=0mm|Usage=FLASHONLY|Rotation=315.000|XOffset=0mm|YOffset=0mm|HoleType=Round|Shape=RoundedRectangle|*
%AMROUNDEDRECTD55*
21,1,0.6032,0.4000,0,0,315.0*
21,1,0.3000,0.7032,0,0,315.0*
1,1,0.3032,-0.0354,-0.2475*
1,1,0.3032,-0.2475,-0.0354*
1,1,0.3032,0.0354,0.2475*
1,1,0.3032,0.2475,0.0354*
%
%ADD55ROUNDEDRECTD55*%
%ADD56P,1.4187X4X360.0*%
%ADD57C,0.7032*%
G04:AMPARAMS|DCode=58|XSize=0.9032mm|YSize=1.4532mm|CornerRadius=0.2766mm|HoleSize=0mm|Usage=FLASHONLY|Rotation=45.000|XOffset=0mm|YOffset=0mm|HoleType=Round|Shape=RoundedRectangle|*
%AMROUNDEDRECTD58*
21,1,0.9032,0.9000,0,0,45.0*
21,1,0.3500,1.4532,0,0,45.0*
1,1,0.5532,0.4419,-0.1945*
1,1,0.5532,0.1945,-0.4419*
1,1,0.5532,-0.4419,0.1945*
1,1,0.5532,-0.1945,0.4419*
%
%ADD58ROUNDEDRECTD58*%
%ADD59C,0.5532*%
G04:AMPARAMS|DCode=60|XSize=0.4032mm|YSize=0.7032mm|CornerRadius=0.1516mm|HoleSize=0mm|Usage=FLASHONLY|Rotation=315.000|XOffset=0mm|YOffset=0mm|HoleType=Round|Shape=RoundedRectangle|*
%AMROUNDEDRECTD60*
21,1,0.4032,0.4000,0,0,315.0*
21,1,0.1000,0.7032,0,0,315.0*
1,1,0.3032,-0.1061,-0.1768*
1,1,0.3032,-0.1768,-0.1061*
1,1,0.3032,0.1061,0.1768*
1,1,0.3032,0.1768,0.1061*
%
%ADD60ROUNDEDRECTD60*%
G04:AMPARAMS|DCode=61|XSize=0.4032mm|YSize=0.7032mm|CornerRadius=0.1516mm|HoleSize=0mm|Usage=FLASHONLY|Rotation=45.000|XOffset=0mm|YOffset=0mm|HoleType=Round|Shape=RoundedRectangle|*
%AMROUNDEDRECTD61*
21,1,0.4032,0.4000,0,0,45.0*
21,1,0.1000,0.7032,0,0,45.0*
1,1,0.3032,0.1768,-0.1061*
1,1,0.3032,0.1061,-0.1768*
1,1,0.3032,-0.1768,0.1061*
1,1,0.3032,-0.1061,0.1768*
%
%ADD61ROUNDEDRECTD61*%
G04:AMPARAMS|DCode=62|XSize=0.8032mm|YSize=1.2532mm|CornerRadius=0mm|HoleSize=0mm|Usage=FLASHONLY|Rotation=135.000|XOffset=0mm|YOffset=0mm|HoleType=Round|Shape=Rectangle|*
%AMROTATEDRECTD62*
4,1,4,0.7271,0.1591,-0.1591,-0.7271,-0.7271,-0.1591,0.1591,0.7271,0.7271,0.1591,0.0*
%
%ADD62ROTATEDRECTD62*%

%ADD63C,0.5032*%
%ADD64C,0.4032*%
%ADD65C,1.5000*%
G04:AMPARAMS|DCode=66|XSize=0.7032mm|YSize=1.5532mm|CornerRadius=0mm|HoleSize=0mm|Usage=FLASHONLY|Rotation=45.000|XOffset=0mm|YOffset=0mm|HoleType=Round|Shape=Round|*
%AMOVALD66*
21,1,0.8500,0.7032,0.0000,0.0000,135.0*
1,1,0.7032,0.3005,-0.3005*
1,1,0.7032,-0.3005,0.3005*
%
%ADD66OVALD66*%

%ADD67P,0.9945X4X180.0*%
G04:AMPARAMS|DCode=68|XSize=1.1032mm|YSize=1.8032mm|CornerRadius=0.3266mm|HoleSize=0mm|Usage=FLASHONLY|Rotation=315.000|XOffset=0mm|YOffset=0mm|HoleType=Round|Shape=RoundedRectangle|*
%AMROUNDEDRECTD68*
21,1,1.1032,1.1500,0,0,315.0*
21,1,0.4500,1.8032,0,0,315.0*
1,1,0.6532,-0.2475,-0.5657*
1,1,0.6532,-0.5657,-0.2475*
1,1,0.6532,0.2475,0.5657*
1,1,0.6532,0.5657,0.2475*
%
%ADD68ROUNDEDRECTD68*%
G04:AMPARAMS|DCode=69|XSize=1.2032mm|YSize=0.5032mm|CornerRadius=0.1766mm|HoleSize=0mm|Usage=FLASHONLY|Rotation=225.000|XOffset=0mm|YOffset=0mm|HoleType=Round|Shape=RoundedRectangle|*
%AMROUNDEDRECTD69*
21,1,1.2032,0.1500,0,0,225.0*
21,1,0.8500,0.5032,0,0,225.0*
1,1,0.3532,-0.3536,-0.2475*
1,1,0.3532,0.2475,0.3536*
1,1,0.3532,0.3536,0.2475*
1,1,0.3532,-0.2475,-0.3536*
%
%ADD69ROUNDEDRECTD69*%
G04:AMPARAMS|DCode=70|XSize=3.7032mm|YSize=1.7032mm|CornerRadius=0mm|HoleSize=0mm|Usage=FLASHONLY|Rotation=315.000|XOffset=0mm|YOffset=0mm|HoleType=Round|Shape=Rectangle|*
%AMROTATEDRECTD70*
4,1,4,-1.9115,0.7071,-0.7071,1.9115,1.9115,-0.7071,0.7071,-1.9115,-1.9115,0.7071,0.0*
%
%ADD70ROTATEDRECTD70*%

%ADD71R,1.0032X1.0032*%
G04:AMPARAMS|DCode=72|XSize=0.6032mm|YSize=0.7032mm|CornerRadius=0.1516mm|HoleSize=0mm|Usage=FLASHONLY|Rotation=90.000|XOffset=0mm|YOffset=0mm|HoleType=Round|Shape=RoundedRectangle|*
%AMROUNDEDRECTD72*
21,1,0.6032,0.4000,0,0,90.0*
21,1,0.3000,0.7032,0,0,90.0*
1,1,0.3032,0.2000,0.1500*
1,1,0.3032,0.2000,-0.1500*
1,1,0.3032,-0.2000,-0.1500*
1,1,0.3032,-0.2000,0.1500*
%
%ADD72ROUNDEDRECTD72*%
G04:AMPARAMS|DCode=73|XSize=3.2032mm|YSize=1.8032mm|CornerRadius=0.3016mm|HoleSize=0mm|Usage=FLASHONLY|Rotation=225.000|XOffset=0mm|YOffset=0mm|HoleType=Round|Shape=RoundedRectangle|*
%AMROUNDEDRECTD73*
21,1,3.2032,1.2000,0,0,225.0*
21,1,2.6000,1.8032,0,0,225.0*
1,1,0.6032,-1.3435,-0.4950*
1,1,0.6032,0.4950,1.3435*
1,1,0.6032,1.3435,0.4950*
1,1,0.6032,-0.4950,-1.3435*
%
%ADD73ROUNDEDRECTD73*%
G04:AMPARAMS|DCode=74|XSize=0.8532mm|YSize=1.5032mm|CornerRadius=0mm|HoleSize=0mm|Usage=FLASHONLY|Rotation=45.000|XOffset=0mm|YOffset=0mm|HoleType=Round|Shape=Round|*
%AMOVALD74*
21,1,0.6500,0.8532,0.0000,0.0000,135.0*
1,1,0.8532,0.2298,-0.2298*
1,1,0.8532,-0.2298,0.2298*
%
%ADD74OVALD74*%

G04:AMPARAMS|DCode=75|XSize=0.7032mm|YSize=1.2032mm|CornerRadius=0mm|HoleSize=0mm|Usage=FLASHONLY|Rotation=225.000|XOffset=0mm|YOffset=0mm|HoleType=Round|Shape=Rectangle|*
%AMROTATEDRECTD75*
4,1,4,-0.1768,0.6740,0.6740,-0.1768,0.1768,-0.6740,-0.6740,0.1768,-0.1768,0.6740,0.0*
%
%ADD75ROTATEDRECTD75*%

%ADD76R,3.2032X2.2032*%
%ADD77R,2.2032X0.8032*%
G04:AMPARAMS|DCode=78|XSize=1.2032mm|YSize=1.7032mm|CornerRadius=0mm|HoleSize=0mm|Usage=FLASHONLY|Rotation=135.000|XOffset=0mm|YOffset=0mm|HoleType=Round|Shape=Rectangle|*
%AMROTATEDRECTD78*
4,1,4,1.0276,0.1768,-0.1768,-1.0276,-1.0276,-0.1768,0.1768,1.0276,1.0276,0.1768,0.0*
%
%ADD78ROTATEDRECTD78*%

G04:AMPARAMS|DCode=79|XSize=2.2032mm|YSize=3.2032mm|CornerRadius=0mm|HoleSize=0mm|Usage=FLASHONLY|Rotation=315.000|XOffset=0mm|YOffset=0mm|HoleType=Round|Shape=Rectangle|*
%AMROTATEDRECTD79*
4,1,4,-1.9115,-0.3536,0.3536,1.9115,1.9115,0.3536,-0.3536,-1.9115,-1.9115,-0.3536,0.0*
%
%ADD79ROTATEDRECTD79*%

G04:AMPARAMS|DCode=80|XSize=0.8032mm|YSize=2.2032mm|CornerRadius=0mm|HoleSize=0mm|Usage=FLASHONLY|Rotation=315.000|XOffset=0mm|YOffset=0mm|HoleType=Round|Shape=Rectangle|*
%AMROTATEDRECTD80*
4,1,4,-1.0629,-0.4950,0.4950,1.0629,1.0629,0.4950,-0.4950,-1.0629,-1.0629,-0.4950,0.0*
%
%ADD80ROTATEDRECTD80*%

G04:AMPARAMS|DCode=81|XSize=1.0032mm|YSize=1.7032mm|CornerRadius=0mm|HoleSize=0mm|Usage=FLASHONLY|Rotation=135.000|XOffset=0mm|YOffset=0mm|HoleType=Round|Shape=Rectangle|*
%AMROTATEDRECTD81*
4,1,4,0.9569,0.2475,-0.2475,-0.9569,-0.9569,-0.2475,0.2475,0.9569,0.9569,0.2475,0.0*
%
%ADD81ROTATEDRECTD81*%

G04:AMPARAMS|DCode=82|XSize=1.2032mm|YSize=1.4032mm|CornerRadius=0mm|HoleSize=0mm|Usage=FLASHONLY|Rotation=135.000|XOffset=0mm|YOffset=0mm|HoleType=Round|Shape=Rectangle|*
%AMROTATEDRECTD82*
4,1,4,0.9215,0.0707,-0.0707,-0.9215,-0.9215,-0.0707,0.0707,0.9215,0.9215,0.0707,0.0*
%
%ADD82ROTATEDRECTD82*%

%ADD83R,1.2532X0.8032*%
G04:AMPARAMS|DCode=84|XSize=0.8032mm|YSize=1.1032mm|CornerRadius=0mm|HoleSize=0mm|Usage=FLASHONLY|Rotation=225.000|XOffset=0mm|YOffset=0mm|HoleType=Round|Shape=Rectangle|*
%AMROTATEDRECTD84*
4,1,4,-0.1061,0.6740,0.6740,-0.1061,0.1061,-0.6740,-0.6740,0.1061,-0.1061,0.6740,0.0*
%
%ADD84ROTATEDRECTD84*%

%ADD85C,1.2032*%
%ADD86C,1.0032*%
%ADD87C,2.2032*%
%ADD88C,2.4000*%
%ADD89C,1.1000*%
G54D49*
X1546201Y984949D02*
D03*
X1537716Y993435D02*
D03*
X1518624Y957373D02*
D03*
X1510139Y965858D02*
D03*
X1555393Y994142D02*
D03*
X1546908Y1002627D02*
D03*
X1537009Y975757D02*
D03*
X1527816Y966565D02*
D03*
X1519331Y975050D02*
D03*
X1528523Y984243D02*
D03*
G54D52*
X1267929Y1024734D02*
D03*
X1275000Y1031805D02*
D03*
X1392165Y1007265D02*
D03*
X1399236Y1014335D02*
D03*
X1506465Y1025465D02*
D03*
X1513535Y1032535D02*
D03*
X1477535Y989535D02*
D03*
X1470464Y982465D02*
D03*
X1261000Y1054805D02*
D03*
X1253929Y1047733D02*
D03*
X1362071Y1054071D02*
D03*
X1355000Y1047000D02*
D03*
X1350638Y1135274D02*
D03*
X1343567Y1128202D02*
D03*
X1407137Y1193774D02*
D03*
X1400067Y1186702D02*
D03*
X1294137Y1081773D02*
D03*
X1287067Y1074702D02*
D03*
X1527657Y1158515D02*
D03*
X1534728Y1165586D02*
D03*
G54D53*
X1494511Y1088179D02*
D03*
X1481075Y1101614D02*
D03*
X1439273Y979282D02*
D03*
X1425838Y992717D02*
D03*
X1380283Y1163417D02*
D03*
X1393718Y1149982D02*
D03*
X1493270Y1156048D02*
D03*
X1479835Y1169483D02*
D03*
X1462282Y1037717D02*
D03*
X1475718Y1024282D02*
D03*
G54D54*
X1439300Y1247000D02*
D03*
X1429300D02*
D03*
X1439300Y1237000D02*
D03*
X1429300D02*
D03*
G54D55*
X1293746Y1031805D02*
D03*
X1300816Y1024734D02*
D03*
X1317779Y1021535D02*
D03*
X1310708Y1028606D02*
D03*
X1400935Y1037065D02*
D03*
X1393865Y1044135D02*
D03*
X1418535Y937465D02*
D03*
X1411465Y944535D02*
D03*
X1439535Y958465D02*
D03*
X1432465Y965535D02*
D03*
X1286929Y1025071D02*
D03*
X1294000Y1018000D02*
D03*
X1324850Y1028606D02*
D03*
X1317780Y1035677D02*
D03*
X1504465Y1053536D02*
D03*
X1511535Y1046465D02*
D03*
X1365030Y1095307D02*
D03*
X1357960Y1102378D02*
D03*
X1394460Y1135702D02*
D03*
X1401530Y1128631D02*
D03*
X1360960Y1142378D02*
D03*
X1368031Y1135307D02*
D03*
X1421530Y1153807D02*
D03*
X1414460Y1160878D02*
D03*
X1450960Y1194202D02*
D03*
X1458031Y1187131D02*
D03*
X1417460Y1200878D02*
D03*
X1424531Y1193808D02*
D03*
X1308531Y1041808D02*
D03*
X1301460Y1048879D02*
D03*
X1337960Y1082202D02*
D03*
X1345031Y1075131D02*
D03*
X1304460Y1088878D02*
D03*
X1311531Y1081807D02*
D03*
X1499281Y1169837D02*
D03*
X1492210Y1176908D02*
D03*
X1557657Y1186586D02*
D03*
X1564728Y1179514D02*
D03*
X1353234Y989092D02*
D03*
X1346163Y996163D02*
D03*
X1365962Y993335D02*
D03*
X1358891Y1000405D02*
D03*
G54D56*
X1460455Y956545D02*
D03*
X1449000Y968000D02*
D03*
X1439000Y935000D02*
D03*
X1427545Y946455D02*
D03*
G54D57*
X1485000Y1058712D02*
D03*
X1370744Y1061751D02*
D03*
X1427500Y1006000D02*
D03*
X1451000Y1024000D02*
D03*
X1409928Y1006000D02*
D03*
X1400582Y995000D02*
D03*
X1421745Y903000D02*
D03*
G54D58*
X1482282Y911282D02*
D03*
X1495717Y924718D02*
D03*
X1310324Y1193239D02*
D03*
X1296889Y1179803D02*
D03*
X1323283Y1206282D02*
D03*
X1336718Y1219717D02*
D03*
G54D59*
X1398614Y1055299D02*
D03*
X1404271Y1060956D02*
D03*
X1477810Y1077927D02*
D03*
X1472153Y1072270D02*
D03*
X1466496Y1066613D02*
D03*
X1460840Y1060956D02*
D03*
X1455183Y1055299D02*
D03*
X1449526Y1049642D02*
D03*
X1443869Y1043985D02*
D03*
X1438212Y1038329D02*
D03*
X1432555Y1032671D02*
D03*
X1426898Y1027015D02*
D03*
X1472153Y1083583D02*
D03*
X1466496Y1077927D02*
D03*
X1460840Y1072270D02*
D03*
X1455183Y1066612D02*
D03*
X1449526Y1060956D02*
D03*
X1443869Y1055299D02*
D03*
X1438212Y1049642D02*
D03*
X1432555Y1043985D02*
D03*
X1426898Y1038328D02*
D03*
X1421242Y1032671D02*
D03*
X1466496Y1089240D02*
D03*
X1460840Y1083583D02*
D03*
X1455183Y1077927D02*
D03*
X1449526Y1072270D02*
D03*
X1443869Y1066612D02*
D03*
X1438212Y1060956D02*
D03*
X1432555Y1055299D02*
D03*
X1426898Y1049642D02*
D03*
X1421242Y1043985D02*
D03*
X1415585Y1038329D02*
D03*
X1460840Y1094897D02*
D03*
X1455183Y1089240D02*
D03*
X1449526Y1083583D02*
D03*
X1443869Y1077927D02*
D03*
X1438212Y1072270D02*
D03*
X1432555Y1066613D02*
D03*
X1426898Y1060956D02*
D03*
X1421242Y1055299D02*
D03*
X1415585Y1049642D02*
D03*
X1409928Y1043985D02*
D03*
X1455183Y1100554D02*
D03*
X1449526Y1094897D02*
D03*
X1443869Y1089240D02*
D03*
X1438212Y1083583D02*
D03*
X1432555Y1077927D02*
D03*
X1426898Y1072270D02*
D03*
X1421242Y1066613D02*
D03*
X1415585Y1060956D02*
D03*
X1409928Y1055299D02*
D03*
X1404271Y1049642D02*
D03*
X1449526Y1106210D02*
D03*
X1443869Y1100554D02*
D03*
X1438212Y1094897D02*
D03*
X1432555Y1089240D02*
D03*
X1426898Y1083583D02*
D03*
X1421242Y1077927D02*
D03*
X1415585Y1072270D02*
D03*
X1409928Y1066612D02*
D03*
X1443869Y1111868D02*
D03*
X1438212Y1106211D02*
D03*
X1432555Y1100554D02*
D03*
X1426898Y1094897D02*
D03*
X1421242Y1089240D02*
D03*
X1415585Y1083583D02*
D03*
X1409928Y1077927D02*
D03*
X1404271Y1072270D02*
D03*
X1398614Y1066612D02*
D03*
X1392957Y1060956D02*
D03*
X1438212Y1117524D02*
D03*
X1432555Y1111868D02*
D03*
X1426898Y1106210D02*
D03*
X1421242Y1100554D02*
D03*
X1415585Y1094897D02*
D03*
X1409928Y1089240D02*
D03*
X1404271Y1083583D02*
D03*
X1398614Y1077927D02*
D03*
X1392957Y1072270D02*
D03*
X1387301Y1066612D02*
D03*
X1432555Y1123181D02*
D03*
X1426898Y1117524D02*
D03*
X1421242Y1111868D02*
D03*
X1415585Y1106211D02*
D03*
X1409928Y1100554D02*
D03*
X1404271Y1094897D02*
D03*
X1398614Y1089240D02*
D03*
X1392957Y1083583D02*
D03*
X1387301Y1077927D02*
D03*
X1381644Y1072270D02*
D03*
X1426898Y1128838D02*
D03*
X1421242Y1123181D02*
D03*
X1415585Y1117524D02*
D03*
X1409928Y1111868D02*
D03*
X1404271Y1106210D02*
D03*
X1398614Y1100554D02*
D03*
X1392957Y1094897D02*
D03*
X1387301Y1089240D02*
D03*
X1381644Y1083583D02*
D03*
X1375987Y1077927D02*
D03*
G54D60*
X1496122Y1046657D02*
D03*
X1499657Y1043121D02*
D03*
X1503192Y1039586D02*
D03*
X1494000Y1030394D02*
D03*
X1490464Y1033929D02*
D03*
X1486929Y1037465D02*
D03*
G54D61*
X1499657Y1033929D02*
D03*
X1490464Y1043121D02*
D03*
G54D62*
X1443560Y997995D02*
D03*
X1456995Y984560D02*
D03*
X1469723Y1010723D02*
D03*
G54D63*
X1427000Y1253697D02*
D03*
X1439428D02*
D03*
G54D64*
X1269000Y1047371D02*
D03*
X1272536Y1043836D02*
D03*
X1265465Y1043836D02*
D03*
X1269000Y1040300D02*
D03*
X1261929D02*
D03*
X1265465Y1036764D02*
D03*
X1258393D02*
D03*
X1261929Y1033229D02*
D03*
X1372512Y1115146D02*
D03*
X1376047Y1111611D02*
D03*
X1368976D02*
D03*
X1372512Y1108075D02*
D03*
X1365441D02*
D03*
X1368976Y1104540D02*
D03*
X1396779Y1121131D02*
D03*
X1393244Y1117596D02*
D03*
Y1124667D02*
D03*
X1389709Y1121131D02*
D03*
Y1128202D02*
D03*
X1386173Y1124667D02*
D03*
Y1131738D02*
D03*
X1382638Y1128202D02*
D03*
X1351924Y1117272D02*
D03*
X1348389Y1120808D02*
D03*
X1355460Y1120808D02*
D03*
X1351925Y1124343D02*
D03*
X1358995D02*
D03*
X1355460Y1127879D02*
D03*
X1362531D02*
D03*
X1358995Y1131414D02*
D03*
X1429012Y1173646D02*
D03*
X1432547Y1170111D02*
D03*
X1425476D02*
D03*
X1429012Y1166575D02*
D03*
X1421941D02*
D03*
X1425476Y1163040D02*
D03*
X1408425Y1175772D02*
D03*
X1404889Y1179308D02*
D03*
X1411960Y1179308D02*
D03*
X1408425Y1182844D02*
D03*
X1415495D02*
D03*
X1411960Y1186379D02*
D03*
X1419031D02*
D03*
X1415495Y1189914D02*
D03*
X1453279Y1179631D02*
D03*
X1449744Y1176096D02*
D03*
Y1183167D02*
D03*
X1446208Y1179631D02*
D03*
Y1186702D02*
D03*
X1442673Y1183167D02*
D03*
Y1190238D02*
D03*
X1439138Y1186702D02*
D03*
X1316012Y1061646D02*
D03*
X1319547Y1058111D02*
D03*
X1312476Y1058111D02*
D03*
X1316012Y1054575D02*
D03*
X1308941D02*
D03*
X1312476Y1051040D02*
D03*
X1340280Y1067631D02*
D03*
X1336744Y1064096D02*
D03*
Y1071167D02*
D03*
X1333208Y1067631D02*
D03*
Y1074702D02*
D03*
X1329673Y1071167D02*
D03*
Y1078238D02*
D03*
X1326138Y1074702D02*
D03*
X1295424Y1063772D02*
D03*
X1291889Y1067308D02*
D03*
X1298960D02*
D03*
X1295424Y1070843D02*
D03*
X1302495Y1070843D02*
D03*
X1298960Y1074379D02*
D03*
X1306031Y1074379D02*
D03*
X1302495Y1077914D02*
D03*
X1465747Y1146000D02*
D03*
X1573000Y1176000D02*
D03*
X1482000Y1165943D02*
D03*
X1418000Y977000D02*
D03*
X1328364Y1025000D02*
D03*
X1322000Y1017000D02*
D03*
X1289447Y1036283D02*
D03*
X1283041Y1029212D02*
D03*
X1366000Y1025000D02*
D03*
X1466000Y973000D02*
D03*
X1441000Y923000D02*
D03*
X1534000Y1151000D02*
D03*
X1593000Y1098000D02*
D03*
X1576000Y1091000D02*
D03*
X1518000Y1136000D02*
D03*
X1385568Y1155000D02*
D03*
X1397000Y1145000D02*
D03*
X1296602Y1137338D02*
D03*
X1430000Y901000D02*
D03*
X1451232Y979000D02*
D03*
X1381644Y1075710D02*
D03*
X1326232Y1136806D02*
D03*
X1433691Y1051000D02*
D03*
X1426898Y1051140D02*
D03*
X1517000Y1036000D02*
D03*
X1513465Y1054417D02*
D03*
X1501765Y1020927D02*
D03*
X1464000Y1020000D02*
D03*
X1453980Y1021000D02*
D03*
X1524000Y1203000D02*
D03*
X1514000Y1214000D02*
D03*
X1519000Y1209000D02*
D03*
X1363733Y1165464D02*
D03*
X1505000Y1098000D02*
D03*
X1438212Y1122884D02*
D03*
X1374343Y1028239D02*
D03*
X1388230Y1049642D02*
D03*
X1502697Y1066000D02*
D03*
X1489373Y1111000D02*
D03*
X1468000Y1097113D02*
D03*
X1535000Y1097000D02*
D03*
X1512000Y1065000D02*
D03*
X1486000Y990669D02*
D03*
X1312702Y1135000D02*
D03*
X1426898Y1135348D02*
D03*
X1330046Y1061763D02*
D03*
X1294000Y1025000D02*
D03*
X1312000Y1035000D02*
D03*
X1509611Y1014280D02*
D03*
X1512000Y1101000D02*
D03*
X1476071Y1053536D02*
D03*
X1465000Y1159000D02*
D03*
X1473000Y1152000D02*
D03*
X1481496Y1153000D02*
D03*
X1489244Y1159586D02*
D03*
X1390211Y999588D02*
D03*
X1283000Y1039000D02*
D03*
X1421241Y1083583D02*
D03*
Y1095000D02*
D03*
X1471000Y1216000D02*
D03*
X1378584Y1192000D02*
D03*
X1484000Y1235000D02*
D03*
X1393000Y1202000D02*
D03*
X1409408Y1123300D02*
D03*
X1344000Y1048879D02*
D03*
X1470000Y1058000D02*
D03*
X1340000Y1132100D02*
D03*
X1509062Y1005000D02*
D03*
X1534000Y961000D02*
D03*
X1510000Y992000D02*
D03*
X1462900Y1192100D02*
D03*
X1455900Y1199200D02*
D03*
X1381300Y1089240D02*
D03*
X1377000Y1065000D02*
D03*
X1387301Y1083583D02*
D03*
X1415585Y1077927D02*
D03*
Y1089240D02*
D03*
Y1100554D02*
D03*
X1455183Y1060956D02*
D03*
X1460840Y1066613D02*
D03*
X1472153Y1077927D02*
D03*
X1432555Y1117227D02*
D03*
X1426898Y1112000D02*
D03*
X1527657Y1148889D02*
D03*
X1422000Y1237000D02*
D03*
Y1247000D02*
D03*
X1593000Y1142000D02*
D03*
X1296602Y1128298D02*
D03*
X1380542Y965665D02*
D03*
X1345481Y1117900D02*
D03*
X1426898Y1033000D02*
D03*
X1460212Y979000D02*
D03*
X1436000Y901000D02*
D03*
X1364000Y1065000D02*
D03*
X1434465Y1021000D02*
D03*
X1421239Y1028239D02*
D03*
X1466000Y922000D02*
D03*
X1425000Y973000D02*
D03*
X1403000Y953000D02*
D03*
X1383512Y1104146D02*
D03*
X1284000Y1097000D02*
D03*
X1409928Y1049642D02*
D03*
X1404271Y1044000D02*
D03*
X1578000Y1140000D02*
D03*
X1481496Y1114839D02*
D03*
X1470496Y1108839D02*
D03*
X1426898Y1044000D02*
D03*
X1429000Y995000D02*
D03*
X1539750Y1102289D02*
D03*
X1489373Y1143919D02*
D03*
X1513000Y1146000D02*
D03*
X1522000Y1144628D02*
D03*
X1457677Y1177669D02*
D03*
X1527722Y994142D02*
D03*
X1537000Y951000D02*
D03*
X1555022Y1002629D02*
D03*
X1515000Y983000D02*
D03*
X1578580Y1053000D02*
D03*
X1548000Y968000D02*
D03*
X1256000Y1121000D02*
D03*
X1248719Y1053281D02*
D03*
X1256000Y1061000D02*
D03*
X1407621Y1204000D02*
D03*
X1256000Y1039000D02*
D03*
X1554000Y1048000D02*
D03*
X1555393Y1038000D02*
D03*
X1422123Y1072270D02*
D03*
X1427780Y1077927D02*
D03*
X1433436Y1072270D02*
D03*
X1438212Y1088358D02*
D03*
X1432555Y1084465D02*
D03*
X1426898Y1065731D02*
D03*
X1439094Y1077927D02*
D03*
X1426898Y1090122D02*
D03*
X1438212Y1065731D02*
D03*
X1415584D02*
D03*
X1443869Y1071387D02*
D03*
X1409928Y1084465D02*
D03*
X1443869D02*
D03*
X1421241Y1060074D02*
D03*
X1432555D02*
D03*
X1449526Y1077044D02*
D03*
X1432555Y1095779D02*
D03*
X1409928Y1060074D02*
D03*
X1443869D02*
D03*
X1449526Y1065731D02*
D03*
X1404271Y1090122D02*
D03*
X1438212Y1054417D02*
D03*
X1415584D02*
D03*
X1398614Y1071387D02*
D03*
X1455182D02*
D03*
Y1084465D02*
D03*
X1392957Y1077044D02*
D03*
X1398614Y1095779D02*
D03*
X1392957Y1090122D02*
D03*
X1410280Y1156700D02*
D03*
X1417200Y1148900D02*
D03*
X1395000Y1191900D02*
D03*
X1402410Y1198500D02*
D03*
X1426357Y1176300D02*
D03*
X1400100Y1179308D02*
D03*
X1431500Y1209800D02*
D03*
X1452879Y1188979D02*
D03*
X1429300Y1189009D02*
D03*
X1411960Y1182843D02*
D03*
X1413601Y1177669D02*
D03*
X1441364Y1161364D02*
D03*
X1403500Y1190600D02*
D03*
X1447400Y1173729D02*
D03*
X1423315Y1160879D02*
D03*
X1353780Y1098200D02*
D03*
X1360700Y1090400D02*
D03*
X1406400Y1133600D02*
D03*
X1399400Y1140700D02*
D03*
X1345910Y1140000D02*
D03*
X1369857Y1117800D02*
D03*
X1375000Y1151300D02*
D03*
X1396379Y1130479D02*
D03*
X1372800Y1130509D02*
D03*
X1355460Y1124343D02*
D03*
X1357101Y1119168D02*
D03*
X1347000Y1132100D02*
D03*
X1390900Y1115229D02*
D03*
X1366815Y1102379D02*
D03*
X1349900Y1080100D02*
D03*
X1342900Y1087200D02*
D03*
X1289411Y1086500D02*
D03*
X1282000Y1079900D02*
D03*
X1297280Y1044700D02*
D03*
X1304200Y1036900D02*
D03*
X1300601Y1065668D02*
D03*
X1318500Y1097800D02*
D03*
X1339879Y1076979D02*
D03*
X1310315Y1048879D02*
D03*
X1316300Y1077009D02*
D03*
X1298960Y1070843D02*
D03*
X1290500Y1078600D02*
D03*
X1313357Y1064300D02*
D03*
X1287100Y1067308D02*
D03*
X1328364Y1049364D02*
D03*
G54D65*
X1479791Y1244000D02*
D03*
X1266000Y1010000D02*
D03*
X1548000Y955000D02*
D03*
G54D66*
X1501565Y1140031D02*
D03*
X1523839Y1099372D02*
D03*
X1528435Y1103969D02*
D03*
X1533031Y1108565D02*
D03*
X1537628Y1113161D02*
D03*
X1492372Y1130839D02*
D03*
X1496969Y1135435D02*
D03*
X1506161Y1144628D02*
D03*
G54D67*
X1367924Y1149449D02*
D03*
X1374995Y1142378D02*
D03*
X1424424Y1207949D02*
D03*
X1431495Y1200878D02*
D03*
X1311424Y1095949D02*
D03*
X1318495Y1088878D02*
D03*
G54D68*
X1282247Y1169753D02*
D03*
X1302753Y1149247D02*
D03*
G54D69*
X1326465Y1153994D02*
D03*
X1322222Y1158236D02*
D03*
X1317979Y1162479D02*
D03*
X1313737Y1166722D02*
D03*
X1309494Y1170964D02*
D03*
X1333536Y1195006D02*
D03*
X1337778Y1190764D02*
D03*
X1342021Y1186521D02*
D03*
X1346263Y1182278D02*
D03*
X1350506Y1178036D02*
D03*
G54D70*
X1330000Y1174500D02*
D03*
G54D71*
X1256000Y1095800D02*
D03*
X1256000Y1112000D02*
D03*
G54D72*
X1268500Y1108500D02*
D03*
Y1098500D02*
D03*
G54D73*
X1393056Y1232556D02*
D03*
X1361944Y1201444D02*
D03*
G54D74*
X1517268Y1169791D02*
D03*
X1526248Y1178771D02*
D03*
X1535228Y1187752D02*
D03*
X1544209Y1196732D02*
D03*
X1479791Y1207268D02*
D03*
X1488772Y1216248D02*
D03*
X1497752Y1225228D02*
D03*
X1506732Y1234209D02*
D03*
G54D75*
X1541380Y1172222D02*
D03*
X1547744Y1178586D02*
D03*
G54D76*
X1588000Y1114000D02*
D03*
X1587000Y1032000D02*
D03*
G54D77*
X1560000Y1066000D02*
D03*
Y1054000D02*
D03*
Y1079000D02*
D03*
Y1091000D02*
D03*
G54D78*
X1558757Y1128029D02*
D03*
X1546737Y1140050D02*
D03*
X1581385Y1150657D02*
D03*
X1569364Y1162678D02*
D03*
G54D79*
X1337678Y931109D02*
D03*
X1280402Y989799D02*
D03*
G54D80*
X1323536Y984849D02*
D03*
X1315051Y993335D02*
D03*
X1332728Y975657D02*
D03*
X1341213Y967171D02*
D03*
G54D81*
X1368083Y943130D02*
D03*
X1357477Y953736D02*
D03*
X1392832Y967879D02*
D03*
X1382225Y978485D02*
D03*
G54D82*
X1392256Y1025957D02*
D03*
X1372457Y1045756D02*
D03*
X1360437Y1033736D02*
D03*
X1380235Y1013937D02*
D03*
G54D83*
X1539750Y1061500D02*
D03*
Y1080500D02*
D03*
X1512250Y1071000D02*
D03*
G54D84*
X1469855Y1118288D02*
D03*
X1479048Y1127480D02*
D03*
X1458541Y1138794D02*
D03*
G54D85*
X1420000Y1255000D02*
D03*
X1446000Y1253000D02*
D03*
G54D86*
X1521000Y1227000D02*
D03*
X1529000Y1218000D02*
D03*
X1537000Y1209000D02*
D03*
G54D87*
X1401910Y906935D02*
D03*
X1384232Y924613D02*
D03*
G54D88*
X1487511Y970101D02*
D03*
X1522867Y934745D02*
D03*
X1563878Y975757D02*
D03*
X1528523Y1011113D02*
D03*
G54D89*
X1505189Y952423D02*
D03*
X1567414Y999092D02*
D03*
X1551151Y1015355D02*
D03*
M02*
