G04*
G04 #@! TF.GenerationSoftware,Altium Limited,Altium Designer,20.0.13 (296)*
G04*
G04 Layer_Color=16711935*
%FSLAX44Y44*%
%MOMM*%
G71*
G01*
G75*
%ADD10C,0.1000*%
%ADD14C,0.3000*%
G54D10*
X1520535Y1221092D02*
X1519866Y1223592D01*
X1518035Y1225422D01*
X1515535Y1226092D01*
X1513035Y1225422D01*
X1511205Y1223592D01*
X1510535Y1221092D01*
X1511205Y1218592D01*
X1513035Y1216762D01*
X1515535Y1216092D01*
X1518035Y1216762D01*
X1519866Y1218592D01*
X1520535Y1221092D01*
X1520000Y1131192D02*
X1519330Y1133692D01*
X1517500Y1135523D01*
X1515000Y1136192D01*
X1512500Y1135523D01*
X1510670Y1133692D01*
X1510000Y1131192D01*
X1510670Y1128692D01*
X1512500Y1126862D01*
X1515000Y1126192D01*
X1517500Y1126862D01*
X1519330Y1128692D01*
X1520000Y1131192D01*
X1426898Y1021358D02*
X1483467Y1077927D01*
X1370330D02*
X1426898Y1134495D01*
X1483467Y1077927D01*
X1370330D02*
X1426898Y1021358D01*
X1483747Y1038525D02*
X1495061Y1027212D01*
Y1049839D02*
X1506375Y1038525D01*
X1495061Y1027212D02*
X1506375Y1038525D01*
X1483747D02*
X1495061Y1049839D01*
X1443383Y1005596D02*
X1464596Y984383D01*
X1455404Y1017617D02*
X1476617Y996404D01*
X1443383Y1005596D02*
X1455404Y1017617D01*
X1464596Y984383D02*
X1476617Y996404D01*
X1269000Y1050129D02*
X1275294Y1043836D01*
X1255636Y1036764D02*
X1261929Y1030471D01*
X1255636Y1036764D02*
X1269000Y1050129D01*
X1261929Y1030471D02*
X1275294Y1043836D01*
X1372512Y1117904D02*
X1378805Y1111611D01*
X1362683Y1108075D02*
X1368976Y1101782D01*
X1362683Y1108075D02*
X1372512Y1117904D01*
X1368976Y1101782D02*
X1378805Y1111611D01*
X1393244Y1114838D02*
X1399537Y1121131D01*
X1379880Y1128202D02*
X1386173Y1134495D01*
X1399537Y1121131D01*
X1379880Y1128202D02*
X1393244Y1114838D01*
X1345631Y1120808D02*
X1351925Y1114515D01*
X1358995Y1134172D02*
X1365289Y1127879D01*
X1351925Y1114515D02*
X1365289Y1127879D01*
X1345631Y1120808D02*
X1358995Y1134172D01*
X1429012Y1176404D02*
X1435305Y1170111D01*
X1419183Y1166575D02*
X1425476Y1160282D01*
X1419183Y1166575D02*
X1429012Y1176404D01*
X1425476Y1160282D02*
X1435305Y1170111D01*
X1402131Y1179308D02*
X1408425Y1173015D01*
X1415495Y1192672D02*
X1421788Y1186379D01*
X1408425Y1173015D02*
X1421788Y1186379D01*
X1402131Y1179308D02*
X1415495Y1192672D01*
X1449744Y1173338D02*
X1456037Y1179631D01*
X1436380Y1186702D02*
X1442673Y1192995D01*
X1456037Y1179631D01*
X1436380Y1186702D02*
X1449744Y1173338D01*
X1316012Y1064404D02*
X1322305Y1058111D01*
X1306183Y1054575D02*
X1312476Y1048282D01*
X1306183Y1054575D02*
X1316012Y1064404D01*
X1312476Y1048282D02*
X1322305Y1058111D01*
X1336744Y1061338D02*
X1343037Y1067631D01*
X1323380Y1074702D02*
X1329673Y1080996D01*
X1343037Y1067631D01*
X1323380Y1074702D02*
X1336744Y1061338D01*
X1289131Y1067308D02*
X1295424Y1061014D01*
X1302495Y1080672D02*
X1308788Y1074379D01*
X1295424Y1061014D02*
X1308788Y1074379D01*
X1289131Y1067308D02*
X1302495Y1080672D01*
X1332829Y1199956D02*
X1355456Y1177328D01*
X1304544Y1171671D02*
X1327172Y1149044D01*
X1355456Y1177328D01*
X1304544Y1171671D02*
X1332829Y1199956D01*
X1480180Y1198465D02*
X1508464Y1170180D01*
X1515536Y1233820D02*
X1543820Y1205535D01*
X1508464Y1170180D02*
X1543820Y1205535D01*
X1480180Y1198465D02*
X1515536Y1233820D01*
X1493080Y1122000D02*
X1515000Y1100080D01*
Y1143921D02*
X1536920Y1122000D01*
X1515000Y1100080D02*
X1536920Y1122000D01*
X1493080D02*
X1515000Y1143921D01*
X1534500Y1056000D02*
Y1086000D01*
X1517500Y1056000D02*
Y1086000D01*
Y1056000D02*
X1534500D01*
X1517500Y1086000D02*
X1534500D01*
X1463491Y1118288D02*
X1479048Y1133844D01*
X1453945Y1127834D02*
X1469501Y1143390D01*
X1453945Y1127834D02*
X1463491Y1118288D01*
X1469501Y1143390D02*
X1479048Y1133844D01*
G54D14*
X1613500Y1036000D02*
X1614007Y1038487D01*
X1614480Y1040981D01*
X1614921Y1043481D01*
X1615328Y1045986D01*
X1615701Y1048497D01*
X1616041Y1051013D01*
X1616348Y1053533D01*
X1616621Y1056056D01*
X1616860Y1058583D01*
X1617065Y1061113D01*
X1617237Y1063646D01*
X1617375Y1066181D01*
X1617479Y1068717D01*
X1617549Y1071254D01*
X1617585Y1073792D01*
X1617588Y1076331D01*
X1617556Y1078869D01*
X1617491Y1081406D01*
X1617392Y1083943D01*
X1617259Y1086478D01*
X1617093Y1089011D01*
X1616892Y1091541D01*
X1616658Y1094069D01*
X1616390Y1096593D01*
X1616089Y1099113D01*
X1615754Y1101629D01*
X1615385Y1104141D01*
X1614983Y1106647D01*
X1614548Y1109148D01*
X1614079Y1111643D01*
X1613577Y1114131D01*
X1613042Y1116612D01*
X1612474Y1119086D01*
X1611873Y1121553D01*
X1611239Y1124010D01*
X1610573Y1126460D01*
X1609873Y1128900D01*
X1609142Y1131331D01*
X1608378Y1133751D01*
X1607581Y1136161D01*
X1606753Y1138561D01*
X1605893Y1140949D01*
X1605001Y1143326D01*
X1604077Y1145690D01*
X1603122Y1148042D01*
X1602136Y1150381D01*
X1601118Y1152706D01*
X1600070Y1155018D01*
X1598991Y1157316D01*
X1597881Y1159598D01*
X1596741Y1161867D01*
X1595571Y1164119D01*
X1594371Y1166356D01*
X1593141Y1168576D01*
X1591882Y1170780D01*
X1590593Y1172967D01*
X1589275Y1175137D01*
X1587929Y1177289D01*
X1586554Y1179422D01*
X1585150Y1181538D01*
X1583719Y1183634D01*
X1582260Y1185711D01*
X1580773Y1187768D01*
X1579259Y1189806D01*
X1577718Y1191822D01*
X1576150Y1193819D01*
X1574555Y1195794D01*
X1572935Y1197747D01*
X1571288Y1199679D01*
X1569616Y1201589D01*
X1567918Y1203476D01*
X1566196Y1205341D01*
X1564449Y1207182D01*
X1562677Y1209000D01*
X1560881Y1210794D01*
X1559062Y1212564D01*
X1557219Y1214310D01*
X1555353Y1216031D01*
X1553464Y1217727D01*
X1551553Y1219397D01*
X1549620Y1221042D01*
X1547665Y1222661D01*
X1545688Y1224253D01*
X1543690Y1225820D01*
X1541672Y1227359D01*
X1539633Y1228872D01*
X1537575Y1230357D01*
X1535497Y1231814D01*
X1533399Y1233244D01*
X1531283Y1234645D01*
X1529148Y1236018D01*
X1526995Y1237363D01*
X1524824Y1238679D01*
X1522636Y1239965D01*
X1520431Y1241223D01*
X1518209Y1242451D01*
X1515971Y1243649D01*
X1513718Y1244817D01*
X1511449Y1245955D01*
X1509165Y1247063D01*
X1506866Y1248140D01*
X1504554Y1249186D01*
X1502227Y1250201D01*
X1499888Y1251186D01*
X1497535Y1252139D01*
X1495170Y1253060D01*
X1492792Y1253950D01*
X1490403Y1254809D01*
X1488003Y1255635D01*
X1485592Y1256429D01*
X1483171Y1257191D01*
X1480740Y1257920D01*
X1478299Y1258617D01*
X1475849Y1259282D01*
X1473391Y1259914D01*
X1470924Y1260512D01*
X1468450Y1261078D01*
X1465968Y1261611D01*
X1463479Y1262111D01*
X1460984Y1262578D01*
X1458483Y1263011D01*
X1455976Y1263411D01*
X1453464Y1263777D01*
X1450948Y1264110D01*
X1448427Y1264409D01*
X1445903Y1264675D01*
X1443375Y1264907D01*
X1440844Y1265105D01*
X1438311Y1265269D01*
X1435776Y1265400D01*
X1433240Y1265497D01*
X1430702Y1265559D01*
X1428164Y1265589D01*
X1425625Y1265584D01*
X1423087Y1265545D01*
X1420550Y1265473D01*
X1418014Y1265367D01*
X1415479Y1265227D01*
X1412947Y1265053D01*
X1410417Y1264845D01*
X1407890Y1264604D01*
X1405367Y1264329D01*
X1402847Y1264020D01*
X1400332Y1263678D01*
X1397822Y1263302D01*
X1395316Y1262893D01*
X1392817Y1262450D01*
X1390324Y1261975D01*
X1387837Y1261466D01*
X1385357Y1260923D01*
X1382885Y1260348D01*
X1380420Y1259740D01*
X1377964Y1259099D01*
X1375517Y1258426D01*
X1373078Y1257719D01*
X1370650Y1256981D01*
X1368232Y1256210D01*
X1365824Y1255407D01*
X1363427Y1254572D01*
X1361041Y1253704D01*
X1358667Y1252806D01*
X1356305Y1251875D01*
X1353956Y1250913D01*
X1351620Y1249920D01*
X1349297Y1248896D01*
X1346989Y1247841D01*
X1344694Y1246756D01*
X1342414Y1245639D01*
X1340150Y1244493D01*
X1337900Y1243316D01*
X1335667Y1242110D01*
X1333450Y1240874D01*
X1331250Y1239608D01*
X1329066Y1238313D01*
X1326901Y1236989D01*
X1324753Y1235637D01*
X1322623Y1234256D01*
X1320512Y1232846D01*
X1318420Y1231409D01*
X1316347Y1229944D01*
X1314294Y1228451D01*
X1312261Y1226931D01*
X1310248Y1225384D01*
X1308256Y1223810D01*
X1306286Y1222210D01*
X1304337Y1220584D01*
X1302410Y1218932D01*
X1300505Y1217254D01*
X1298622Y1215552D01*
X1296763Y1213824D01*
X1294926Y1212071D01*
X1293113Y1210294D01*
X1291324Y1208494D01*
X1289560Y1206669D01*
X1287819Y1204821D01*
X1286104Y1202950D01*
X1284413Y1201057D01*
X1282748Y1199141D01*
X1281109Y1197203D01*
X1279496Y1195243D01*
X1277909Y1193262D01*
X1276348Y1191260D01*
X1274815Y1189237D01*
X1273308Y1187194D01*
X1271829Y1185131D01*
X1270377Y1183049D01*
X1268954Y1180947D01*
X1267558Y1178827D01*
X1266191Y1176688D01*
X1264853Y1174531D01*
X1263543Y1172357D01*
X1262263Y1170165D01*
X1261012Y1167956D01*
X1259790Y1165731D01*
X1258598Y1163490D01*
X1257437Y1161233D01*
X1256305Y1158961D01*
X1255204Y1156674D01*
X1254134Y1154372D01*
X1253094Y1152057D01*
X1252085Y1149727D01*
X1251107Y1147385D01*
X1250161Y1145029D01*
X1249246Y1142661D01*
X1248363Y1140282D01*
X1247512Y1137890D01*
X1246692Y1135488D01*
X1245905Y1133074D01*
X1245150Y1130651D01*
X1244428Y1128218D01*
X1243737Y1125775D01*
X1243080Y1123323D01*
X1242455Y1120863D01*
X1241863Y1118394D01*
X1241305Y1115918D01*
X1240779Y1113435D01*
X1240286Y1110945D01*
X1239827Y1108448D01*
X1239401Y1105946D01*
X1239008Y1103438D01*
X1238649Y1100926D01*
X1238323Y1098408D01*
X1238031Y1095887D01*
X1237773Y1093361D01*
X1237548Y1090833D01*
X1237357Y1088302D01*
X1237200Y1085768D01*
X1237077Y1083233D01*
X1236987Y1080696D01*
X1236931Y1078158D01*
X1236909Y1075620D01*
X1236921Y1073082D01*
X1236967Y1070544D01*
X1237047Y1068007D01*
X1237161Y1065471D01*
X1237308Y1062937D01*
X1237489Y1060405D01*
X1237704Y1057876D01*
X1237952Y1055349D01*
X1238235Y1052827D01*
X1238550Y1050308D01*
X1238900Y1047794D01*
X1239283Y1045285D01*
X1239699Y1042781D01*
X1240149Y1040282D01*
X1240632Y1037790D01*
X1241148Y1035305D01*
X1241697Y1032827D01*
X1242279Y1030356D01*
X1242895Y1027893D01*
X1243542Y1025439D01*
X1244223Y1022993D01*
X1244936Y1020557D01*
X1245682Y1018131D01*
X1246460Y1015715D01*
X1247270Y1013309D01*
X1248112Y1010914D01*
X1248986Y1008531D01*
X1249891Y1006160D01*
X1250828Y1003801D01*
X1251797Y1001454D01*
X1252796Y999121D01*
X1253827Y996802D01*
X1254889Y994496D01*
X1255981Y992205D01*
X1257104Y989928D01*
X1258257Y987666D01*
X1259440Y985421D01*
X1260652Y983191D01*
X1261895Y980977D01*
X1263167Y978781D01*
X1264468Y976601D01*
X1265798Y974439D01*
X1267157Y972295D01*
X1268544Y970169D01*
X1269959Y968062D01*
X1271403Y965974D01*
X1272874Y963905D01*
X1274372Y961856D01*
X1275898Y959828D01*
X1277451Y957820D01*
X1279030Y955833D01*
X1280636Y953867D01*
X1282268Y951922D01*
X1283925Y950000D01*
X1285608Y948099D01*
X1287317Y946222D01*
X1289050Y944367D01*
X1290807Y942536D01*
X1292589Y940728D01*
X1294395Y938944D01*
X1296225Y937185D01*
X1298078Y935450D01*
X1299953Y933739D01*
X1301852Y932055D01*
X1303773Y930395D01*
X1305715Y928761D01*
X1307680Y927153D01*
X1309665Y925572D01*
X1311672Y924017D01*
X1313699Y922489D01*
X1315746Y920989D01*
X1317813Y919516D01*
X1319900Y918070D01*
X1322005Y916652D01*
X1324130Y915263D01*
X1326272Y913902D01*
X1328433Y912570D01*
X1330611Y911266D01*
X1332807Y909992D01*
X1335019Y908747D01*
X1337248Y907532D01*
X1339492Y906347D01*
X1341752Y905192D01*
X1344028Y904067D01*
X1346318Y902972D01*
X1348623Y901908D01*
X1350941Y900875D01*
X1353274Y899873D01*
X1355619Y898902D01*
X1357977Y897962D01*
X1360347Y897054D01*
X1362730Y896178D01*
X1365123Y895333D01*
X1367528Y894521D01*
X1369944Y893741D01*
X1372369Y892993D01*
X1374805Y892277D01*
X1377250Y891594D01*
X1379703Y890943D01*
X1382165Y890326D01*
X1384635Y889741D01*
X1387113Y889189D01*
X1389598Y888670D01*
X1392089Y888185D01*
X1394587Y887733D01*
X1397091Y887314D01*
X1399600Y886928D01*
X1402113Y886576D01*
X1404632Y886258D01*
X1407154Y885973D01*
X1409680Y885722D01*
X1412209Y885504D01*
X1414741Y885321D01*
X1417275Y885171D01*
X1419810Y885055D01*
X1422348Y884972D01*
X1424885Y884924D01*
X1427424Y884909D01*
X1429962Y884929D01*
X1432500Y884982D01*
X1435037Y885069D01*
X1437572Y885189D01*
X1440106Y885344D01*
X1442637Y885532D01*
X1445166Y885754D01*
X1447691Y886010D01*
X1450213Y886299D01*
X1452731Y886622D01*
X1455244Y886979D01*
X1457752Y887369D01*
X1460255Y887793D01*
X1462752Y888249D01*
X1465243Y888739D01*
X1467727Y889263D01*
X1470203Y889819D01*
X1472672Y890408D01*
X1475133Y891031D01*
X1477586Y891685D01*
X1480029Y892373D01*
X1482463Y893093D01*
X1484888Y893846D01*
X1487301Y894630D01*
X1489705Y895447D01*
X1492097Y896296D01*
X1494478Y897177D01*
X1496847Y898089D01*
X1499203Y899033D01*
X1501546Y900008D01*
X1503877Y901015D01*
X1506194Y902052D01*
X1508496Y903120D01*
X1510784Y904219D01*
X1513058Y905348D01*
X1515316Y906508D01*
X1517558Y907697D01*
X1519785Y908916D01*
X1521995Y910165D01*
X1524188Y911443D01*
X1526364Y912750D01*
X1528522Y914087D01*
X1530662Y915452D01*
X1532784Y916845D01*
X1534887Y918266D01*
X1536971Y919716D01*
X1539035Y921193D01*
X1541080Y922697D01*
X1543104Y924229D01*
X1545108Y925787D01*
X1547090Y927372D01*
X1549052Y928983D01*
X1550992Y930621D01*
X1552909Y932284D01*
X1554805Y933972D01*
X1556677Y935686D01*
X1558527Y937424D01*
X1560353Y939187D01*
X1562156Y940974D01*
X1563935Y942785D01*
X1565689Y944620D01*
X1567419Y946478D01*
X1569124Y948358D01*
X1570803Y950262D01*
X1572457Y952187D01*
X1574085Y954134D01*
X1575688Y956103D01*
X1577263Y958093D01*
X1578812Y960104D01*
X1580334Y962136D01*
X1581829Y964187D01*
X1583297Y966259D01*
X1584736Y968349D01*
X1586148Y970459D01*
X1587531Y972587D01*
X1588886Y974734D01*
X1590212Y976898D01*
X1591509Y979080D01*
X1592777Y981279D01*
X1594015Y983495D01*
X1595224Y985727D01*
X1596403Y987975D01*
X1597552Y990239D01*
X1598670Y992517D01*
X1599758Y994811D01*
X1600816Y997118D01*
X1601842Y999440D01*
X1602838Y1001775D01*
X1603802Y1004123D01*
X1604735Y1006484D01*
X1605636Y1008857D01*
X1606505Y1011242D01*
X1607343Y1013638D01*
X1608149Y1016045D01*
X1608922Y1018463D01*
X1609663Y1020890D01*
X1610372Y1023328D01*
X1611048Y1025775D01*
X1611692Y1028230D01*
X1612302Y1030694D01*
X1612880Y1033166D01*
X1613425Y1035645D01*
X1613427Y1035654D01*
M02*
