M48
;Layer_Color=9474304
;FILE_FORMAT=4:4
METRIC,LZ
;TYPE=PLATED
T1F00S00C0.1500
T2F00S00C0.2000
T3F00S00C0.3000
T4F00S00C0.4000
T5F00S00C0.5000
T6F00S00C1.2000
%
T01
X01299201Y00949201
X01319201
X01309201Y00969201
X01289201
X01319201Y00989201
X01339201
X01349201Y01009201
X01329201
X01322Y01017
X01328364Y01025
X01319201Y01029201
X01312Y01035
X013042Y010369
X01299201Y01029201
X01294Y01025
X01283041Y01029212
X01279201Y01029201
X01283Y01039
X01289447Y01036283
X0129728Y010447
X01310315Y01048879
X01313357Y010643
X01300601Y01065668
X0129896Y01070843
X012871Y01067308
X012905Y010786
X01289411Y010865
X01282Y010799
X01284Y01097
X013185Y010978
X01329201Y01089201
X013429Y010872
X01339879Y01076979
X013499Y010801
X013607Y010904
X0135378Y010982
X01366815Y01102379
X01369857Y011178
X01357101Y01119168
X0135546Y01124343
X01347Y011321
X0134
X01326232Y01136806
X01312702Y01135
X01296602Y01137338
Y01128298
X01275997Y01138998
X01262998Y01137998
X01259201Y01129201
X01256Y01121
Y01061
X01248719Y01053281
X01256Y01039
X01328364Y01049364
X01330046Y01061763
X01344Y01048879
X01364Y01065
X01377
X01381644Y0107571
X01392957Y01077044
X01398614Y01071387
X01415584Y01065731
X01426898
X01438212
X01443869Y01071387
Y01060074
X01432555
X01433691Y01051
X01426898Y0105114
Y01044
Y01033
X01421239Y01028239
X01434465Y01021
X0145398
X01464Y0102
X01449201Y01009201
X01451232Y00979
X01460212
X01466Y00973
X01486Y00990669
X01489201Y01009201
X01509201
X01509062Y01005
X01509611Y0101428
X01501765Y01020927
X01499201Y01029201
X01517Y01036
X01513465Y01054417
X01512Y01065
X01502697Y01066
X01505Y01098
X01512Y01101
X01535Y01097
X01518Y01136
X01489373Y01111
X01481496Y01114839
X01470496Y01108839
X01468Y01097113
X01472153Y01077927
X0147Y01058
X01469201Y01049201
X01476071Y01053536
X01455183Y01060956
X01449526Y01065731
X01455182Y01071387
X0146084Y01066613
X01449526Y01077044
X01439094Y01077927
X01438212Y01088358
X01432555Y01084465
X0142778Y01077927
X01433436Y0107227
X01422123
X01421241Y01083583
X01415585Y01077927
Y0108924
X01409928Y01084465
X01404271Y01090122
X01398614Y01095779
X01392957Y01090122
X01387301Y01083583
X013813Y0108924
X01383512Y01104146
X013909Y01115229
X01396379Y01130479
X014064Y011336
X01409408Y011233
X01426898Y01112
X01432555Y01117227
X01438212Y01122884
X01426898Y01135348
X01432555Y01095779
X01426898Y01090122
X01421241Y01095
X01415585Y01100554
X01443869Y01084465
X01455182
X01438212Y01054417
X01421241Y01060074
X01409928
X01409928Y01049642
X01415584Y01054417
X01404271Y01044
X0138823Y01049642
X01374343Y01028239
X01366Y01025
X01379201Y00989201
X01390211Y00999588
X01429Y00995
X01425Y00973
X01418Y00977
X01403Y00953
X01399201Y00949201
X01380542Y00965665
X01369201Y00929201
X01379201Y00909201
X01359201
X0143Y00901
X01436Y00901
X01441Y00923
X01449201Y00929201
X01466Y00922
X01472Y00911
X0148Y0091
X01478071Y00917
X01481Y00902
X01487189Y00908071
X01499201Y00909201
X01499Y00919
X01498Y00927
X01504201Y00929201
X01509201
X01505189Y00925071
X01496071Y00934
X0149Y00928
X01519201Y00949201
X01534Y00961
X01527722Y00994142
X0151Y00992
X01515Y00983
X01309201Y01009201
X013163Y01077009
X01345481Y011179
X013728Y01130509
X0153975Y01102289
X01539201Y01069201
X01554Y01048
X01555393Y01038
X01539201Y01029201
X01555022Y01002629
X01559201Y00989201
X01579201
X01569201Y01009201
X0157858Y01053
X01589201Y01049201
Y01089201
X01593Y01098
X01576Y01091
X01548Y00968
X01537Y00951
X01559201Y00949201
X01578Y0114
X01593Y01142
X01573Y01176
X01549201Y01169201
Y01209201
X01519Y01209
X01514Y01214
X01524Y01203
X01519201Y01189201
X01479201
X014629Y011921
X01452879Y01188979
X014559Y011992
X01469201Y01209201
X01471Y01216
X01484Y01235
X01422Y01237
Y01247
X014315Y012098
X014293Y01189009
X01426357Y011763
X01413601Y01177669
X0141196Y01182843
X014001Y01179308
X014035Y011906
X0140241Y011985
X01407621Y01204
X01393Y01202
X01395Y011919
X01378584Y01192
X01363733Y01165464
X01349201Y01169201
X01359201Y01149201
X01375Y011513
X01385568Y01155
X01397Y01145
X013994Y011407
X014172Y011489
X0141028Y011567
X01423315Y01160879
X01441364Y01161364
X014474Y01173729
X01457677Y01177669
X01465Y01159
X01465747Y01146
X01473Y01152
X01481496Y01153
X01482Y01165943
X01489244Y01159586
X01489373Y01143919
X01513Y01146
X01522Y01144628
X01527657Y01148889
X01534Y01151
X0134591Y0114
X01269997Y01147998
X01256998Y01148998
X01261998Y01158998
X01274201Y01159201
X01267998Y01169998
X01289201Y01189201
X01309201Y01209201
X01369201Y01249201
T02
X01334142Y00919929
X01341213Y00927
Y00941142
X01334142Y00934071
X01327071Y00927
X01348284Y00934071
X0127597Y00978929
X01283041Y00986
Y01000142
X0127597Y00993071
X01268899Y00986
X01290112Y00993071
X01577Y01026
X01587
X01597
Y01036
X01587
X01577
X01598Y01109044
X01389929Y01222929
X01397Y0123
X01389929Y01237071
X01382858Y0123
X0135096Y01226702
Y01216702
Y01206702
Y01196702
X0136096
X0136096Y01206702
X0137096
X0136096Y01216702
X0134096
X0133096
Y01226702
X0134096
Y01236702
Y01206702
X01327Y01182
X01317
X01327Y01172
X01337
T03
X01421745Y00903
T04
X0142Y01255
X01446Y01253
T05
X01537Y01209
X01529Y01218
X01521Y01227
T06
X01384232Y00924613
X0140191Y00906935
M30
